<svg width="43" height="7" viewBox="0 0 43 7" fill="none" xmlns="http://www.w3.org/2000/svg">
<path fill-rule="evenodd" clip-rule="evenodd" d="M39.5587 0.38862C41.1029 0.38862 41.9522 0.993049 41.9522 2.13475C42.0294 3.00781 41.3346 3.74655 40.408 3.88087L42.4927 6.36574H40.8713L39.0955 3.94803H38.9411V6.36574H37.6285V0.38862H39.5587ZM38.9411 3.14209H39.3272C40.1765 3.14209 40.5625 2.8063 40.5625 2.20187C40.5625 1.6646 40.1765 1.32881 39.3272 1.32881H38.9411V3.14209ZM33.0733 6.36574H36.7793V5.35836H34.3858V3.74656H36.7021V2.73917H34.3858V1.396H36.7793V0.38862H33.0733V6.36574ZM29.2127 4.41814L27.4369 0.38862H26.0471L28.9039 6.50006H29.5988L32.4555 0.38862H31.0657L29.2127 4.41814ZM13.5392 3.41063C13.5392 5.0896 15.0833 6.49993 17.0136 6.49993C17.6313 6.49993 18.1717 6.36562 18.7122 6.16414V4.82097C18.3261 5.22392 17.7857 5.49255 17.168 5.49255C15.9326 5.49255 14.9289 4.68665 14.9289 3.61211V3.47779C14.8517 2.40325 15.8554 1.46303 17.0908 1.39587C17.7085 1.39587 18.3261 1.66451 18.7122 2.06746V0.724286C18.2489 0.455652 17.6313 0.388493 17.0908 0.388493C15.0833 0.254175 13.5392 1.66451 13.5392 3.41063ZM11.1457 2.67196C10.3737 2.40332 10.142 2.269 10.142 1.93321C10.2192 1.53026 10.6053 1.19446 11.0685 1.26162C11.4546 1.26162 11.8406 1.4631 12.1495 1.73173L12.8443 0.925829C12.3039 0.522877 11.609 0.254242 10.9141 0.254242C9.83319 0.187084 8.90668 0.925829 8.82947 1.86605V1.93321C8.82947 2.73911 9.21551 3.20922 10.4509 3.54502C10.7597 3.61218 11.0685 3.74649 11.3774 3.88081C11.609 4.01513 11.7634 4.21661 11.7634 4.48524C11.7634 4.95535 11.3002 5.3583 10.8369 5.3583H10.7597C10.142 5.3583 9.60156 5.02251 9.36993 4.5524L8.52063 5.29114C8.98389 6.02989 9.9104 6.43284 10.8369 6.43284C12.0723 6.5 13.076 5.6941 13.1532 4.61956V4.41808C13.076 3.61218 12.6899 3.20922 11.1457 2.67196ZM6.66762 6.36574H7.98017V0.38862H6.66762V6.36574ZM0.568115 0.388636H2.49835H2.88439C4.73741 0.455794 6.20439 1.79897 6.12718 3.41078C6.12718 4.28384 5.66393 5.08974 4.89183 5.69417C4.19695 6.16428 3.34765 6.43292 2.49835 6.36576H0.568115V0.388636ZM2.26677 5.35842C2.88444 5.42558 3.57932 5.2241 4.04258 4.88831C4.50584 4.48535 4.73746 3.94808 4.73746 3.34366C4.73746 2.80639 4.50584 2.26912 4.04258 1.86616C3.57932 1.53037 2.88444 1.32889 2.26677 1.39605H1.88072V5.35842H2.26677Z" fill="black"/>
<path fill-rule="evenodd" clip-rule="evenodd" d="M22.65 0.25C20.7198 0.25 19.0984 1.59317 19.0984 3.3393C19.0984 5.01827 20.6426 6.4286 22.65 6.49576C24.6575 6.56292 26.2016 5.15258 26.2788 3.40646C26.2016 1.66033 24.6575 0.25 22.65 0.25V0.25Z" fill="#FD6020"/>
</svg>
