<svg width="33" height="18" viewBox="0 0 33 18" fill="none" xmlns="http://www.w3.org/2000/svg">
<path d="M19.7215 8.6322C19.7215 13.2616 15.3372 17.0144 9.92891 17.0144C4.52063 17.0144 0.136353 13.2616 0.136353 8.6322C0.136353 4.00284 4.52063 0.25 9.92891 0.25C15.3372 0.25 19.7215 4.00284 19.7215 8.6322Z" fill="#ED0006"/>
<path d="M32.4253 8.6322C32.4253 13.2616 28.041 17.0144 22.6328 17.0144C17.2245 17.0144 12.8402 13.2616 12.8402 8.6322C12.8402 4.00284 17.2245 0.25 22.6328 0.25C28.041 0.25 32.4253 4.00284 32.4253 8.6322Z" fill="#2F80ED"/>
<path fill-rule="evenodd" clip-rule="evenodd" d="M16.2809 15.012C14.1754 13.4745 12.8403 11.1868 12.8403 8.6322C12.8403 6.07759 14.1754 3.78989 16.2809 2.25244C18.3864 3.78989 19.7215 6.07759 19.7215 8.6322C19.7215 11.1868 18.3864 13.4745 16.2809 15.012Z" fill="#6C6BBD"/>
</svg>
