<svg width="34" height="18" viewBox="0 0 34 18" fill="none" xmlns="http://www.w3.org/2000/svg">
<path fill-rule="evenodd" clip-rule="evenodd" d="M16.7871 15.0369C15.0379 16.2845 12.769 17.0376 10.2896 17.0376C4.75744 17.0376 0.272705 13.288 0.272705 8.6626C0.272705 4.03721 4.75744 0.287598 10.2896 0.287598C12.769 0.287598 15.0379 1.04072 16.7871 2.28827C18.5363 1.04072 20.8052 0.287598 23.2846 0.287598C28.8168 0.287598 33.3015 4.03721 33.3015 8.6626C33.3015 13.288 28.8168 17.0376 23.2846 17.0376C20.8052 17.0376 18.5363 16.2845 16.7871 15.0369Z" fill="#ED0006"/>
<path fill-rule="evenodd" clip-rule="evenodd" d="M16.787 15.037C18.9408 13.5008 20.3065 11.2151 20.3065 8.6626C20.3065 6.11012 18.9408 3.82435 16.787 2.28822C18.5361 1.0407 20.8051 0.287598 23.2844 0.287598C28.8166 0.287598 33.3013 4.03721 33.3013 8.6626C33.3013 13.288 28.8166 17.0376 23.2844 17.0376C20.8051 17.0376 18.5361 16.2845 16.787 15.037Z" fill="#F9A000"/>
<path fill-rule="evenodd" clip-rule="evenodd" d="M16.7871 15.0369C18.9409 13.5008 20.3066 11.2151 20.3066 8.66264C20.3066 6.1102 18.9409 3.82446 16.7871 2.28833C14.6334 3.82446 13.2677 6.1102 13.2677 8.66264C13.2677 11.2151 14.6334 13.5008 16.7871 15.0369Z" fill="#FD6020"/>
</svg>
