<svg width="14" height="17" viewBox="0 0 14 17" fill="none" xmlns="http://www.w3.org/2000/svg">
<path fill-rule="evenodd" clip-rule="evenodd" d="M4.26777 16.0604L4.54368 14.249L3.92906 14.2342H0.994141L3.03381 0.867123C3.04016 0.826646 3.0607 0.789071 3.0907 0.762341C3.12085 0.735611 3.15927 0.720947 3.19947 0.720947H8.14819C9.79122 0.720947 10.925 1.07424 11.5169 1.77167C11.7944 2.09885 11.9711 2.44084 12.0567 2.81704C12.1464 3.21189 12.1479 3.68356 12.0604 4.25894L12.054 4.30079V4.66952L12.3316 4.83204C12.5652 4.96019 12.751 5.10682 12.8934 5.27469C13.1308 5.55451 13.2843 5.9101 13.3492 6.33152C13.4163 6.765 13.3941 7.28097 13.2843 7.86506C13.1577 8.53683 12.953 9.12199 12.6765 9.60069C12.4223 10.0418 12.0984 10.4078 11.7137 10.6913C11.3465 10.9607 10.9102 11.1652 10.4169 11.2961C9.93885 11.4247 9.39384 11.4897 8.79606 11.4897H8.41095C8.13563 11.4897 7.86815 11.5922 7.65815 11.7759C7.44757 11.9635 7.30836 12.2198 7.26565 12.5001L7.23654 12.6632L6.74901 15.856L6.72699 15.9731C6.72108 16.0103 6.71103 16.0287 6.69625 16.0413C6.6831 16.0527 6.66418 16.0604 6.64571 16.0604H4.26777Z" fill="#28356A"/>
<path fill-rule="evenodd" clip-rule="evenodd" d="M12.5946 4.34326C12.58 4.44086 12.563 4.54061 12.5441 4.6431C11.8915 8.1064 9.65865 9.30283 6.80707 9.30283H5.35513C5.00637 9.30283 4.71243 9.56448 4.6582 9.92007L3.70427 16.1741C3.66895 16.4077 3.84304 16.618 4.07092 16.618H6.64614C6.95101 16.618 7.21007 16.3891 7.2581 16.0782L7.28337 15.943L7.76824 12.7628L7.79942 12.5883C7.84686 12.2764 8.10651 12.0473 8.41138 12.0473H8.7965C11.2915 12.0473 13.2447 11.0004 13.8156 7.97061C14.0539 6.70498 13.9305 5.64815 13.2995 4.9049C13.1086 4.68082 12.8717 4.49478 12.5946 4.34326Z" fill="#2F80ED"/>
<path fill-rule="evenodd" clip-rule="evenodd" d="M11.9115 4.06217C11.8118 4.03208 11.7089 4.00489 11.6034 3.9803C11.4973 3.95632 11.3887 3.93508 11.2768 3.91645C10.8853 3.85108 10.4563 3.82007 9.99687 3.82007H6.11808C6.02247 3.82007 5.93173 3.84237 5.8506 3.88269C5.67164 3.97159 5.53878 4.14663 5.50657 4.36093L4.68136 9.76285L4.65771 9.92033C4.71195 9.56474 5.00589 9.30309 5.35465 9.30309H6.80659C9.65816 9.30309 11.891 8.10605 12.5436 4.64335C12.5631 4.54086 12.5795 4.44112 12.5941 4.34352C12.429 4.25294 12.2502 4.1755 12.0577 4.10952C12.0101 4.09317 11.961 4.07744 11.9115 4.06217Z" fill="#28356A"/>
<path fill-rule="evenodd" clip-rule="evenodd" d="M5.50679 4.3609C5.53901 4.1466 5.67186 3.97156 5.85083 3.88327C5.93255 3.84279 6.0227 3.82049 6.11831 3.82049H9.9971C10.4566 3.82049 10.8856 3.85165 11.277 3.91703C11.3889 3.93551 11.4975 3.95689 11.6036 3.98087C11.7091 4.00531 11.812 4.03265 11.9117 4.06259C11.9613 4.07787 12.0103 4.09375 12.0583 4.10948C12.2509 4.17547 12.4299 4.25352 12.5949 4.34349C12.7891 3.06365 12.5933 2.19225 11.9239 1.40318C11.1857 0.534375 9.85361 0.162598 8.14896 0.162598H3.20009C2.85192 0.162598 2.55488 0.424247 2.50109 0.780444L0.439846 14.2849C0.399206 14.5521 0.598562 14.7931 0.859246 14.7931H3.91446L5.50679 4.3609Z" fill="#28356A"/>
</svg>
