<svg width="36" height="10" viewBox="0 0 36 10" fill="none" xmlns="http://www.w3.org/2000/svg">
<path fill-rule="evenodd" clip-rule="evenodd" d="M8.88109 9.82277H5.83829L3.55656 2.24042C3.44826 1.89163 3.2183 1.58329 2.88005 1.43796C2.0359 1.07274 1.1057 0.782085 0.0909424 0.635493V0.343573H4.99265C5.66916 0.343573 6.17654 0.782085 6.2611 1.29137L7.44499 6.76076L10.4863 0.343573H13.4445L8.88109 9.82277ZM15.1359 9.82277H12.2622L14.6285 0.343573H17.5022L15.1359 9.82277ZM21.22 2.96964C21.3045 2.4591 21.8119 2.16718 22.4039 2.16718C23.3341 2.09388 24.3473 2.24047 25.193 2.60443L25.7003 0.563512C24.8547 0.271592 23.9245 0.125 23.0804 0.125C20.2913 0.125 18.2617 1.43801 18.2617 3.2603C18.2617 4.6466 19.6993 5.37451 20.7141 5.81302C21.8119 6.25027 22.2347 6.54219 22.1502 6.97944C22.1502 7.63531 21.3045 7.92723 20.4604 7.92723C19.4456 7.92723 18.4309 7.70861 17.5021 7.34339L16.9948 9.38557C18.0095 9.74952 19.1074 9.89611 20.1221 9.89611C23.2495 9.96814 25.193 8.6564 25.193 6.68752C25.193 4.20809 21.22 4.06276 21.22 2.96964ZM35.2499 9.82277L32.9682 0.343573H30.5173C30.01 0.343573 29.5026 0.635493 29.3335 1.07274L25.1083 9.82277H28.0665L28.6569 8.43773H32.2917L32.6299 9.82277H35.2499ZM30.9403 2.89625L31.7845 6.46879H29.4182L30.9403 2.89625Z" fill="#28356A"/>
</svg>
