<svg width="25" height="20" viewBox="0 0 25 20" fill="none" xmlns="http://www.w3.org/2000/svg">
<path fill-rule="evenodd" clip-rule="evenodd" d="M18.205 20C17.0867 19.908 16.1146 19.6846 15.1655 19.3795C12.7218 18.5934 10.5824 17.3747 8.61417 15.9169C6.23439 14.1544 4.23741 12.1149 2.71279 9.74128C1.93132 8.52439 1.32743 7.24581 1.01706 5.87313C0.969472 5.66244 0.940554 5.44871 0.901951 5.23657C0.85296 4.96784 0.956275 4.73189 1.10577 4.5042C1.87924 3.32605 2.8512 2.27723 3.93504 1.30661C4.34016 0.94401 4.79133 0.616862 5.24334 0.296763C6.0168 -0.251147 6.7403 0.0427266 7.2406 0.508182C7.43558 0.689604 7.58971 0.905392 7.75198 1.11159C8.59115 2.17838 9.41122 3.25538 10.0536 4.42406C10.1838 4.66098 10.2876 4.90918 10.396 5.15472C10.6182 5.65855 10.4792 6.10094 10.0461 6.46767C9.69127 6.76821 9.3058 7.04156 8.93773 7.33069C8.3702 7.7766 8.40389 7.55911 8.69699 8.17223C9.88681 10.6619 11.9512 12.3833 14.8588 13.3509C15.0606 13.418 15.182 13.4019 15.3254 13.2497C15.6798 12.8734 16.0552 12.5114 16.4326 12.1521C16.9251 11.6834 17.5293 11.5436 18.1952 11.8135C19.0273 12.1508 19.8596 12.4964 20.6495 12.9003C21.5315 13.3511 22.3704 13.8659 23.2174 14.3663C23.4051 14.4772 23.5766 14.6274 23.7068 14.7889C24.0591 15.2261 24.1378 15.6921 23.7265 16.1327C23.3245 16.5634 22.9183 16.9969 22.4599 17.3812C21.3456 18.3155 20.1379 19.152 18.7769 19.8084C18.573 19.9066 18.3378 19.9565 18.205 20Z" fill="black"/>
</svg>
