<svg width="15" height="11" viewBox="0 0 15 11" fill="none" xmlns="http://www.w3.org/2000/svg">
<path d="M14.3847 3.97266C13.7558 4.46484 12.9629 5.06641 10.1738 7.08984C9.62692 7.5 8.6152 8.40234 7.65817 8.40234C6.6738 8.40234 5.68942 7.5 5.1152 7.08984C2.32614 5.06641 1.53317 4.46484 0.904264 3.97266C0.794889 3.89062 0.658171 3.97266 0.658171 4.10938V9.6875C0.658171 10.4258 1.23239 11 1.97067 11H13.3457C14.0566 11 14.6582 10.4258 14.6582 9.6875V4.10938C14.6582 3.97266 14.4941 3.89062 14.3847 3.97266ZM7.65817 7.5C8.28708 7.52734 9.18942 6.70703 9.65426 6.37891C13.291 3.75391 13.5644 3.50781 14.3847 2.85156C14.5488 2.74219 14.6582 2.55078 14.6582 2.33203V1.8125C14.6582 1.10156 14.0566 0.5 13.3457 0.5H1.97067C1.23239 0.5 0.658171 1.10156 0.658171 1.8125V2.33203C0.658171 2.55078 0.740202 2.74219 0.904264 2.85156C1.72458 3.50781 1.99801 3.75391 5.63473 6.37891C6.09958 6.70703 7.00192 7.52734 7.65817 7.5Z" fill="white"/>
</svg>
