<svg width="12" height="15" viewBox="0 0 12 15" fill="none" xmlns="http://www.w3.org/2000/svg">
<path d="M5.4528 14.4766C5.69889 14.8594 6.27311 14.8594 6.51921 14.4766C10.5114 8.73438 11.2497 8.13281 11.2497 6C11.2497 3.10156 8.89811 0.75 5.99967 0.75C3.07389 0.75 0.749675 3.10156 0.749675 6C0.749675 8.13281 1.46061 8.73438 5.4528 14.4766ZM5.99967 8.1875C4.76921 8.1875 3.81217 7.23047 3.81217 6C3.81217 4.79688 4.76921 3.8125 5.99967 3.8125C7.2028 3.8125 8.18717 4.79688 8.18717 6C8.18717 7.23047 7.2028 8.1875 5.99967 8.1875Z" fill="white"/>
<path d="M5.4528 14.4766L6.29398 13.9358L6.28419 13.9206L6.27386 13.9057L5.4528 14.4766ZM6.51921 14.4766L5.69814 13.9057L5.68781 13.9206L5.67803 13.9358L6.51921 14.4766ZM4.61162 15.0173C5.25135 16.0125 6.72065 16.0125 7.36038 15.0173L5.67803 13.9358C5.7562 13.8142 5.88392 13.7637 5.986 13.7637C6.08808 13.7637 6.21581 13.8142 6.29398 13.9358L4.61162 15.0173ZM7.34027 15.0474C9.3034 12.2237 10.5323 10.5724 11.2381 9.40078C11.6036 8.79401 11.8663 8.25809 12.0311 7.69971C12.1979 7.13413 12.2497 6.5951 12.2497 6H10.2497C10.2497 6.47131 10.2091 6.80728 10.1128 7.13379C10.0144 7.4675 9.843 7.84076 9.52493 8.36875C8.86354 9.46665 7.7272 10.9872 5.69814 13.9057L7.34027 15.0474ZM12.2497 6C12.2497 2.54928 9.4504 -0.25 5.99967 -0.25V1.75C8.34583 1.75 10.2497 3.65385 10.2497 6H12.2497ZM5.99967 -0.25C2.51821 -0.25 -0.250325 2.55268 -0.250325 6H1.74967C1.74967 3.65045 3.62957 1.75 5.99967 1.75V-0.25ZM-0.250325 6C-0.250325 6.59245 -0.200796 7.13005 -0.0374794 7.69463C0.124 8.25285 0.382723 8.78901 0.745308 9.39698C1.4458 10.5715 2.66719 12.2217 4.63173 15.0474L6.27386 13.9057C4.24622 10.9893 3.11605 9.46753 2.46303 8.37255C2.14885 7.84576 1.98033 7.47273 1.88375 7.13887C1.78901 6.81136 1.74967 6.47395 1.74967 6H-0.250325ZM5.99967 7.1875C5.32149 7.1875 4.81217 6.67818 4.81217 6H2.81217C2.81217 7.78275 4.21692 9.1875 5.99967 9.1875V7.1875ZM4.81217 6C4.81217 5.34098 5.32964 4.8125 5.99967 4.8125V2.8125C4.20878 2.8125 2.81217 4.25277 2.81217 6H4.81217ZM5.99967 4.8125C6.65051 4.8125 7.18717 5.34916 7.18717 6H9.18718C9.18718 4.24459 7.75508 2.8125 5.99967 2.8125V4.8125ZM7.18717 6C7.18717 6.67004 6.6587 7.1875 5.99967 7.1875V9.1875C7.7469 9.1875 9.18718 7.7909 9.18718 6H7.18717Z" fill="black"/>
</svg>
