<svg width="28" height="29" viewBox="0 0 28 29" fill="none" xmlns="http://www.w3.org/2000/svg">
<path fill-rule="evenodd" clip-rule="evenodd" d="M12.552 0C13.013 0.0739036 13.4769 0.134342 13.9348 0.223902C16.049 0.637653 17.9 1.58406 19.4926 3.03476C21.395 4.76772 22.628 6.89691 23.1167 9.42824C23.6944 12.4202 23.1792 15.2317 21.5984 17.8397C21.4522 18.0809 21.2934 18.3149 21.1301 18.5449C20.9722 18.7674 20.801 18.9804 20.6216 19.2159C20.688 19.2903 20.7517 19.3664 20.8202 19.4379C23.0087 21.7231 25.1979 24.0076 27.3865 26.2927C28.0355 26.9703 28.0785 27.8622 27.4946 28.4989C26.9583 29.0835 26.0411 29.147 25.431 28.6381C25.3158 28.542 25.2086 28.4352 25.1045 28.3267C22.9272 26.0569 20.7507 23.7863 18.5753 21.5147C18.5107 21.4472 18.4583 21.3679 18.3932 21.285C18.2706 21.3584 18.1817 21.4062 18.0984 21.4624C16.4576 22.5651 14.6467 23.1992 12.6855 23.3618C10.2014 23.5677 7.86895 23.05 5.7276 21.7478C3.02594 20.1047 1.23134 17.7536 0.414844 14.6946C-0.315891 11.957 -0.0874075 9.2766 1.14918 6.71406C2.72096 3.45705 5.26921 1.3537 8.73739 0.385286C9.33872 0.217333 9.97125 0.162261 10.5892 0.0535406C10.6613 0.0408401 10.7317 0.0181756 10.8029 0.000110262C11.3861 7.75166e-07 11.9689 0 12.552 0ZM11.6866 20.8847C16.7419 20.8764 20.8343 16.7693 20.8347 11.7037C20.8353 6.6453 16.7335 2.51962 11.691 2.50681C6.65637 2.49389 2.51856 6.64979 2.52369 11.7141C2.52871 16.772 6.64611 20.8928 11.6866 20.8847Z" fill="black" fill-opacity="0.8"/>
</svg>
