<svg width="29" height="30" viewBox="0 0 29 30" fill="none" xmlns="http://www.w3.org/2000/svg">
<path d="M28.2085 21.7622C27.8195 19.9031 26.6576 18.7307 24.7545 18.2777C23.6604 18.0173 22.5239 17.5948 21.2798 16.9863C20.893 16.797 20.5087 16.5849 20.1373 16.3799C19.9424 16.2725 19.7478 16.165 19.5516 16.0599C19.3632 15.9593 19.155 15.906 18.9487 15.906C18.442 15.906 18.0264 16.2128 17.9146 16.6696C17.8141 17.0795 18.0197 17.4718 18.4787 17.7467C20.3495 18.8663 22.307 19.6876 24.2967 20.1876C25.2053 20.4158 25.7671 20.9376 26.014 21.7827C26.3191 22.8278 26.3629 23.9617 26.1557 25.4591C26.1494 25.5069 26.0681 25.6026 25.986 25.6424C24.4589 26.3892 22.7304 26.9616 20.7021 27.3927C18.632 27.8324 16.5109 28.0553 14.3976 28.0553C12.8275 28.0553 11.2238 27.9321 9.63103 27.6894C7.15396 27.3119 4.84629 26.6394 2.77199 25.6908C2.57573 25.6009 2.49883 25.4975 2.47768 25.2957C2.35125 24.083 2.37274 23.0984 2.54534 22.1967C2.76225 21.0637 3.38916 20.4085 4.51806 20.1356C6.38602 19.6836 8.24962 18.8966 10.2148 17.73C10.5091 17.5553 10.7049 17.3113 10.7661 17.0419C10.8219 16.7975 10.7665 16.5519 10.6065 16.3313C10.4022 16.0497 10.0973 15.8945 9.74821 15.8945C9.51652 15.8945 9.27342 15.9653 9.04525 16.0993C7.32336 17.1118 5.49939 17.8731 3.6237 18.3615C2.13602 18.7488 1.14277 19.6568 0.671501 21.0603C0.109233 22.7351 0.223903 24.4085 0.409926 25.8246C0.501427 26.5219 0.870285 26.9878 1.60615 27.3349C4.40557 28.6553 7.45045 29.469 10.9152 29.822C11.3699 29.8684 11.8321 29.9072 12.2793 29.9448C12.4917 29.9626 12.7038 29.9805 12.9309 29.9998H15.6929L15.7055 29.998C15.7391 29.9928 15.7725 29.9873 15.8059 29.9816C15.8736 29.9706 15.9411 29.9589 16.0094 29.9525C16.3512 29.9196 16.6939 29.8912 17.0365 29.8624C17.7539 29.8023 18.496 29.7402 19.2217 29.6388C22.1235 29.2339 24.8312 28.4274 27.2695 27.2414C27.8362 26.9659 28.1439 26.576 28.2376 26.0145C28.4945 24.4751 28.4851 23.0842 28.2085 21.7622Z" fill="#323231" fill-opacity="0.69"/>
<path fill-rule="evenodd" clip-rule="evenodd" d="M14.8497 0.000153066C15.1625 0.0451792 15.4778 0.0788724 15.7879 0.13661C18.8609 0.709086 20.8001 2.58135 21.2264 5.4353C21.5133 7.35627 21.4765 9.2731 20.9169 11.1581C20.4912 12.5919 19.7734 13.8742 18.4813 14.8337C17.2136 15.7748 15.7289 16.1162 14.1314 16.0828C12.5994 16.0508 11.1964 15.6539 10.0201 14.7141C9.01562 13.9114 8.3689 12.8963 7.94833 11.7558C7.28902 9.96748 7.17754 8.12692 7.33586 6.26002C7.43878 5.04446 7.71798 3.87577 8.43018 2.82853C9.48118 1.28263 11.0271 0.410136 12.9809 0.113791C13.1998 0.080557 13.4172 0.0381344 13.635 0C14.0398 0.00015315 14.4447 0.000153066 14.8497 0.000153066ZM19.3389 7.36071C19.3005 6.91933 19.2788 6.44594 19.2135 5.97761C19.101 5.17051 18.8549 4.39894 18.3408 3.72109C17.6246 2.77616 16.6154 2.26494 15.3879 2.07059C14.0972 1.86614 12.8499 1.95956 11.6965 2.55363C10.2617 3.29258 9.66233 4.51763 9.45213 5.9384C9.2604 7.23237 9.28005 8.52725 9.52819 9.81479C9.74376 10.9334 10.1276 11.9963 10.9752 12.859C12.1899 14.0952 13.7601 14.2987 15.4433 14.02C17.0942 13.7465 18.0663 12.7346 18.6601 11.3748C19.2184 10.0961 19.3357 8.75101 19.3389 7.36071Z" fill="#323231" fill-opacity="0.69"/>
</svg>
