<svg width="33" height="28" viewBox="0 0 33 28" fill="none" xmlns="http://www.w3.org/2000/svg">
<path fill-rule="evenodd" clip-rule="evenodd" d="M0.601562 8.37932C0.726263 7.7773 0.794367 7.15655 0.984994 6.57637C2.15913 3.00188 4.58752 0.796923 8.29008 0.158808C11.3394 -0.366663 13.987 0.577039 16.2122 2.72469C16.2566 2.76754 16.3008 2.81081 16.3453 2.85314C16.3528 2.86011 16.3629 2.86406 16.3991 2.88591C16.4575 2.83442 16.5256 2.77857 16.5891 2.71813C19.1139 0.317633 22.085 -0.561792 25.4446 0.356637C28.8124 1.27735 30.9694 3.53598 31.9027 6.91243C32.5352 9.20039 32.1419 11.4068 31.1805 13.5319C30.1174 15.8817 28.5523 17.8787 26.7874 19.727C23.9049 22.7456 20.6284 25.2731 17.1171 27.5073C16.6352 27.8139 16.1992 27.8195 15.7148 27.5122C11.6364 24.925 7.86384 21.9695 4.70932 18.2778C3.18254 16.4909 1.87614 14.557 1.14152 12.2955C0.92052 11.6151 0.818934 10.8958 0.661581 10.1946C0.645929 10.1252 0.62188 10.0576 0.601667 9.98901C0.601563 9.45252 0.601562 8.91592 0.601562 8.37932ZM2.57532 9.15556C2.54567 9.1616 2.51602 9.16763 2.48648 9.17366C2.64985 9.97716 2.74998 10.8 2.98881 11.5802C3.63708 13.7002 4.89362 15.4724 6.32379 17.1226C9.18703 20.4264 12.5989 23.0815 16.2237 25.4804C16.3564 25.5682 16.4429 25.568 16.5753 25.4805C19.9564 23.2404 23.1466 20.7675 25.9005 17.7661C27.2279 16.3198 28.4128 14.7681 29.2615 12.9826C30.0387 11.3473 30.4741 9.63776 30.0789 7.83076C29.4317 4.87327 27.6344 2.91035 24.6968 2.21991C21.7065 1.5171 19.2129 2.50387 17.3097 4.92892C16.7346 5.66158 16.056 5.66886 15.4864 4.93724C13.724 2.67414 11.4165 1.69507 8.57908 2.12204C5.14365 2.63888 2.58496 5.66855 2.57532 9.15556Z" fill="black" fill-opacity="0.8"/>
</svg>
