<svg width="16" height="16" viewBox="0 0 16 16" fill="none" xmlns="http://www.w3.org/2000/svg">
<path d="M7.9601 5.82202C6.9727 5.82202 6.1828 6.6189 6.1828 7.58179C6.1828 8.57788 6.9727 9.3748 7.9601 9.3748C8.9146 9.3748 9.7046 8.57788 9.7046 7.58179C9.7046 6.6189 8.9146 5.82202 7.9601 5.82202ZM12.0415 4.46069C11.8769 3.99585 11.5148 3.63062 11.054 3.4646C10.3629 3.16577 8.7172 3.23218 7.9601 3.23218C7.1702 3.23218 5.5245 3.16577 4.8333 3.4646C4.3725 3.63062 4.0105 3.99585 3.8459 4.46069C3.5826 5.15796 3.6155 6.81812 3.6155 7.58179C3.6155 8.37866 3.5826 10.0388 3.8459 10.7361C4.0105 11.2009 4.3725 11.5662 4.8333 11.7322C5.5245 12.031 7.1702 11.9646 7.9601 11.9646C8.7172 11.9646 10.3629 12.031 11.054 11.7322C11.5148 11.5662 11.8769 11.2009 12.0415 10.7361C12.3377 10.0388 12.2719 8.37866 12.2719 7.58179C12.2719 6.81812 12.3377 5.15796 12.0415 4.46069ZM7.9601 10.3044C6.4461 10.3044 5.2612 9.1091 5.2612 7.58179C5.2612 6.08765 6.4461 4.85913 7.9601 4.85913C9.4413 4.85913 10.6591 6.08765 10.6591 7.58179V7.61499C10.6591 9.1091 9.4413 10.3376 7.9601 10.3376V10.3044ZM10.7578 5.39038C10.3958 5.39038 10.1325 5.12476 10.1325 4.75952C10.1325 4.39429 10.3958 4.12866 10.7578 4.12866C11.087 4.12866 11.3832 4.39429 11.3832 4.75952C11.3832 5.12476 11.087 5.39038 10.7578 5.39038ZM13.753 0.144287H2.1673C1.2786 0.144287 0.587402 0.874757 0.587402 1.73804V13.4255C0.587402 14.322 1.2786 15.0193 2.1673 15.0193H13.753C14.6088 15.0193 15.3329 14.322 15.3329 13.4255V1.73804C15.3329 0.874757 14.6088 0.144287 13.753 0.144287ZM13.1605 9.7732C13.1276 10.6365 12.9301 11.4001 12.3377 11.9978C11.7123 12.6287 10.9553 12.8279 10.1325 12.8611C9.2438 12.9275 6.6436 12.9275 5.7878 12.8611C4.9321 12.8279 4.175 12.6287 3.5826 11.9978C2.9572 11.4001 2.7598 10.6365 2.7268 9.7732C2.661 8.90991 2.661 6.28687 2.7268 5.39038C2.7598 4.5603 2.9572 3.79663 3.5826 3.16577C4.175 2.56812 4.9321 2.3689 5.7878 2.33569C6.6436 2.26929 9.2438 2.26929 10.1325 2.33569C10.9553 2.3689 11.7123 2.56812 12.3377 3.19897C12.9301 3.79663 13.1276 4.5603 13.1605 5.42358C13.2264 6.28687 13.2264 8.90991 13.1605 9.7732Z" fill="#1A1A1A"/>
</svg>
