<svg width="19" height="5" viewBox="0 0 19 5" fill="none" xmlns="http://www.w3.org/2000/svg">
<path d="M11.3292 2.43496C11.3292 1.37416 10.4316 0.476562 9.37081 0.476562C8.28281 0.476562 7.41241 1.37416 7.41241 2.43496C7.41241 3.52295 8.28281 4.39335 9.37081 4.39335C10.4316 4.39335 11.3292 3.52295 11.3292 2.43496ZM16.1475 0.476562C15.0595 0.476562 14.1891 1.37416 14.1891 2.43496C14.1891 3.52295 15.0595 4.39335 16.1475 4.39335C17.2083 4.39335 18.1059 3.52295 18.1059 2.43496C18.1059 1.37416 17.2083 0.476562 16.1475 0.476562ZM2.59414 0.476562C1.50614 0.476562 0.635742 1.37416 0.635742 2.43496C0.635742 3.52295 1.50614 4.39335 2.59414 4.39335C3.65493 4.39335 4.55253 3.52295 4.55253 2.43496C4.55253 1.37416 3.65493 0.476562 2.59414 0.476562Z" fill="#474747"/>
</svg>
