<svg width="16" height="17" viewBox="0 0 16 17" fill="none" xmlns="http://www.w3.org/2000/svg">
<path d="M12.8415 5.73661C12.8415 4.48038 12.3425 3.27561 11.4542 2.38732C10.5659 1.49903 9.36114 1 8.10491 1C6.84868 1 5.64391 1.49903 4.75562 2.38732C3.86734 3.27561 3.3683 4.48038 3.3683 5.73661C3.3683 11.2626 1 12.8415 1 12.8415H15.2098C15.2098 12.8415 12.8415 11.2626 12.8415 5.73661Z" stroke="black" stroke-linecap="round" stroke-linejoin="round"/>
<path d="M9.4707 15.2097C9.33191 15.449 9.1327 15.6476 8.89301 15.7856C8.65333 15.9237 8.38158 15.9964 8.10498 15.9964C7.82838 15.9964 7.55663 15.9237 7.31694 15.7856C7.07726 15.6476 6.87805 15.449 6.73926 15.2097" stroke="black" stroke-linecap="round" stroke-linejoin="round"/>
</svg>
