<svg width="13" height="11" viewBox="0 0 13 11" fill="none" xmlns="http://www.w3.org/2000/svg">
<path d="M11.3682 0.25H1.61816C0.985352 0.25 0.493164 0.765625 0.493164 1.375V9.625C0.493164 10.2578 0.985352 10.75 1.61816 10.75H11.3682C11.9775 10.75 12.4932 10.2578 12.4932 9.625V1.375C12.4932 0.765625 11.9775 0.25 11.3682 0.25ZM9.39941 7.07031C9.5166 7.1875 9.5166 7.375 9.39941 7.46875L8.43848 8.42969C8.34473 8.54688 8.15723 8.54688 8.04004 8.42969L6.49316 6.85938L4.92285 8.42969C4.80566 8.54688 4.61816 8.54688 4.52441 8.42969L3.56348 7.46875C3.44629 7.375 3.44629 7.1875 3.56348 7.07031L5.13379 5.5L3.56348 3.95312C3.44629 3.83594 3.44629 3.64844 3.56348 3.55469L4.52441 2.59375C4.61816 2.47656 4.80566 2.47656 4.92285 2.59375L6.49316 4.16406L8.04004 2.59375C8.15723 2.47656 8.34473 2.47656 8.43848 2.59375L9.39941 3.55469C9.5166 3.64844 9.5166 3.83594 9.39941 3.95312L7.8291 5.5L9.39941 7.07031Z" fill="white"/>
</svg>
