<svg width="17" height="19" viewBox="0 0 17 19" fill="none" xmlns="http://www.w3.org/2000/svg">
<path d="M1 4.40039H2.7H16.3" stroke="#474747" stroke-linecap="round" stroke-linejoin="round"/>
<path d="M5.24995 4.40037V2.70037C5.24995 2.2495 5.42906 1.8171 5.74787 1.49828C6.06668 1.17947 6.49908 1.00037 6.94995 1.00037H10.35C10.8008 1.00037 11.2332 1.17947 11.552 1.49828C11.8708 1.8171 12.05 2.2495 12.05 2.70037V4.40037M14.6 4.40037V16.3004C14.6 16.7512 14.4208 17.1836 14.102 17.5024C13.7832 17.8213 13.3508 18.0004 12.9 18.0004H4.39995C3.94908 18.0004 3.51668 17.8213 3.19787 17.5024C2.87906 17.1836 2.69995 16.7512 2.69995 16.3004V4.40037H14.6Z" stroke="#474747" stroke-linecap="round" stroke-linejoin="round"/>
<path d="M6.9502 8.65039V13.7504" stroke="#474747" stroke-linecap="round" stroke-linejoin="round"/>
<path d="M10.3499 8.65039V13.7504" stroke="#474747" stroke-linecap="round" stroke-linejoin="round"/>
</svg>
