<svg width="19" height="19" viewBox="0 0 19 19" fill="none" xmlns="http://www.w3.org/2000/svg">
<path d="M8.60387 2.79224H2.68975C2.2416 2.79224 1.81181 2.97026 1.49492 3.28715C1.17803 3.60404 1 4.03384 1 4.48199V16.3102C1 16.7584 1.17803 17.1882 1.49492 17.5051C1.81181 17.822 2.2416 18 2.68975 18H14.518C14.9661 18 15.3959 17.822 15.7128 17.5051C16.0297 17.1882 16.2077 16.7584 16.2077 16.3102V10.3961M14.9405 1.52494C15.2766 1.18883 15.7325 1 16.2078 1C16.6832 1 17.139 1.18883 17.4751 1.52494C17.8113 1.86105 18.0001 2.31692 18.0001 2.79225C18.0001 3.26758 17.8113 3.72345 17.4751 4.05956L9.44884 12.0859L6.06934 12.9307L6.91421 9.55125L14.9405 1.52494Z" stroke="#474747" stroke-linecap="round" stroke-linejoin="round"/>
</svg>
