<svg width="163" height="94" viewBox="0 0 163 94" fill="none" xmlns="http://www.w3.org/2000/svg">
<path d="M58.667 73.4733L53.9944 67.1996C52.8912 67.5877 51.723 67.8787 50.5549 68.1051L50.1006 74.6698C50.1006 74.9609 49.9059 75.1872 49.6139 75.2196L43.8705 75.4783C43.5784 75.4783 43.3513 75.2843 43.3188 74.9932L42.1831 68.0081C41.1772 67.814 40.2038 67.523 39.2303 67.1673L35.2067 72.8912C35.0769 73.1499 34.7524 73.2469 34.4928 73.0852L29.4633 70.3365C29.2037 70.2071 29.1064 69.8837 29.2686 69.625L31.9618 62.9633C31.9943 62.9309 32.0267 62.8986 32.0592 62.8662C31.3453 62.2195 30.6314 61.5404 30.0149 60.7966L23.363 63.6747C23.1034 63.8041 22.8113 63.7394 22.6491 63.4807L19.7612 58.5329C19.6314 58.2742 19.6963 57.9831 19.9559 57.8214L25.6993 53.5204C25.6993 53.5204 25.6993 53.5204 25.7317 53.5204C25.4072 52.5502 25.1152 51.5801 24.9205 50.5776H24.8881L17.7494 49.6721C17.4573 49.6721 17.2302 49.4457 17.2302 49.1547L17.2951 43.4307C17.2951 43.1397 17.5222 42.9133 17.8143 42.9133L24.8556 42.2019C25.0503 41.07 25.3748 39.9705 25.7317 38.9033L20.1181 35.055C19.8585 34.9257 19.7612 34.6023 19.891 34.3436L22.5518 29.2664C22.6815 29.0077 23.006 28.9107 23.2332 29.0401L29.95 31.5948C30.599 30.8834 31.2804 30.1719 31.9943 29.5575L29.1713 23.4131C29.009 23.1544 29.1064 22.8634 29.3335 22.7017L34.2332 19.7265C34.4928 19.5649 34.7849 19.6619 34.9471 19.8882L39.1654 25.2888C40.1389 24.9331 41.1448 24.642 42.1831 24.448L42.9295 17.8832C42.9295 17.5922 43.1566 17.3658 43.4486 17.3658H49.192C49.4841 17.3658 49.7112 17.5922 49.7112 17.8832L50.4575 24.351C51.8204 24.5773 53.1183 24.9331 54.3838 25.4181L58.6021 20.0176V12.515C56.9472 11.9653 55.2275 11.5449 53.4752 11.2215L52.2746 0.840804C52.2746 0.388063 51.9177 0 51.431 0H42.1831C41.7289 0 41.3395 0.355725 41.3395 0.840804L40.1064 11.4479C38.4516 11.8036 36.7967 12.2563 35.2391 12.8061L28.5223 4.07466C28.2952 3.6866 27.776 3.55725 27.3866 3.78362L19.5016 8.60207C19.1122 8.82844 18.9824 9.34586 19.2096 9.73392L23.7524 19.6295C22.5842 20.6644 21.481 21.7639 20.475 22.9281L9.66967 18.7564C9.24784 18.53 8.76111 18.6917 8.53397 19.1121L4.28321 27.2938C4.05607 27.7142 4.21831 28.1993 4.64015 28.4256L13.6933 34.57C13.0768 36.2839 12.6225 38.0302 12.2656 39.8735L0.941009 41.0377C0.486729 41.0377 0.0973457 41.3934 0.0973457 41.8461L0 51.0626C0 51.5154 0.356934 51.9035 0.811214 51.9035L12.298 53.3587C12.3305 53.3587 12.3305 53.3587 12.3629 53.3587C12.6874 54.9756 13.1092 56.5602 13.6608 58.1125C13.6608 58.1125 13.6284 58.1125 13.6284 58.1448L4.38056 65.0653C3.99117 65.2916 3.86138 65.8091 4.08852 66.1971L8.72867 74.1847C8.9558 74.5728 9.47498 74.7022 9.86436 74.4758L20.4102 69.8514C20.4102 69.8514 20.4102 69.8514 20.4426 69.8514C21.481 71.0156 22.5842 72.1474 23.7524 73.1823C23.6875 73.2469 23.655 73.2793 23.6226 73.3763L19.3069 84.0804C19.0798 84.4684 19.242 84.9858 19.6314 85.2122L27.7435 89.6103C28.1329 89.8366 28.6521 89.6749 28.8792 89.2869L35.3689 80.038C36.894 80.5878 38.484 81.0405 40.1064 81.3639L41.9235 92.6178C41.956 93.0705 42.3454 93.4262 42.7997 93.3939L52.0151 92.9735C52.4693 92.9411 52.8263 92.5531 52.7938 92.1003L53.5401 81.558C55.2924 81.2669 56.9797 80.8142 58.6346 80.2644L58.667 73.4733Z" fill="url(#paint0_linear_526_7780)"/>
<path d="M39.6197 57.7889C39.6197 58.6297 39.3601 59.2765 38.841 59.7292C38.3218 60.1819 37.5755 60.4083 36.5696 60.4083H35.8557V63.1894H34.2008V55.3635H36.6993C37.6404 55.3635 38.3867 55.5575 38.8734 55.9779C39.3601 56.366 39.6197 56.9804 39.6197 57.7889ZM35.8557 59.0501H36.4073C36.9265 59.0501 37.3159 58.9531 37.543 58.759C37.8026 58.565 37.9324 58.274 37.9324 57.8859C37.9324 57.4978 37.835 57.2068 37.6079 57.0128C37.3808 56.8187 37.0563 56.7217 36.602 56.7217H35.8557V59.0501Z" fill="#3F3F3F"/>
<path d="M42.7672 60.1822V63.1896H41.1123V55.3637H43.4162C44.487 55.3637 45.2657 55.5577 45.7849 55.9458C46.3041 56.3339 46.5637 56.916 46.5637 57.7244C46.5637 58.1772 46.4339 58.5976 46.1743 58.9533C45.9147 59.309 45.5578 59.6001 45.1035 59.7941C46.2716 61.5404 47.0504 62.7046 47.4073 63.222H45.5578L43.6757 60.2145H42.7672V60.1822ZM42.7672 58.8239H43.3188C43.838 58.8239 44.2274 58.7269 44.487 58.5652C44.7465 58.4035 44.8763 58.1125 44.8763 57.7244C44.8763 57.3687 44.7465 57.0776 44.487 56.916C44.2274 56.7543 43.838 56.6896 43.2864 56.6896H42.7672V58.8239Z" fill="#3F3F3F"/>
<path d="M55.4871 59.2443C55.4871 60.5379 55.1626 61.5404 54.5137 62.2195C53.8647 62.9309 52.9561 63.2543 51.7231 63.2543C50.49 63.2543 49.5815 62.8986 48.9325 62.2195C48.2835 61.508 47.959 60.5379 47.959 59.212C47.959 57.9184 48.2835 56.9159 48.9325 56.2368C49.5815 55.5577 50.5225 55.202 51.7231 55.202C52.9237 55.202 53.8647 55.5577 54.4812 56.2368C55.1951 56.9483 55.4871 57.9508 55.4871 59.2443ZM49.7762 59.2443C49.7762 60.1175 49.9384 60.7642 50.2629 61.217C50.5874 61.6697 51.1066 61.8961 51.7555 61.8961C53.0859 61.8961 53.7349 61.023 53.7349 59.2443C53.7349 57.4657 53.0859 56.5926 51.7555 56.5926C51.1066 56.5926 50.5874 56.8189 50.2629 57.2717C49.9384 57.7244 49.7762 58.3712 49.7762 59.2443Z" fill="#3F3F3F"/>
<path d="M60.4842 56.6249C59.8676 56.6249 59.3809 56.8513 59.024 57.3364C58.667 57.8214 58.5048 58.4682 58.5048 59.309C58.5048 61.0553 59.1538 61.9284 60.4842 61.9284C61.0358 61.9284 61.7172 61.7991 62.496 61.508V62.8986C61.847 63.1573 61.1331 63.2867 60.3219 63.2867C59.1862 63.2867 58.3101 62.9309 57.6936 62.2518C57.0771 61.5727 56.785 60.5702 56.785 59.2767C56.785 58.4682 56.9473 57.7568 57.2393 57.1423C57.5313 56.5279 57.9532 56.0751 58.5373 55.7194C59.0889 55.396 59.7379 55.2343 60.4842 55.2343C61.2629 55.2343 62.0093 55.4284 62.788 55.7841L62.2364 57.1423C61.9444 57.013 61.6523 56.8836 61.3603 56.7866C61.0358 56.6572 60.7438 56.6249 60.4842 56.6249Z" fill="#3F3F3F"/>
<path d="M68.6612 63.1896H64.1184V55.3637H68.6612V56.7219H65.8057V58.4359H68.4665V59.7941H65.8057V61.7991H68.6612V63.1896Z" fill="#3F3F3F"/>
<path d="M74.9562 61.023C74.9562 61.7344 74.6966 62.2842 74.1774 62.7046C73.6583 63.125 72.9444 63.319 72.0358 63.319C71.1922 63.319 70.4458 63.1573 69.7969 62.8339V61.2817C70.3161 61.508 70.7703 61.6697 71.1597 61.7667C71.5166 61.8638 71.8736 61.8961 72.1656 61.8961C72.5226 61.8961 72.8146 61.8314 73.0093 61.7021C73.204 61.5727 73.3013 61.3463 73.3013 61.0876C73.3013 60.9259 73.2689 60.7966 73.1715 60.6672C73.0742 60.5379 72.9444 60.4409 72.7821 60.3115C72.6199 60.2145 72.263 60.0205 71.7762 59.7941C71.2895 59.5677 70.9326 59.3413 70.7054 59.1473C70.4783 58.9533 70.2836 58.6946 70.1214 58.4359C69.9591 58.1772 69.8942 57.8538 69.8942 57.4657C69.8942 56.7866 70.1214 56.2368 70.6081 55.8164C71.0948 55.4284 71.7438 55.2343 72.555 55.2343C72.9768 55.2343 73.3662 55.2667 73.7231 55.3637C74.0801 55.4607 74.4695 55.5901 74.8913 55.7841L74.3397 57.0776C73.9178 56.916 73.5609 56.7866 73.3013 56.7219C73.0417 56.6572 72.7497 56.6249 72.4901 56.6249C72.1656 56.6249 71.9385 56.6896 71.7762 56.8513C71.614 57.013 71.5166 57.1747 71.5166 57.4334C71.5166 57.5951 71.5491 57.6921 71.614 57.8214C71.6789 57.9184 71.7762 58.0478 71.9385 58.1448C72.1007 58.2418 72.4252 58.4359 73.0093 58.6946C73.7556 59.0503 74.2423 59.406 74.5344 59.7617C74.8264 60.0528 74.9562 60.5055 74.9562 61.023Z" fill="#3F3F3F"/>
<path d="M81.0241 61.023C81.0241 61.7344 80.7645 62.2842 80.2454 62.7046C79.7262 63.125 79.0123 63.319 78.1038 63.319C77.2601 63.319 76.5138 63.1573 75.8648 62.8339V61.2817C76.384 61.508 76.8383 61.6697 77.2276 61.7667C77.5846 61.8638 77.9415 61.8961 78.2336 61.8961C78.5905 61.8961 78.8825 61.8314 79.0772 61.7021C79.2719 61.5727 79.3693 61.3463 79.3693 61.0876C79.3693 60.9259 79.3368 60.7966 79.2395 60.6672C79.1421 60.5379 79.0123 60.4409 78.8501 60.3115C78.6878 60.2145 78.3309 60.0205 77.8442 59.7941C77.3574 59.5677 77.0005 59.3413 76.7734 59.1473C76.5462 58.9533 76.3515 58.6946 76.1893 58.4359C76.027 58.1772 75.9622 57.8538 75.9622 57.4657C75.9622 56.7866 76.1893 56.2368 76.676 55.8164C77.1628 55.4284 77.8117 55.2343 78.6229 55.2343C79.0448 55.2343 79.4341 55.2667 79.7911 55.3637C80.148 55.4607 80.5374 55.5901 80.9592 55.7841L80.4076 57.0776C79.9858 56.916 79.6288 56.7866 79.3693 56.7219C79.1097 56.6572 78.8176 56.6249 78.558 56.6249C78.2336 56.6249 78.0064 56.6896 77.8442 56.8513C77.6819 57.013 77.5846 57.1747 77.5846 57.4334C77.5846 57.5951 77.617 57.6921 77.6819 57.8214C77.7468 57.9184 77.8442 58.0478 78.0064 58.1448C78.1687 58.2418 78.4931 58.4359 79.0772 58.6946C79.8235 59.0503 80.3103 59.406 80.6023 59.7617C80.8943 60.0528 81.0241 60.5055 81.0241 61.023Z" fill="#3F3F3F"/>
<path d="M86.9622 60.1822V63.1896H85.3073V55.3637H87.6112C88.682 55.3637 89.4607 55.5577 89.9799 55.9458C90.4991 56.3339 90.7587 56.916 90.7587 57.7244C90.7587 58.1772 90.6289 58.5976 90.3693 58.9533C90.1097 59.309 89.7528 59.6001 89.2985 59.7941C90.4666 61.5404 91.2454 62.7046 91.6023 63.222H89.7528L87.8707 60.2145H86.9622V60.1822ZM86.9622 58.8239H87.5138C88.033 58.8239 88.4224 58.7269 88.682 58.5652C88.9416 58.4035 89.0713 58.1125 89.0713 57.7244C89.0713 57.3687 88.9416 57.0776 88.682 56.916C88.4224 56.7543 88.033 56.6896 87.4814 56.6896H86.9622V58.8239Z" fill="#3F3F3F"/>
<path d="M97.1185 63.1896H92.5757V55.3637H97.1185V56.7219H94.2631V58.4359H96.9239V59.7941H94.2631V61.7991H97.1185V63.1896Z" fill="#3F3F3F"/>
<path d="M98.092 60.9259V59.6001H100.98V60.9259H98.092Z" fill="#3F3F3F"/>
<path d="M106.821 63.1896H102.278V55.3637H106.821V56.7219H103.965V58.4359H106.626V59.7941H103.965V61.7991H106.821V63.1896Z" fill="#3F3F3F"/>
<path d="M115.42 63.1896H113.31L109.903 57.2717H109.871C109.936 58.3065 109.968 59.0503 109.968 59.503V63.1896H108.476V55.3637H110.585L113.992 61.217H114.024C113.959 60.2145 113.959 59.4707 113.959 59.0503V55.3314H115.452V63.1896H115.42Z" fill="#3F3F3F"/>
<path d="M120.384 58.7916H123.499V62.8663C122.98 63.0279 122.526 63.1573 122.072 63.222C121.617 63.2867 121.163 63.319 120.709 63.319C119.508 63.319 118.632 62.9633 117.983 62.2842C117.366 61.6051 117.042 60.6026 117.042 59.2767C117.042 58.0155 117.399 57.013 118.145 56.3339C118.859 55.6224 119.865 55.2667 121.163 55.2667C121.974 55.2667 122.753 55.4284 123.499 55.7518L122.948 57.0776C122.364 56.7866 121.779 56.6572 121.163 56.6572C120.449 56.6572 119.865 56.8836 119.443 57.3687C119.021 57.8538 118.794 58.5005 118.794 59.309C118.794 60.1498 118.956 60.7966 119.313 61.2493C119.67 61.7021 120.157 61.9284 120.838 61.9284C121.195 61.9284 121.552 61.8961 121.909 61.8314V60.1822H120.384V58.7916Z" fill="#3F3F3F"/>
<path d="M125.381 63.1896V55.3637H127.036V63.1896H125.381Z" fill="#3F3F3F"/>
<path d="M135.992 63.1896H133.883L130.476 57.2717H130.443C130.508 58.3065 130.541 59.0503 130.541 59.503V63.1896H129.048V55.3637H131.157L134.564 61.217H134.597C134.532 60.2145 134.532 59.4707 134.532 59.0503V55.3314H136.024V63.1896H135.992Z" fill="#3F3F3F"/>
<path d="M142.514 63.1896H137.971V55.3637H142.514V56.7219H139.659V58.4359H142.319V59.7941H139.659V61.7991H142.514V63.1896Z" fill="#3F3F3F"/>
<path d="M148.679 63.1896H144.137V55.3637H148.679V56.7219H145.824V58.4359H148.485V59.7941H145.824V61.7991H148.679V63.1896Z" fill="#3F3F3F"/>
<path d="M151.989 60.1822V63.1896H150.334V55.3637H152.638C153.709 55.3637 154.488 55.5577 155.007 55.9458C155.526 56.3339 155.786 56.916 155.786 57.7244C155.786 58.1772 155.656 58.5976 155.396 58.9533C155.137 59.309 154.78 59.6001 154.325 59.7941C155.494 61.5404 156.272 62.7046 156.629 63.222H154.78L152.898 60.2145H151.989V60.1822ZM151.989 58.8239H152.541C153.06 58.8239 153.449 58.7269 153.709 58.5652C153.968 58.4035 154.098 58.1125 154.098 57.7244C154.098 57.3687 153.968 57.0776 153.709 56.916C153.449 56.7543 153.06 56.6896 152.508 56.6896H151.989V58.8239Z" fill="#3F3F3F"/>
<path d="M162.21 61.023C162.21 61.7344 161.951 62.2842 161.432 62.7046C160.913 63.125 160.199 63.319 159.29 63.319C158.446 63.319 157.7 63.1573 157.051 62.8339V61.2817C157.57 61.508 158.025 61.6697 158.414 61.7667C158.771 61.8638 159.128 61.8961 159.42 61.8961C159.777 61.8961 160.069 61.8314 160.264 61.7021C160.458 61.5727 160.556 61.3463 160.556 61.0876C160.556 60.9259 160.523 60.7966 160.426 60.6672C160.328 60.5379 160.199 60.4409 160.036 60.3115C159.874 60.2145 159.517 60.0205 159.031 59.7941C158.544 59.5677 158.187 59.3413 157.96 59.1473C157.733 58.9533 157.538 58.6946 157.376 58.4359C157.246 58.1448 157.148 57.8538 157.148 57.4657C157.148 56.7866 157.376 56.2368 157.862 55.8164C158.349 55.4284 158.998 55.2343 159.809 55.2343C160.231 55.2343 160.62 55.2667 160.977 55.3637C161.334 55.4607 161.724 55.5901 162.146 55.7841L161.594 57.0776C161.172 56.916 160.815 56.7866 160.556 56.7219C160.296 56.6572 160.004 56.6249 159.744 56.6249C159.42 56.6249 159.193 56.6896 159.031 56.8513C158.868 57.013 158.771 57.1747 158.771 57.4334C158.771 57.5951 158.803 57.6921 158.868 57.8214C158.933 57.9184 159.031 58.0478 159.193 58.1448C159.355 58.2418 159.679 58.4359 160.264 58.6946C161.01 59.0503 161.497 59.406 161.789 59.7617C162.081 60.0528 162.21 60.5055 162.21 61.023Z" fill="#3F3F3F"/>
<path d="M94.0684 27.4555L92.9003 33.2764L82.2571 33.2441L78.9474 50.3835H72.6199L75.6701 33.2441L37.5106 33.1794L38.4516 30.9157C39.2952 28.8137 41.3395 27.4555 43.6109 27.4555H94.0684Z" fill="#2D3881"/>
<path d="M42.605 41.6198L41.1772 50.3835H34.5253L36.1477 41.6845C36.6993 38.677 39.3601 36.4779 42.4103 36.4779H59.1862C58.9915 38.6123 57.8882 40.3909 55.7791 41.3934C55.5519 41.4904 55.3248 41.5551 55.0652 41.5551L42.605 41.6198Z" fill="#DF2A2F"/>
<path d="M125.479 27.4555H101.564L100.461 33.2764H122.883C123.013 33.2764 123.11 33.3734 123.142 33.4704C123.369 34.6023 123.175 35.5401 122.688 36.3162C122.526 36.5426 122.266 36.7043 122.007 36.7043H105.231C102.245 36.7043 99.7144 38.8387 99.1953 41.7491L97.6702 50.4159H104.192L105.847 42.2665H122.915C125.251 42.2665 127.296 40.6496 127.815 38.3536L129.21 32.1446C129.762 29.7192 127.945 27.4555 125.479 27.4555Z" fill="#DF2A2F"/>
<path d="M94.0684 33.2764H95.918L96.7941 27.4555H95.0419L94.0684 33.2764Z" fill="#DF2A2F"/>
<path d="M99.9416 27.4555H98.1893L97.2159 33.2764H99.0654L99.9416 27.4555Z" fill="#DF2A2F"/>
<path d="M139.432 27.4555L135.927 46.4706C135.538 48.5079 137.095 50.3835 139.172 50.3835H161.334L161.659 48.4432C161.951 46.5353 160.491 44.8213 158.576 44.8213L142.027 44.7566L144.688 29.9132C144.915 28.6197 143.909 27.4231 142.579 27.4231H139.432V27.4555Z" fill="#2F387B"/>
<defs>
<linearGradient id="paint0_linear_526_7780" x1="-0.0964047" y1="46.703" x2="48.9835" y2="46.7041" gradientUnits="userSpaceOnUse">
<stop stop-color="#237CC5"/>
<stop offset="0.48" stop-color="#2AAAE9"/>
<stop offset="1" stop-color="#237CC5"/>
</linearGradient>
</defs>
</svg>
