<svg width="290" height="629" viewBox="0 0 290 629" fill="none" xmlns="http://www.w3.org/2000/svg">
<path d="M265 21H40V266H152.5H265V21Z" fill="white"/>
<path d="M265 111H40V378H265V111Z" fill="#EBEBEB"/>
<path d="M265 111H40V378H265V111Z" fill="#EBEBEB"/>
<path d="M223.966 86.5637C223.966 86.9621 193.152 87.3036 155.153 87.3036C117.155 87.3036 86.3516 86.9621 86.3516 86.5637C86.3516 86.1653 117.155 85.8239 155.153 85.8239C193.152 85.8239 223.966 86.1369 223.966 86.5637Z" fill="#263238"/>
<path d="M263.918 42.1578C263.918 42.5766 213.888 42.9117 152.204 42.9117C90.5202 42.9117 40.479 42.5766 40.479 42.1578C40.479 41.739 90.4869 41.432 152.204 41.432C213.921 41.432 263.918 41.767 263.918 42.1578Z" fill="#263238"/>
<path d="M52.3174 34.0343C53.9519 34.0343 55.2768 32.7093 55.2768 31.0749C55.2768 29.4404 53.9519 28.1154 52.3174 28.1154C50.6829 28.1154 49.3579 29.4404 49.3579 31.0749C49.3579 32.7093 50.6829 34.0343 52.3174 34.0343Z" fill="#263238"/>
<path d="M63.4156 34.0343C65.4587 34.0343 67.115 32.7093 67.115 31.0749C67.115 29.4404 65.4587 28.1154 63.4156 28.1154C61.3725 28.1154 59.7163 29.4404 59.7163 31.0749C59.7163 32.7093 61.3725 34.0343 63.4156 34.0343Z" fill="#263238"/>
<path d="M78.9533 31.0749C78.9533 31.6602 78.7364 32.2324 78.3299 32.7191C77.9234 33.2058 77.3457 33.5851 76.6697 33.8091C75.9938 34.033 75.2498 34.0917 74.5322 33.9775C73.8146 33.8633 73.1555 33.5814 72.6382 33.1675C72.1208 32.7536 71.7685 32.2263 71.6258 31.6522C71.483 31.0782 71.5563 30.4831 71.8363 29.9424C72.1163 29.4016 72.5903 28.9394 73.1987 28.6142C73.807 28.289 74.5224 28.1154 75.254 28.1154C76.2352 28.1154 77.1761 28.4272 77.8698 28.9822C78.5636 29.5372 78.9533 30.29 78.9533 31.0749Z" fill="#263238"/>
<path d="M82.7806 92.4033C86.2968 88.8871 86.2968 83.1862 82.7806 79.67C79.2644 76.1538 73.5635 76.1538 70.0473 79.67C66.5311 83.1862 66.5311 88.8871 70.0473 92.4033C73.5635 95.9195 79.2644 95.9195 82.7806 92.4033Z" fill="#B4CCEE"/>
<path d="M77.4726 81.385V90.2634H75.8884V83.0321H74.5132V81.385H77.4726Z" fill="white"/>
<path d="M167.717 85.8238C167.615 84.7561 167.441 83.6965 167.194 82.6524C166.435 79.83 164.743 77.3431 162.391 75.5912C160.79 74.382 158.923 73.5678 156.943 73.2154C154.675 72.8002 152.337 72.9987 150.173 73.79C149.004 74.2044 147.905 74.7931 146.915 75.536C145.865 76.29 144.946 77.208 144.191 78.2544C142.575 80.4522 141.699 83.1016 141.69 85.8238C141.693 88.5437 142.569 91.1917 144.191 93.3822C144.945 94.4318 145.865 95.3535 146.915 96.1116C147.905 96.8545 149.004 97.4432 150.173 97.8576C152.338 98.6431 154.675 98.8414 156.943 98.4322C158.921 98.075 160.787 97.2612 162.391 96.0564C164.744 94.3004 166.436 91.8099 167.194 88.9842C167.439 87.9435 167.614 86.8877 167.717 85.8238C167.743 86.1031 167.743 86.3843 167.717 86.6636C167.724 87.0001 167.701 87.3366 167.65 87.6692C167.602 88.1313 167.52 88.5892 167.405 89.0394C166.808 91.5005 165.512 93.7392 163.671 95.4887C161.83 97.2383 159.522 98.4249 157.021 98.9073C154.664 99.3517 152.23 99.1609 149.972 98.3548C148.751 97.9279 147.604 97.3166 146.57 96.5426C145.472 95.7606 144.511 94.805 143.724 93.7137C142.021 91.4294 141.102 88.6615 141.102 85.8183C141.102 82.975 142.021 80.2071 143.724 77.9228C144.517 76.8365 145.477 75.8818 146.57 75.094C147.604 74.3232 148.752 73.7156 149.972 73.2928C152.23 72.4867 154.664 72.2959 157.021 72.7402C159.517 73.2282 161.821 74.4153 163.661 76.1618C165.501 77.9082 166.8 80.1411 167.405 82.5971C167.515 83.0484 167.597 83.506 167.65 83.9673C167.701 84.3037 167.724 84.6438 167.717 84.984C167.743 85.2633 167.743 85.5445 167.717 85.8238Z" fill="#B4CCEE"/>
<path d="M241.706 85.9043C241.642 85.9043 241.706 85.1387 241.321 83.7777C240.804 81.9213 239.672 80.292 238.107 79.1525C237.051 78.3686 235.827 77.8374 234.53 77.6001C233.04 77.3388 231.507 77.4708 230.084 77.9829C228.462 78.5799 227.061 79.6541 226.07 81.0619C225.078 82.4696 224.543 84.1441 224.535 85.8618C224.536 87.5823 225.069 89.2612 226.061 90.672C227.053 92.0827 228.457 93.1575 230.084 93.7513C231.507 94.2634 233.04 94.3953 234.53 94.1341C235.827 93.8968 237.051 93.3656 238.107 92.5817C239.677 91.443 240.81 89.8083 241.321 87.9458C241.674 86.638 241.642 85.8193 241.706 85.8193C241.723 86.0068 241.723 86.1953 241.706 86.3828C241.71 86.9133 241.645 87.4421 241.514 87.9564C241.127 89.596 240.271 91.0897 239.049 92.2575C237.827 93.4253 236.291 94.2173 234.626 94.5381C233.33 94.7894 231.995 94.753 230.715 94.4314C229.436 94.1098 228.244 93.5111 227.225 92.6781C226.206 91.8452 225.385 90.7987 224.822 89.6138C224.258 88.4289 223.966 87.1348 223.966 85.8245C223.966 84.5143 224.258 83.2203 224.822 82.0353C225.385 80.8504 226.206 79.8039 227.225 78.971C228.244 78.1381 229.436 77.5393 230.715 77.2177C231.995 76.8961 233.33 76.8597 234.626 77.111C236.291 77.4318 237.827 78.2238 239.049 79.3916C240.271 80.5594 241.127 82.0531 241.514 83.6927C241.645 84.207 241.71 84.7358 241.706 85.2663C241.729 85.4784 241.729 85.6922 241.706 85.9043Z" fill="#263238"/>
<path d="M172.175 85.8239H84.8711V87.3036H172.175V85.8239Z" fill="#B4CCEE"/>
<path d="M162.855 87.4697C163.654 82.5616 160.322 77.9356 155.414 77.1371C150.506 76.3386 145.88 79.6701 145.081 84.5782C144.283 89.4864 147.615 94.1125 152.523 94.9109C157.431 95.7094 162.057 92.3778 162.855 87.4697Z" fill="#B4CCEE"/>
<path d="M157.378 88.6281V90.2634H150.441V88.9596L153.91 85.7884C154.719 85.0591 154.857 84.6061 154.857 84.1862C154.857 83.5012 154.36 83.0813 153.401 83.0813C153.036 83.0683 152.674 83.1411 152.345 83.2933C152.016 83.4455 151.732 83.6724 151.517 83.9542L149.979 83.015C150.395 82.4802 150.944 82.052 151.575 81.7686C152.206 81.4852 152.901 81.3554 153.597 81.3907C155.62 81.3907 156.973 82.3851 156.973 83.9652C156.961 84.5046 156.818 85.034 156.555 85.5115C156.292 85.9889 155.917 86.4015 155.459 86.7165L153.366 88.606L157.378 88.6281Z" fill="white"/>
<path d="M235.803 87.4507C235.803 88.9229 234.858 90.2622 232.721 90.2622C231.718 90.2859 230.732 89.9624 229.885 89.3324L230.556 87.7939C231.177 88.3127 231.921 88.5879 232.684 88.5797C233.544 88.5797 234.073 88.1591 234.073 87.4729C234.073 86.7866 233.657 86.366 232.684 86.366H231.899V85.0267L233.421 83.0011H230.254V81.385H235.463V82.6911L233.79 84.9049C234.343 84.9365 234.864 85.2208 235.24 85.6967C235.617 86.1726 235.819 86.8023 235.803 87.4507Z" fill="#263238"/>
<path d="M148.5 112.46L155.153 103.582L161.818 112.46H148.5Z" fill="#EBEBEB"/>
<path d="M264.668 377.621C264.668 373.928 264.568 235.891 264.424 21.5989L264.668 22.038H39.2213L39.5092 21.519C39.5092 150.873 39.5092 272.701 39.5092 377.541L39.2546 377.082L264.723 377.541L39.2546 378H39V377.541C39 272.701 39 150.873 39 21.519V21H39.3099H264.756H265V21.4392C264.768 235.811 264.668 373.928 264.668 377.621Z" fill="#263238"/>
<path d="M127.294 346.277H69.0943C68.0575 346.279 67.0306 346.069 66.0723 345.661C65.1141 345.252 64.2432 344.653 63.5095 343.897C62.7759 343.141 62.1939 342.244 61.7968 341.256C61.3997 340.267 61.1953 339.208 61.1953 338.138C61.1953 337.069 61.3997 336.01 61.7968 335.021C62.1939 334.033 62.7759 333.136 63.5095 332.38C64.2432 331.624 65.1141 331.025 66.0723 330.616C67.0306 330.208 68.0575 329.999 69.0943 330H127.294C129.386 330 131.392 330.857 132.872 332.384C134.351 333.91 135.182 335.98 135.182 338.138C135.182 339.207 134.978 340.266 134.581 341.253C134.185 342.24 133.604 343.138 132.872 343.893C132.139 344.649 131.27 345.248 130.313 345.657C129.356 346.066 128.33 346.277 127.294 346.277Z" fill="#FAFAFA"/>
<path d="M233.825 346.277H175.625C174.589 346.277 173.564 346.066 172.607 345.657C171.65 345.248 170.78 344.649 170.048 343.893C169.315 343.138 168.734 342.24 168.338 341.253C167.941 340.266 167.737 339.207 167.737 338.138C167.737 335.98 168.568 333.91 170.048 332.384C171.527 330.857 173.533 330 175.625 330H233.825C234.862 329.999 235.889 330.208 236.847 330.616C237.805 331.025 238.676 331.624 239.41 332.38C240.143 333.136 240.725 334.033 241.122 335.021C241.519 336.01 241.724 337.069 241.724 338.138C241.724 339.208 241.519 340.267 241.122 341.256C240.725 342.244 240.143 343.141 239.41 343.897C238.676 344.653 237.805 345.252 236.847 345.661C235.889 346.069 234.862 346.279 233.825 346.277Z" fill="#FAFAFA"/>
<path d="M127.294 187.277H69.0943C68.0575 187.279 67.0306 187.069 66.0723 186.661C65.1141 186.252 64.2432 185.653 63.5095 184.897C62.7759 184.141 62.1939 183.244 61.7968 182.256C61.3997 181.267 61.1953 180.208 61.1953 179.138C61.1953 178.069 61.3997 177.01 61.7968 176.021C62.1939 175.033 62.7759 174.136 63.5095 173.38C64.2432 172.624 65.1141 172.025 66.0723 171.616C67.0306 171.208 68.0575 170.999 69.0943 171H127.294C129.386 171 131.392 171.857 132.872 173.384C134.351 174.91 135.182 176.98 135.182 179.138C135.182 180.207 134.978 181.266 134.581 182.253C134.185 183.24 133.604 184.138 132.872 184.893C132.139 185.649 131.27 186.248 130.313 186.657C129.356 187.066 128.33 187.277 127.294 187.277Z" fill="#FAFAFA"/>
<path d="M233.825 187.277H175.625C174.589 187.277 173.564 187.066 172.607 186.657C171.65 186.248 170.78 185.649 170.048 184.893C169.315 184.138 168.734 183.24 168.338 182.253C167.941 181.266 167.737 180.207 167.737 179.138C167.737 176.98 168.568 174.91 170.048 173.384C171.527 171.857 173.533 171 175.625 171H233.825C234.862 170.999 235.889 171.208 236.847 171.616C237.805 172.025 238.676 172.624 239.41 173.38C240.143 174.136 240.725 175.033 241.122 176.021C241.519 177.01 241.724 178.069 241.724 179.138C241.724 180.208 241.519 181.267 241.122 182.256C240.725 183.244 240.143 184.141 239.41 184.897C238.676 185.653 237.805 186.252 236.847 186.661C235.889 187.069 234.862 187.279 233.825 187.277Z" fill="#FAFAFA"/>
<path d="M235.353 152.797H70.5253C68.4435 152.797 66.447 152.018 64.9749 150.63C63.5028 149.243 62.6758 147.361 62.6758 145.399C62.6758 143.436 63.5028 141.555 64.9749 140.167C66.447 138.78 68.4435 138 70.5253 138H235.353C237.435 138 239.432 138.78 240.904 140.167C242.376 141.555 243.203 143.436 243.203 145.399C243.203 147.361 242.376 149.243 240.904 150.63C239.432 152.018 237.435 152.797 235.353 152.797Z" fill="#FAFAFA"/>
<path d="M127.294 267.277H69.0943C68.0575 267.279 67.0306 267.069 66.0723 266.661C65.1141 266.252 64.2432 265.653 63.5095 264.897C62.7759 264.141 62.1939 263.244 61.7968 262.256C61.3997 261.267 61.1953 260.208 61.1953 259.138C61.1953 258.069 61.3997 257.01 61.7968 256.021C62.1939 255.033 62.7759 254.136 63.5095 253.38C64.2432 252.624 65.1141 252.025 66.0723 251.616C67.0306 251.208 68.0575 250.999 69.0943 251H127.294C129.386 251 131.392 251.857 132.872 253.384C134.351 254.91 135.182 256.98 135.182 259.138C135.182 260.207 134.978 261.266 134.581 262.253C134.185 263.24 133.604 264.138 132.872 264.893C132.139 265.649 131.27 266.248 130.313 266.657C129.356 267.066 128.33 267.277 127.294 267.277Z" fill="#FAFAFA"/>
<path d="M233.825 267.277H175.625C174.589 267.277 173.564 267.066 172.607 266.657C171.65 266.248 170.78 265.649 170.048 264.893C169.315 264.138 168.734 263.24 168.338 262.253C167.941 261.266 167.737 260.207 167.737 259.138C167.737 256.98 168.568 254.91 170.048 253.384C171.527 251.857 173.533 251 175.625 251H233.825C234.862 250.999 235.889 251.208 236.847 251.616C237.805 252.025 238.676 252.624 239.41 253.38C240.143 254.136 240.725 255.033 241.122 256.021C241.519 257.01 241.724 258.069 241.724 259.138C241.724 260.208 241.519 261.267 241.122 262.256C240.725 263.244 240.143 264.141 239.41 264.897C238.676 265.653 237.805 266.252 236.847 266.661C235.889 267.069 234.862 267.279 233.825 267.277Z" fill="#FAFAFA"/>
<path d="M235.353 232.797H70.5253C68.4435 232.797 66.447 232.018 64.9749 230.63C63.5028 229.243 62.6758 227.361 62.6758 225.399C62.6758 223.436 63.5028 221.555 64.9749 220.167C66.447 218.78 68.4435 218 70.5253 218H235.353C237.435 218 239.432 218.78 240.904 220.167C242.376 221.555 243.203 223.436 243.203 225.399C243.203 227.361 242.376 229.243 240.904 230.63C239.432 232.018 237.435 232.797 235.353 232.797Z" fill="#FAFAFA"/>
<path d="M235.353 313.797H70.5253C68.4435 313.797 66.447 313.018 64.9749 311.63C63.5028 310.243 62.6758 308.361 62.6758 306.399C62.6758 304.436 63.5028 302.555 64.9749 301.167C66.447 299.78 68.4435 299 70.5253 299H235.353C237.435 299 239.432 299.78 240.904 301.167C242.376 302.555 243.203 304.436 243.203 306.399C243.203 308.361 242.376 310.243 240.904 311.63C239.432 313.018 237.435 313.797 235.353 313.797Z" fill="#FAFAFA"/>
<path d="M275.788 34.723C282.181 28.3306 282.181 17.9666 275.788 11.5743C269.396 5.182 259.032 5.18202 252.64 11.5743C246.247 17.9667 246.247 28.3306 252.64 34.7229C259.032 41.1152 269.396 41.1153 275.788 34.723Z" fill="#598DDA"/>
<path d="M270.914 18.6173L268.596 16.2993L258.197 26.6989L260.515 29.017L270.914 18.6173Z" fill="white"/>
<path d="M260.563 16.2391L258.245 18.5571L268.645 28.9568L270.963 26.6387L260.563 16.2391Z" fill="white"/>
<path d="M129.075 356.229C129.147 356.382 129.193 356.547 129.212 356.717C129.296 357.203 129.31 357.698 129.254 358.186C129.128 359.085 128.836 359.945 128.394 360.718C127.952 361.49 127.368 362.16 126.678 362.687C124.949 364.1 122.225 364.619 119.424 364.098C116.622 363.576 113.753 362.094 110.785 360.728C107.816 359.362 104.788 358.412 102.05 358.877C99.6283 359.313 97.4243 360.595 95.7857 362.52C94.6594 363.794 93.7463 365.264 93.0847 366.868C92.6337 368.015 92.4703 368.693 92.4228 368.675C92.4332 368.506 92.4656 368.34 92.519 368.182C92.6217 367.708 92.7571 367.244 92.9244 366.792C93.527 365.121 94.4142 363.585 95.5422 362.262C97.2019 360.234 99.4712 358.877 101.977 358.413C104.836 357.901 107.99 358.883 110.959 360.257C113.928 361.631 116.734 363.145 119.486 363.633C122.238 364.12 124.814 363.692 126.481 362.383C127.839 361.386 128.769 359.86 129.073 358.129C129.154 357.5 129.154 356.861 129.075 356.229Z" fill="#455A64"/>
<path d="M213.835 589.91H205.952V625.385H213.835V589.91Z" fill="#EBEBEB"/>
<path d="M277.887 589.91H270.989V625.385H277.887V589.91Z" fill="#EBEBEB"/>
<path d="M289.712 544.581H193.141V553.45H289.712V544.581Z" fill="#EBEBEB"/>
<path d="M285.77 589.728L199.054 589.91V553.45H285.77V589.728Z" fill="#EBEBEB"/>
<path d="M278.717 582.93C278.717 582.93 278.717 582.781 278.717 582.505C278.717 582.228 278.717 581.795 278.717 581.258C278.717 580.161 278.717 578.548 278.717 576.473C278.717 572.307 278.716 566.253 278.65 558.653L278.768 558.765L206.137 558.832L206.308 558.653V582.93L206.137 582.758L258.075 582.841L273.256 582.885H277.336H278.39H278.761H278.412H277.374H273.33L258.186 582.93L206.122 583.012H205.952V558.377H206.13L278.761 558.437H278.872V558.549C278.872 566.178 278.828 572.255 278.813 576.465C278.813 578.533 278.813 580.131 278.813 581.228C278.813 581.758 278.813 582.161 278.813 582.452C278.813 582.743 278.717 582.93 278.717 582.93Z" fill="#E0E0E0"/>
<path d="M208.908 579.071C208.108 580.205 207.109 581.205 205.952 582.027C206.296 581.423 206.751 580.88 207.295 580.423C207.751 579.894 208.296 579.437 208.908 579.071Z" fill="#E0E0E0"/>
<path d="M208.908 561.333C208.297 560.951 207.755 560.486 207.3 559.955C206.763 559.495 206.308 558.963 205.952 558.377C207.106 559.205 208.104 560.196 208.908 561.312V561.333Z" fill="#E0E0E0"/>
<path d="M278.872 558.377C278.388 559.001 277.765 559.545 277.035 559.979C276.399 560.495 275.693 560.949 274.931 561.333C275.418 560.711 276.041 560.168 276.768 559.731C277.403 559.214 278.11 558.76 278.872 558.377Z" fill="#E0E0E0"/>
<path d="M278.872 583.012C278.07 582.52 277.349 581.901 276.739 581.179C276.036 580.571 275.426 579.861 274.931 579.071C275.731 579.566 276.451 580.185 277.064 580.904C277.767 581.511 278.377 582.222 278.872 583.012Z" fill="#E0E0E0"/>
<path d="M274.725 579.964C274.725 579.964 274.725 579.848 274.725 579.633C274.725 579.418 274.725 579.103 274.725 578.696C274.725 577.865 274.725 576.651 274.725 575.083C274.725 571.924 274.725 567.328 274.666 561.525L274.769 561.633L209.025 561.702L209.194 561.525V579.971L209.025 579.795L255.975 579.872L269.781 579.925H273.5H274.468H274.806H274.49H273.544H269.876L256.107 579.971L209.077 580.056H208.908V579.964C208.908 574.038 208.908 567.858 208.908 561.518V561.333H209.084L274.828 561.402H274.93V561.518C274.93 567.351 274.886 571.97 274.872 575.137C274.872 576.705 274.872 577.904 274.872 578.734C274.872 579.126 274.872 579.433 274.872 579.649C274.872 579.864 274.725 579.964 274.725 579.964Z" fill="#E0E0E0"/>
<path d="M248.821 569.294C248.264 568.946 247.659 568.679 247.023 568.499C246.45 568.32 245.851 568.229 245.248 568.232H240.332C238.882 568.21 237.478 568.727 236.408 569.676C236.179 569.888 235.983 570.132 235.827 570.399C235.594 570.755 235.487 571.175 235.52 571.595C235.554 572.016 235.727 572.414 236.013 572.732C236.647 573.303 237.938 573.028 238.05 572.19C238.064 572.461 238.133 572.726 238.253 572.97C238.374 573.215 238.543 573.434 238.751 573.615C238.958 573.796 239.201 573.936 239.465 574.026C239.729 574.116 240.008 574.155 240.287 574.141C240.854 574.073 241.386 573.844 241.818 573.482C242.25 573.121 242.561 572.644 242.712 572.111C242.696 572.588 242.872 573.053 243.202 573.409C243.531 573.765 243.99 573.983 244.482 574.02C244.974 574.056 245.462 573.907 245.844 573.604C246.225 573.301 246.471 572.867 246.531 572.392C247.143 573.158 248.023 573.873 249.075 573.548C249.366 573.447 249.626 573.278 249.832 573.054C250.038 572.831 250.183 572.561 250.253 572.27C250.355 571.691 250.272 571.097 250.016 570.565C249.76 570.034 249.343 569.59 248.821 569.294Z" fill="#E0E0E0"/>
<path d="M241.427 568.24C240.498 568.713 239.66 569.277 238.937 569.916C238.329 570.616 237.859 571.376 237.541 572.173C237.486 572.173 237.449 571.875 237.541 571.409C237.719 570.803 238.068 570.23 238.565 569.729C239.061 569.227 239.695 568.807 240.425 568.496C241.041 568.267 241.427 568.206 241.427 568.24Z" fill="#EBEBEB"/>
<path d="M243.34 568.231C243.524 569.559 243.263 570.895 242.568 572.173C242.359 571.514 242.359 570.841 242.568 570.183C242.612 569.513 242.873 568.852 243.34 568.231Z" fill="#EBEBEB"/>
<path d="M245.37 568.238C245.37 568.203 245.581 568.301 245.797 568.602C246.065 569.003 246.241 569.488 246.308 570.005C246.369 570.517 246.369 571.037 246.308 571.548C246.263 571.941 246.213 572.173 246.18 572.173C246.147 572.173 246.125 571.92 246.125 571.534C246.125 571.042 246.097 570.549 246.041 570.061C245.98 569.587 245.842 569.133 245.636 568.729C245.52 568.434 245.348 568.28 245.37 568.238Z" fill="#EBEBEB"/>
<path d="M271.974 601.735H212.85V608.633H271.974V601.735Z" fill="#EBEBEB"/>
<path d="M257.193 535.712V544.581H218.353C217.155 544.581 216.005 544.114 215.158 543.282C214.311 542.451 213.835 541.323 213.835 540.147C213.835 538.971 214.311 537.843 215.158 537.011C216.005 536.18 217.155 535.712 218.353 535.712" fill="#E0E0E0"/>
<path d="M243.753 536.723H257.193V542.61H243.753C243.136 542.61 242.544 542.34 242.108 541.859C241.671 541.378 241.426 540.725 241.426 540.045V539.263C241.426 538.583 241.671 537.93 242.108 537.449C242.544 536.968 243.136 536.698 243.753 536.698V536.723Z" fill="#EBEBEB"/>
<path d="M257.193 525.858V535.712H218.353C217.162 535.715 216.018 535.202 215.172 534.287C214.325 533.371 213.845 532.127 213.835 530.826C213.835 530.178 213.952 529.537 214.179 528.939C214.406 528.34 214.739 527.797 215.159 527.339C215.578 526.881 216.076 526.519 216.624 526.272C217.172 526.024 217.76 525.898 218.353 525.899L257.193 525.858Z" fill="#EBEBEB"/>
<path d="M243.753 527.829H257.193V533.742H243.753C243.136 533.742 242.544 533.47 242.108 532.987C241.671 532.504 241.426 531.849 241.426 531.165V530.38C241.432 529.701 241.68 529.052 242.116 528.575C242.551 528.097 243.14 527.829 243.753 527.829Z" fill="#F5F5F5"/>
<path d="M229.042 512.062L222.704 525.858H226.789L229.602 518.488L229.042 512.062Z" fill="#E0E0E0"/>
<path d="M247.984 499.252L250.295 525.858H230.768L228.616 499.252H247.984Z" fill="#F5F5F5"/>
<path d="M246.169 501.353L248.324 523.7L232.696 523.887L230.587 501.223L246.169 501.353Z" fill="#FAFAFA"/>
<path d="M243.152 504.179L244.382 519.946H236.007L234.528 504.179H243.152Z" fill="#E0E0E0"/>
<path d="M94.5192 366.089C95.2569 362.493 97.7798 360.584 101.158 359.169C102.868 358.48 104.719 358.213 106.555 358.392C108.39 358.57 110.155 359.188 111.7 360.194C113.743 361.549 115.388 363.598 117.778 364.246C121.68 365.322 125.952 362.176 129.721 363.642C130.844 364.083 131.78 364.898 132.368 365.95C132.957 367.003 133.162 368.226 132.949 369.412C132.736 370.599 132.118 371.674 131.199 372.456C130.281 373.238 129.12 373.678 127.914 373.701C130.459 374.438 131.469 377.938 130.164 380.244C128.858 382.551 125.929 383.582 123.296 383.265C120.662 382.949 118.287 381.526 116.199 379.891C114.112 378.255 112.216 376.376 110.01 374.909C107.805 373.443 105.164 372.396 102.53 372.699C98.9674 373.126 96.0757 376.022 94.6963 379.33C93.3168 382.639 93.2209 386.323 93.2209 389.912C93.2209 393.501 93.4422 397.134 92.6086 400.626C92.5054 401.032 92.3504 401.496 91.9521 401.651C91.3841 401.864 90.853 401.282 90.5284 400.766C86.8616 394.919 84.3803 388.41 83.2254 381.607C82.5541 377.672 82.414 373.914 84.3688 370.444C86.3237 366.973 91.6792 364.143 94.5192 366.067" fill="#263238"/>
<path d="M88.716 383.199L89.452 419.941C89.5919 426.8 93.0217 433.896 103.812 433.179C113.129 431.841 113.38 425.285 113.321 417.147C113.321 417.147 123.529 415.972 124.059 405.794C124.317 400.872 124.059 390.694 123.654 381.492C123.457 376.726 121.481 372.209 118.12 368.839C114.758 365.469 110.258 363.493 105.512 363.302L104.533 363.265C93.9711 363.457 88.2302 372.593 88.716 383.199Z" fill="#FFBE9D"/>
<path d="M113.323 417.172C108.726 416.966 104.28 415.357 100.512 412.536C100.512 412.536 103.332 420.928 113.308 420.395L113.323 417.172Z" fill="#EB996E"/>
<path d="M120.22 392.311C120.203 392.715 120.04 393.096 119.765 393.375C119.489 393.655 119.123 393.81 118.742 393.81C118.554 393.823 118.366 393.795 118.188 393.728C118.011 393.661 117.848 393.556 117.71 393.421C117.572 393.285 117.461 393.121 117.384 392.938C117.308 392.755 117.267 392.558 117.264 392.358C117.281 391.954 117.445 391.573 117.72 391.294C117.995 391.015 118.362 390.859 118.742 390.86C118.93 390.847 119.119 390.875 119.296 390.942C119.474 391.008 119.636 391.113 119.775 391.249C119.913 391.385 120.024 391.549 120.1 391.731C120.177 391.914 120.218 392.111 120.22 392.311Z" fill="#263238"/>
<path d="M121.179 386.884C121.015 387.105 120.108 386.072 118.771 386.001C117.435 385.93 116.433 386.813 116.294 386.575C116.225 386.469 116.389 386.072 116.83 385.692C117.422 385.159 118.119 384.9 118.822 384.95C119.51 384.992 120.171 385.334 120.713 385.93C121.142 386.372 121.268 386.787 121.179 386.884Z" fill="#263238"/>
<path d="M106.425 391.326C106.407 391.729 106.244 392.11 105.969 392.39C105.693 392.669 105.327 392.824 104.946 392.824C104.758 392.838 104.569 392.811 104.391 392.744C104.213 392.678 104.05 392.573 103.912 392.437C103.773 392.301 103.663 392.137 103.586 391.954C103.51 391.771 103.47 391.573 103.468 391.373C103.485 390.969 103.649 390.588 103.924 390.309C104.199 390.03 104.566 389.874 104.946 389.875C105.135 389.861 105.323 389.888 105.501 389.954C105.679 390.021 105.843 390.125 105.981 390.261C106.119 390.397 106.23 390.562 106.306 390.745C106.383 390.928 106.423 391.125 106.425 391.326Z" fill="#263238"/>
<path d="M106.4 385.914C106.203 386.024 105.105 385.512 103.507 385.472C101.909 385.433 100.697 385.879 100.531 385.759C100.447 385.706 100.644 385.503 101.174 385.318C101.886 385.052 102.723 384.922 103.567 384.947C104.394 384.968 105.189 385.139 105.839 385.437C106.339 385.658 106.491 385.865 106.4 385.914Z" fill="#263238"/>
<path d="M111.55 398.592C112.334 398.36 113.141 398.236 113.953 398.222C114.327 398.222 114.687 398.129 114.756 397.844C114.804 397.416 114.734 396.983 114.555 396.601L113.558 393.366C112.173 388.735 111.204 385.007 111.37 384.945C111.536 384.883 112.755 388.557 114.14 393.15C114.472 394.285 114.784 395.366 115.088 396.4C115.305 396.914 115.352 397.496 115.22 398.044C115.161 398.19 115.072 398.318 114.962 398.42C114.852 398.521 114.722 398.594 114.583 398.631C114.374 398.682 114.16 398.705 113.946 398.701C113.146 398.778 112.341 398.741 111.55 398.592Z" fill="#263238"/>
<path d="M107.397 380.344C107.21 380.76 105.506 380.5 103.477 380.649C101.449 380.798 99.8015 381.236 99.5499 380.842C99.4363 380.656 99.7447 380.262 100.418 379.875C101.311 379.389 102.319 379.106 103.356 379.05C104.394 378.976 105.436 379.126 106.399 379.489C107.121 379.764 107.486 380.143 107.397 380.344Z" fill="#263238"/>
<path d="M121.162 381.843C120.897 382.21 119.92 381.773 118.733 381.695C117.545 381.617 116.528 381.851 116.304 381.446C116.209 381.251 116.385 380.884 116.833 380.549C117.44 380.152 118.136 379.97 118.833 380.027C119.529 380.084 120.196 380.377 120.748 380.869C121.155 381.274 121.284 381.664 121.162 381.843Z" fill="#263238"/>
<path d="M89.671 391.279C89.4957 391.197 82.8337 388.892 82.7753 395.971C82.7168 403.05 89.6491 401.654 89.6637 401.451C89.6783 401.249 89.671 391.279 89.671 391.279Z" fill="#FFBE9D"/>
<path d="M87.6963 398.195C87.6963 398.195 87.5755 398.274 87.3836 398.367C87.1031 398.481 86.7899 398.481 86.5094 398.367C85.7986 398.102 85.2157 396.934 85.1944 395.744C85.1792 395.164 85.2934 394.589 85.5285 394.059C85.5986 393.851 85.7152 393.663 85.8692 393.507C86.0233 393.352 86.2107 393.234 86.417 393.164C86.5549 393.123 86.7028 393.134 86.8333 393.195C86.9639 393.255 87.0684 393.361 87.1277 393.493C87.213 393.68 87.1704 393.816 87.2059 393.83C87.2414 393.844 87.3481 393.715 87.2983 393.436C87.2637 393.268 87.1704 393.118 87.0353 393.013C86.9456 392.942 86.8429 392.89 86.7332 392.859C86.6234 392.828 86.5087 392.82 86.3956 392.834C86.1199 392.887 85.8622 393.011 85.647 393.193C85.4318 393.374 85.2662 393.609 85.166 393.873C84.8761 394.455 84.7321 395.1 84.7466 395.751C84.7466 397.12 85.4574 398.396 86.4241 398.69C86.6046 398.742 86.7942 398.753 86.9796 398.724C87.165 398.694 87.3417 398.624 87.4974 398.518C87.6822 398.36 87.7177 398.21 87.6963 398.195Z" fill="#EB996E"/>
<path d="M124.394 372.52C123.485 370.531 122.089 368.798 120.333 367.48C116.677 364.454 112.151 362.647 107.4 362.316C102.626 362.015 97.9224 363.566 94.2819 366.64C91.4754 369.182 89.4821 372.483 88.5484 376.136C87.6331 379.785 87.4578 383.579 88.0326 387.296C88.261 388.925 88.6368 390.619 89.7349 391.854C90.4203 392.628 91.6288 393.161 92.4763 392.584C92.935 392.178 93.2415 391.629 93.3459 391.028C94.9009 385.77 96.4485 380.116 94.6946 374.923C96.0393 373.211 97.725 371.791 99.6469 370.752C100.612 370.241 101.67 369.925 102.759 369.822C103.848 369.719 104.947 369.832 105.992 370.154C109.05 371.22 110.834 374.28 113.221 376.45C114.947 377.992 117.017 379.107 119.261 379.702C121.506 380.298 123.861 380.357 126.133 379.875L124.394 372.52Z" fill="#263238"/>
<path d="M112.142 402.376C111.969 403.096 111.711 403.786 111.375 404.425C111.206 404.743 110.979 405.015 110.711 405.223C110.443 405.431 110.139 405.571 109.819 405.633C109.475 405.658 109.13 405.584 108.817 405.417C108.503 405.249 108.231 404.994 108.025 404.675C107.621 404.024 107.405 403.243 107.41 402.443C107.41 401.726 107.635 400.852 108.242 400.718C108.502 400.69 108.763 400.739 109.002 400.86L112.337 402.126" fill="#EB996E"/>
<path d="M111.387 405.262C110.812 405.34 110.228 405.306 109.666 405.16C109.09 404.977 108.601 404.584 108.294 404.055C108.121 403.732 108.015 403.376 107.984 403.009C107.954 402.642 107.998 402.272 108.116 401.924C108.179 401.747 108.263 401.579 108.366 401.422C108.48 401.277 108.459 401.284 108.602 401.291C108.744 401.299 108.952 401.408 109.123 401.466L109.666 401.648C110.38 401.88 111.009 402.091 111.544 402.251C112.111 402.487 112.712 402.627 113.323 402.666C112.818 402.316 112.264 402.046 111.68 401.866C111.159 401.648 110.537 401.4 109.837 401.139L109.309 400.942C109.116 400.877 108.966 400.797 108.709 400.731C108.548 400.691 108.379 400.709 108.23 400.782C108.094 400.853 107.978 400.958 107.894 401.088C107.763 401.286 107.657 401.501 107.58 401.728C107.433 402.155 107.38 402.61 107.426 403.06C107.472 403.51 107.615 403.944 107.845 404.331C108.234 404.956 108.85 405.398 109.559 405.56C110.015 405.675 110.494 405.662 110.944 405.524C111.259 405.429 111.401 405.291 111.387 405.262Z" fill="#263238"/>
<path d="M84.7456 380.016C84.7999 379.38 84.9777 378.76 85.2693 378.191C85.8876 376.776 86.7771 375.496 87.8875 374.423C88.4976 373.832 89.1708 373.31 89.8949 372.867C90.4836 372.458 91.1672 372.208 91.8804 372.139C92.3675 372.105 92.8526 372.23 93.2622 372.496C93.5386 372.692 93.6331 372.867 93.6113 372.881C93.109 372.543 92.5045 372.391 91.9022 372.452C90.804 372.568 89.4512 373.543 88.193 374.721C87.1255 375.764 86.234 376.972 85.5529 378.3C85.0292 379.347 84.8183 380.038 84.7456 380.016Z" fill="#455A64"/>
<path d="M85.731 385.929C85.8343 385.328 86.0444 384.748 86.3515 384.219C87.0281 382.916 87.9403 381.748 89.0428 380.77C90.1497 379.786 91.4276 379.008 92.8148 378.474C93.3765 378.219 93.9825 378.074 94.5997 378.046C94.0566 378.304 93.5004 378.534 92.9333 378.736C90.2848 379.919 88.0763 381.892 86.6165 384.378C86.3527 384.912 86.057 385.43 85.731 385.929Z" fill="#455A64"/>
<path d="M136.095 486.442L173.433 501.43L167.486 512.062L125.147 505.592L136.095 486.442Z" fill="#FFBE9D"/>
<path d="M136.171 443.548C136.362 453.992 136.032 479.16 136.032 479.16L141.9 488.516L131.58 502.58L119.653 504.275L118.465 513.609C118.465 513.609 97.5752 523.047 80.859 517.311C67.8543 512.869 52.6492 527.829 52.6492 527.829C52.6492 527.829 51.2629 525.386 53.5147 504.268C55.6638 484.149 59.4266 450.972 59.4266 450.972L71.4484 420.623L89.5068 417.463C97.0617 430.431 112.186 430.505 113.396 422.644L125.404 427.685C128.566 428.955 131.279 431.152 133.193 433.993C135.107 436.833 136.134 440.187 136.142 443.622L136.171 443.548Z" fill="#6A94D2"/>
<path d="M126.128 447.025C126.228 447.025 124.99 458.955 123.36 473.653C121.729 488.352 120.334 500.252 120.227 500.237C120.12 500.223 121.364 488.308 122.995 473.609C124.626 458.911 126.049 447.01 126.128 447.025Z" fill="#263238"/>
<path d="M120.22 473.633C120.279 473.724 114.348 477.769 107.009 482.668C99.6697 487.566 93.6734 491.459 93.6147 491.367C93.556 491.276 99.4862 487.231 106.826 482.332C114.165 477.434 120.161 473.541 120.22 473.633Z" fill="#263238"/>
<path d="M98.5412 625.385H91.6433L87.7017 579.071H98.5412V625.385Z" fill="#263238"/>
<path d="M44.3435 625.385H37.4502L33.5039 579.071H44.3435V625.385Z" fill="#263238"/>
<path d="M176.389 625.385H168.864L164.564 579.071H176.389V625.385Z" fill="#263238"/>
<path d="M63.5767 537.328L70.2056 435.2H7.60004C6.48522 435.202 5.38449 435.451 4.37559 435.928C3.36669 436.405 2.47422 437.1 1.76121 437.962C1.04821 438.824 0.532072 439.833 0.249211 440.918C-0.0336506 442.003 -0.0763052 443.137 0.124237 444.241L25.3064 581.041C33.3125 580.93 179.345 581.041 179.345 581.041V537.321L63.5767 537.328Z" fill="#455A64"/>
<path d="M156.681 565.767C156.681 566.052 142.782 566.26 125.644 566.26C108.506 566.26 94.5996 566.052 94.5996 565.767C94.5996 565.483 108.499 565.275 125.644 565.275C142.789 565.275 156.681 565.502 156.681 565.767Z" fill="#263238"/>
<path d="M212.047 588.925L216.6 610.52C216.6 610.52 240.192 613.169 241.427 617.076L199.652 627.356L191.17 594.001L212.047 588.925Z" fill="#5587CF"/>
<path d="M203.761 612.747C203.429 612.944 203.182 613.257 203.067 613.625C202.952 613.993 202.976 614.391 203.135 614.742C203.322 615.085 203.634 615.343 204.006 615.46C204.378 615.578 204.782 615.547 205.132 615.374C205.487 615.167 205.753 614.835 205.876 614.442C205.999 614.05 205.971 613.625 205.797 613.252C205.567 612.918 205.217 612.687 204.82 612.606C204.422 612.525 204.009 612.602 203.667 612.82" fill="#E0E0E0"/>
<path d="M199.879 628.341L199.054 625.124L239.256 615.531C239.256 615.531 241.315 615.878 241.427 617.228L199.879 628.341Z" fill="#E0E0E0"/>
<path d="M216.79 610.682C216.83 610.856 215.931 611.16 215.172 611.943C214.414 612.725 214.118 613.592 213.93 613.559C213.742 613.527 213.756 612.44 214.695 611.503C215.635 610.565 216.79 610.507 216.79 610.682Z" fill="#263238"/>
<path d="M221.711 611.617C221.799 611.76 221.077 612.187 220.639 612.984C220.2 613.782 220.227 614.516 220.045 614.545C219.863 614.573 219.478 613.719 220.045 612.745C220.612 611.771 221.664 611.492 221.711 611.617Z" fill="#263238"/>
<path d="M226.062 615.525C225.934 615.615 225.506 614.662 225.717 613.402C225.928 612.142 226.534 611.46 226.628 611.61C226.723 611.76 226.395 612.51 226.251 613.545C226.106 614.58 226.212 615.457 226.062 615.525Z" fill="#263238"/>
<path d="M215.804 605.874C215.804 605.996 214.841 605.966 213.802 606.179C212.764 606.392 212.019 606.735 211.883 606.648C211.746 606.561 212.375 606.009 213.604 605.779C214.834 605.548 215.858 605.766 215.804 605.874Z" fill="#263238"/>
<g opacity="0.3">
<path opacity="0.3" d="M212.406 589.337L216.92 610.858C216.92 610.858 240.306 613.499 241.531 617.393L200.304 628.514L191.711 594.397L212.406 589.337Z" fill="black"/>
</g>
<path d="M190.508 524.149L216.791 600.235L194.094 608.633L152.271 525.203L82.7749 514.364L124.495 503.194L183.973 518.184C185.473 518.559 186.856 519.3 187.997 520.342C189.138 521.383 190.001 522.692 190.508 524.149Z" fill="#263238"/>
<path d="M211.531 581.041L226.493 597.369C226.493 597.369 248.222 587.737 251.28 590.491L220.464 620.458L196.097 595.963L211.531 581.041Z" fill="#598DDA"/>
<path d="M216 605.407C215.812 605.745 215.758 606.138 215.848 606.512C215.939 606.886 216.167 607.214 216.49 607.435C216.828 607.632 217.231 607.695 217.615 607.611C217.999 607.527 218.336 607.303 218.555 606.983C218.756 606.626 218.813 606.208 218.715 605.811C218.617 605.415 218.371 605.068 218.026 604.838C217.652 604.667 217.225 604.645 216.834 604.775C216.444 604.906 216.12 605.179 215.933 605.538" fill="#E0E0E0"/>
<path d="M221.123 621.443L218.762 619.048L248.544 590.15C248.544 590.15 250.493 589.411 251.28 590.527L221.123 621.443Z" fill="#E0E0E0"/>
<path d="M226.623 596.829C226.79 596.965 225.97 597.675 225.652 598.733C225.334 599.791 225.599 600.668 225.37 600.745C225.14 600.823 224.381 599.862 224.796 598.584C225.211 597.307 226.499 596.681 226.623 596.829Z" fill="#263238"/>
<path d="M231.266 594.85C231.408 594.952 231.09 595.777 231.178 596.827C231.266 597.877 231.673 598.634 231.549 598.764C231.425 598.893 230.683 598.198 230.595 596.889C230.507 595.58 231.155 594.721 231.266 594.85Z" fill="#263238"/>
<path d="M236.488 596.779C236.427 596.948 235.868 596.378 235.621 595.121C235.374 593.864 235.621 592.807 235.712 592.869C235.803 592.931 235.816 593.841 236.028 594.866C236.241 595.892 236.566 596.609 236.488 596.779Z" fill="#263238"/>
<path d="M222.7 592.931C222.77 593.164 221.921 593.708 221.164 594.752C220.406 595.796 220.027 596.866 219.831 596.806C219.634 596.745 219.74 595.382 220.645 594.217C221.549 593.052 222.658 592.706 222.7 592.931Z" fill="#263238"/>
<path d="M75.4669 546.933L135.851 546.685L202.859 608.633L223.689 589.38C223.689 589.38 166.79 525.662 160.211 519.089C153.631 512.515 90.2994 508.121 90.2994 508.121L52.2271 524.544L53.0891 528.829C54.126 533.953 56.9248 538.56 61.0068 541.863C65.0888 545.165 70.2003 546.958 75.4669 546.933Z" fill="#263238"/>
<path d="M134.027 538.669C134.382 539.789 134.612 540.937 134.712 542.097C134.938 543.242 135.032 544.405 134.993 545.566C134.632 544.447 134.402 543.299 134.307 542.138C134.077 540.993 133.983 539.831 134.027 538.669Z" fill="#455A64"/>
<path d="M216.791 582.027C216.566 582.332 216.314 582.617 216.037 582.881C215.525 583.411 214.771 584.172 213.829 585.097C211.944 586.956 209.306 589.481 206.291 592.2C203.275 594.919 200.517 597.316 198.481 599.023C197.464 599.877 196.627 600.551 196.047 601.018C195.757 601.282 195.444 601.522 195.112 601.735C195.366 601.447 195.646 601.18 195.949 600.939L198.293 598.851C200.283 597.1 203.027 594.675 206.019 591.956C209.012 589.237 211.68 586.748 213.617 584.94L215.879 582.787C216.16 582.51 216.465 582.256 216.791 582.027Z" fill="#455A64"/>
<path d="M180.269 588.681C180.269 588.681 180.409 588.792 180.676 589.029L181.83 590.08L186.268 594.165L202.622 609.322H202.438L223.327 589.806V590.043C214.517 579.763 203.961 568.506 192.903 556.531C188.013 551.247 183.242 546.074 178.686 541.041C174.129 536.009 169.809 531.109 165.808 526.284C163.969 523.879 161.862 521.691 159.528 519.764C158.394 518.884 157.15 518.155 155.829 517.595C154.533 517.064 153.191 516.65 151.82 516.359C149.12 515.774 146.457 515.441 143.913 515.027L136.597 513.887L114.51 510.431L108.511 509.469L106.95 509.21C106.602 509.151 106.425 509.106 106.425 509.106L106.957 509.173L108.526 509.395L114.51 510.276L136.604 513.613L143.92 514.724C146.465 515.131 149.098 515.464 151.85 516.041C153.24 516.332 154.602 516.748 155.918 517.284C157.278 517.852 158.557 518.599 159.72 519.505C162.082 521.445 164.214 523.65 166.074 526.077C170.046 530.88 174.403 535.772 178.96 540.804C183.516 545.837 188.287 550.996 193.177 556.287C204.272 568.262 214.783 579.526 223.586 589.836L223.689 589.962L223.571 590.073L202.63 609.537L202.541 609.618L202.445 609.537L186.172 594.284L181.785 590.154C181.297 589.68 180.92 589.325 180.653 589.073L180.269 588.681Z" fill="#455A64"/>
<path d="M127.78 498.829L109.569 504.934L76.0341 491.369L58.1396 507.923L105.966 516.461C107.58 516.725 109.233 516.607 110.792 516.117L124.892 511.72C124.892 511.72 129.504 516.901 130.461 516.974C131.419 517.047 133.408 516.923 132.443 515.208C131.444 513.58 130.344 512.016 129.15 510.525C129.15 510.525 135.626 515.838 136.355 515.127C137.084 514.416 136.797 512.768 135.618 511.426C134.44 510.085 130.668 505.74 130.668 505.74C130.668 505.74 138.646 512.335 139.405 511.317C140.164 510.298 140.539 508.744 137.342 505.696C135.243 503.695 132.008 500.837 130.307 499.349C129.968 499.051 129.556 498.846 129.113 498.754C128.67 498.663 128.21 498.689 127.78 498.829Z" fill="#FFBE9D"/>
<path d="M108.366 505.165C107.96 505.898 107.493 506.582 106.971 507.205C106.52 507.902 106.006 508.54 105.439 509.106C106.189 507.569 107.195 506.229 108.396 505.165H108.366Z" fill="#EB996E"/>
<path d="M135.987 511.077C135.394 510.636 134.872 510.107 134.439 509.511C133.557 508.482 132.387 507.018 131.069 505.438C129.75 503.857 128.58 502.195 127.12 502.497C126.597 502.517 126.087 502.669 125.639 502.938C125.32 503.129 125.172 503.283 125.15 503.254C125.128 503.224 125.246 503.055 125.557 502.813C126.002 502.477 126.534 502.273 127.091 502.225C127.479 502.185 127.87 502.217 128.246 502.32C128.465 502.377 128.671 502.475 128.854 502.607C129.024 502.747 129.217 502.886 129.372 503.041C130.073 503.74 130.736 504.477 131.357 505.246C132.683 506.835 133.817 508.32 134.646 509.393L135.624 510.651C135.757 510.782 135.879 510.924 135.987 511.077Z" fill="#EB996E"/>
<path d="M123.177 506.891C123.177 506.891 123.28 506.713 123.568 506.521C123.985 506.269 124.46 506.141 124.942 506.15C125.287 506.152 125.629 506.219 125.951 506.35C126.309 506.539 126.618 506.815 126.851 507.154C127.098 507.488 127.318 507.866 127.538 508.229C127.757 508.592 128.066 508.94 128.334 509.325C130.546 512.335 132.187 514.912 132.036 515.019C131.914 514.888 131.806 514.745 131.713 514.592L130.868 513.424L128.046 509.56C127.771 509.175 127.503 508.848 127.249 508.442C126.995 508.036 126.803 507.695 126.562 507.375C126.37 507.078 126.111 506.833 125.807 506.663C125.525 506.534 125.222 506.459 124.914 506.442C124.305 506.41 123.7 506.566 123.177 506.891Z" fill="#EB996E"/>
<path d="M137.958 506.15C137.388 505.794 136.855 505.384 136.368 504.927C135.421 504.159 134.125 503.021 132.717 501.775L130.737 500.007C130.252 499.492 129.675 499.065 129.035 498.746C128.435 498.485 127.771 498.392 127.119 498.477C127.119 498.477 127.286 498.346 127.644 498.292C128.156 498.225 128.678 498.291 129.155 498.484C129.484 498.615 129.796 498.783 130.085 498.984C130.395 499.207 130.681 499.461 130.992 499.753L132.988 501.498C134.403 502.752 135.668 503.897 136.566 504.743C137.08 505.164 137.546 505.635 137.958 506.15Z" fill="#EB996E"/>
<path d="M55.8083 508.103C55.8083 508.103 48.8532 500.423 49.2903 490.183C49.7273 479.943 52.7188 450.303 54.0526 442.164C55.3863 434.025 61.5878 422.927 71.5344 420.522C78.7909 418.754 80.2904 440.307 80.2904 440.307L74.8047 487.889L85.7308 494.119L75.5356 511.077L55.8083 508.103Z" fill="#6A94D2"/>
<path d="M78.8217 438.156C78.7522 438.156 78.6688 437.091 78.2448 435.443C77.9964 434.474 77.6756 433.529 77.2856 432.617C76.8035 431.506 76.2313 430.444 75.5757 429.443C74.9052 428.455 74.1563 427.532 73.3377 426.685C72.6643 426.001 71.9415 425.377 71.176 424.818C69.8624 423.866 68.9518 423.443 68.9796 423.375C69.2059 423.429 69.4254 423.513 69.633 423.625C69.8855 423.734 70.1315 423.86 70.3697 424.002C70.6478 424.169 70.9814 424.342 71.3151 424.584C72.1145 425.122 72.8682 425.737 73.567 426.421C74.4155 427.271 75.1881 428.208 75.8746 429.217C76.5416 430.237 77.1165 431.325 77.5914 432.466C77.9709 433.402 78.2733 434.373 78.495 435.368C78.5992 435.791 78.6479 436.184 78.7035 436.524C78.7581 436.813 78.7906 437.106 78.8008 437.401C78.8352 437.651 78.8422 437.904 78.8217 438.156Z" fill="#263238"/>
<path d="M74.8913 488.412C74.3484 488.782 73.7778 489.11 73.1845 489.394C71.8014 490.166 70.4665 491.019 69.1871 491.948C67.9182 492.892 66.7036 493.905 65.5489 494.982C65.0835 495.456 64.5831 495.895 64.0518 496.296C64.4205 495.758 64.8499 495.262 65.3319 494.82C66.4421 493.675 67.6465 492.624 68.9326 491.675C70.2202 490.73 71.5905 489.9 73.0273 489.195C73.6119 488.856 74.2384 488.593 74.8913 488.412Z" fill="#263238"/>
<path d="M145.7 477.371L134.016 519.946H188.592L201.885 479.426C202.007 479.058 202.04 478.667 201.982 478.283C201.924 477.9 201.777 477.536 201.552 477.221C201.327 476.906 201.031 476.648 200.688 476.469C200.345 476.29 199.964 476.195 199.578 476.192L148.103 475.602C147.565 475.593 147.038 475.761 146.604 476.081C146.17 476.4 145.853 476.853 145.7 477.371Z" fill="#E0E0E0"/>
<path d="M148.795 475.602C148.895 475.602 146.317 485.582 143.082 497.833C139.846 510.083 137.075 519.997 136.975 519.946C136.875 519.894 139.446 509.958 142.724 497.708C146.002 485.457 148.688 475.573 148.795 475.602Z" fill="#263238"/>
<path d="M170.572 496.974C170.456 497.43 170.445 497.918 170.542 498.38C170.639 498.843 170.838 499.261 171.117 499.584C171.396 499.907 171.743 500.121 172.115 500.202C172.488 500.282 172.871 500.226 173.219 500.038C173.567 499.851 173.865 499.541 174.077 499.145C174.29 498.75 174.408 498.285 174.418 497.807C174.427 497.328 174.328 496.856 174.132 496.447C173.936 496.038 173.651 495.709 173.311 495.5C172.793 495.239 172.215 495.248 171.702 495.524C171.189 495.8 170.783 496.321 170.572 496.974Z" fill="white"/>
<path d="M133.665 519.946H97.5562C97.5562 519.163 97.8812 518.412 98.4601 517.858C99.039 517.304 99.8243 516.991 100.644 516.99H135.002L133.665 519.946Z" fill="#E0E0E0"/>
<path d="M49.3168 490.271C49.3265 490.385 49.3265 490.5 49.3168 490.614C49.3168 490.855 49.3168 491.191 49.3168 491.615C49.3235 492.152 49.361 492.688 49.4289 493.221C49.4969 493.957 49.6041 494.688 49.7502 495.412C50.159 497.381 50.7854 499.301 51.6184 501.138C52.7183 503.56 54.1568 505.821 55.8927 507.856L55.803 507.813L75.3738 510.734L75.187 510.821L83.0631 497.764L85.3049 494.112L85.3722 494.368L74.5294 488.139L74.4248 488.087V487.971C75.4186 477.221 76.2705 467.975 76.8758 461.395C77.1971 458.131 77.4437 455.553 77.6231 453.72C77.7127 452.844 77.7874 452.164 77.8323 451.675C77.8622 451.456 77.8846 451.281 77.8995 451.149C77.8923 451.089 77.8923 451.027 77.8995 450.967C77.9089 451.027 77.9089 451.089 77.8995 451.149C77.8995 451.288 77.8995 451.463 77.8995 451.682L77.7426 453.735C77.5931 455.546 77.3765 458.116 77.1074 461.41C76.5321 467.983 75.7325 477.243 74.791 488L74.7012 487.832L85.559 493.981L85.7308 494.076L85.6337 494.236L83.3919 497.932C80.6345 502.489 77.9668 506.9 75.5083 510.975L75.4411 511.077H75.314L55.7582 508.097H55.7059V508.061C52.6393 504.413 50.5513 500.076 49.6306 495.441C49.4963 494.717 49.4015 493.985 49.3467 493.251C49.2889 492.712 49.264 492.171 49.272 491.629C49.272 491.206 49.272 490.899 49.272 490.629C49.2763 490.509 49.2913 490.389 49.3168 490.271Z" fill="#263238"/>
<path d="M22.6646 503.194C22.6646 503.194 87.142 511.422 89.4615 513.701C91.4801 515.699 94.0639 568.46 94.5998 568.23L34.4091 565.936L22.6646 503.194Z" fill="#455A64"/>
<path d="M75.8694 581.041C75.7615 581.041 74.3273 565.839 72.7235 547.045C71.1197 528.25 69.8629 513.048 69.9708 513.048C70.0788 513.048 71.513 528.243 73.1245 547.045C74.736 565.846 75.9851 581.027 75.8694 581.041Z" fill="#263238"/>
<path d="M9.854 435.2C9.88484 435.282 9.90935 435.366 9.92735 435.452C9.97137 435.645 10.0301 435.89 10.1108 436.194L10.7637 439.085L13.104 449.746C15.0555 458.776 17.7333 471.245 20.6972 484.953C21.4308 488.386 22.1644 491.744 22.8394 494.991C23.1866 496.607 23.5266 498.199 23.8591 499.766L24.1012 500.93C24.165 501.306 24.2633 501.676 24.3947 502.034C24.6754 502.714 25.1671 503.284 25.7959 503.658C26.1023 503.845 26.4369 503.98 26.7863 504.058C27.1238 504.132 27.52 504.169 27.8648 504.221L30.0217 504.51L34.1447 505.052L41.5398 506.045L52.2508 507.528L55.1854 507.95L55.919 508.062C56.0046 508.069 56.0887 508.089 56.1685 508.121H55.9117L55.1781 508.039L52.2435 507.698L41.5251 506.356L34.1154 505.415L29.9923 504.888L27.8354 504.614C27.4686 504.562 27.1018 504.533 26.7203 504.451C26.3385 504.362 25.9724 504.214 25.6345 504.014C24.9334 503.603 24.3865 502.97 24.0792 502.212C23.9368 501.835 23.8311 501.446 23.7638 501.048C23.6831 500.663 23.595 500.307 23.5143 499.884C23.1768 498.327 22.8393 496.733 22.4872 495.117C21.7536 491.87 21.0713 488.512 20.3377 485.079C17.4031 471.327 14.7767 458.887 12.8546 449.85C11.9229 445.357 11.1672 441.695 10.6537 439.159C10.4043 437.914 10.2061 436.935 10.0667 436.253C10.0081 435.934 9.96403 435.682 9.92735 435.512C9.89121 435.411 9.86661 435.306 9.854 435.2Z" fill="#263238"/>
<path d="M90.6648 517.975C90.7635 517.975 91.9479 532.105 93.3015 549.493C94.6551 566.881 95.6774 581.034 95.5787 581.041C95.48 581.049 94.2956 566.911 92.942 549.523C91.5883 532.135 90.5661 517.982 90.6648 517.975Z" fill="#263238"/>
</svg>
