<svg width="287" height="613" viewBox="0 0 287 613" fill="none" xmlns="http://www.w3.org/2000/svg">
<path d="M281.569 556.346V593.287H227.537H167.986V556.346H281.569Z" fill="#F5F5F5"/>
<path d="M286.32 546V556.347H164V546H227.536H286.32Z" fill="#E0E0E0"/>
<path d="M225.16 593.288H167.986V556.347H164V546H227.536V555.35L225.16 593.288Z" fill="#E0E0E0"/>
<path d="M242.637 562.326H265.706V567.921H242.637V562.326Z" fill="#E0E0E0"/>
<path d="M239.112 574.82H268.696V586.546H239.112V574.82Z" fill="white"/>
<path d="M25 593.13C25 593.207 83.4433 593.36 155.5 593.36C227.557 593.36 286 593.207 286 593.13C286 593.054 227.557 592.9 155.5 592.9C83.4021 592.9 25 592.977 25 593.13Z" fill="#263238"/>
<path d="M278.947 174.161H23.1606V301.228H278.947V174.161Z" fill="white"/>
<path d="M278.947 174.161H23.1606V189.945H278.947V174.161Z" fill="#E0E0E0"/>
<path d="M278.947 301.227C278.947 300.427 278.893 252.49 278.84 174.16L278.947 174.267C211.921 174.267 121.913 174.267 23.2133 174.32L23.3733 174.16C23.3733 218.951 23.3733 261.928 23.3733 301.227L23.2666 301.12C172.462 301.174 277.72 301.227 278.947 301.227C277.72 301.227 172.462 301.28 23.16 301.333H23.0533V301.227C23.0533 261.928 23.0533 218.951 23.0533 174.16L23 174H23.16C121.913 174 211.921 174 278.893 174.053H279V174.16C278.947 252.49 278.947 300.427 278.947 301.227Z" fill="#263238"/>
<path d="M53.8728 205.035V213.14H52.6464L48.1673 207.648V213.14H46.6743V205.035H47.9007L52.3798 210.527V205.035H53.8728Z" fill="#263238"/>
<path d="M61.1258 209.514V213.14H59.7394V212.393C59.3662 212.927 58.7263 213.247 57.7665 213.247C56.3268 213.247 55.4736 212.447 55.4736 211.38C55.4736 210.367 56.1668 209.514 58.0331 209.514H59.6328V209.407C59.6328 208.554 59.0995 208.074 58.0864 208.074C57.3932 208.074 56.6467 208.288 56.2201 208.714L55.6336 207.648C56.2735 207.115 57.2333 206.901 58.2464 206.901C60.0593 206.901 61.1258 207.754 61.1258 209.514ZM59.6861 211.22V210.527H58.1931C57.2333 210.527 56.9667 210.9 56.9667 211.327C56.9667 211.86 57.3932 212.18 58.1397 212.18C58.7796 212.18 59.4195 211.86 59.6861 211.22Z" fill="#263238"/>
<path d="M73.3371 209.621V213.193H71.8974V209.834C71.8974 208.714 71.3642 208.181 70.511 208.181C69.5512 208.181 68.9113 208.821 68.9113 210.047V213.193H67.4716V209.834C67.4716 208.714 66.9384 208.181 66.0853 208.181C65.1255 208.181 64.4856 208.821 64.4856 210.047V213.193H63.0459V206.955H64.4323V207.754C64.9122 207.221 65.6054 206.901 66.4585 206.901C67.365 206.901 68.1115 207.221 68.5381 207.914C69.018 207.275 69.8711 206.901 70.8309 206.901C72.2706 206.901 73.3371 207.754 73.3371 209.621Z" fill="#263238"/>
<path d="M81.0146 210.527H76.1623C76.3222 211.434 77.0687 212.02 78.1885 212.02C78.8817 212.02 79.4149 211.807 79.8948 211.327L80.6946 212.234C80.1614 212.873 79.2549 213.247 78.1885 213.247C76.1089 213.247 74.7759 211.914 74.7759 210.047C74.7759 208.181 76.1089 206.901 77.9752 206.901C79.7882 206.901 81.1212 208.181 81.1212 210.101C81.0679 210.207 81.0146 210.367 81.0146 210.527ZM76.1623 209.567H79.6815C79.5749 208.661 78.8817 208.074 77.9219 208.074C76.9621 208.021 76.3222 208.661 76.1623 209.567Z" fill="#263238"/>
<path d="M63.1002 239.161V240.014H59.1011V234.682H62.9936V235.535H60.1142V236.921H62.6737V237.721H60.1142V239.214H63.1002V239.161Z" fill="#E0E0E0"/>
<path d="M68.112 237.667V240.014H67.1522V237.827C67.1522 237.081 66.7789 236.761 66.1924 236.761C65.4992 236.761 65.0726 237.188 65.0726 237.987V240.067H64.1128V236.014H65.0193V236.548C65.3392 236.174 65.8191 235.961 66.4056 235.961C67.3654 235.908 68.112 236.441 68.112 237.667Z" fill="#E0E0E0"/>
<path d="M71.7917 239.801C71.5784 239.961 71.2052 240.067 70.8852 240.067C69.9788 240.067 69.4989 239.587 69.4989 238.681V236.708H68.8057V235.961H69.4989V235.055H70.4587V235.961H71.5251V236.708H70.4587V238.628C70.4587 239.001 70.6719 239.214 71.0452 239.214C71.2585 239.214 71.4185 239.161 71.5784 239.054L71.7917 239.801Z" fill="#E0E0E0"/>
<path d="M76.2171 238.254H73.0178C73.1244 238.841 73.6043 239.214 74.3509 239.214C74.8308 239.214 75.1507 239.054 75.4706 238.787L76.0038 239.374C75.6306 239.8 75.044 240.014 74.3509 240.014C72.9645 240.014 72.1113 239.16 72.1113 237.934C72.1113 236.708 73.0178 235.854 74.1909 235.854C75.364 235.854 76.2705 236.708 76.2705 237.934C76.2171 238.094 76.2171 238.201 76.2171 238.254ZM73.0178 237.667H75.3107C75.2573 237.081 74.7774 236.654 74.1376 236.654C73.551 236.654 73.1244 237.028 73.0178 237.667Z" fill="#E0E0E0"/>
<path d="M79.5234 235.908V236.815C79.4168 236.815 79.3635 236.815 79.3101 236.815C78.5636 236.815 78.137 237.241 78.137 238.094V240.067H77.1772V236.015H78.0837V236.601C78.3503 236.121 78.8302 235.908 79.5234 235.908Z" fill="#E0E0E0"/>
<path d="M86.2409 235.961L84.3213 240.334C83.948 241.24 83.4148 241.56 82.7749 241.56C82.3484 241.56 81.9218 241.4 81.7085 241.187L82.0818 240.494C82.2417 240.654 82.5083 240.76 82.7749 240.76C83.0949 240.76 83.3082 240.6 83.4681 240.174L83.5214 240.014L81.7618 235.908H82.7749L84.0547 238.894L85.3344 235.908H86.2409V235.961Z" fill="#E0E0E0"/>
<path d="M86.4019 237.988C86.4019 236.761 87.3083 235.908 88.5881 235.908C89.8678 235.908 90.7743 236.761 90.7743 237.988C90.7743 239.214 89.8678 240.067 88.5881 240.067C87.3083 240.067 86.4019 239.214 86.4019 237.988ZM89.7612 237.988C89.7612 237.188 89.2279 236.708 88.5347 236.708C87.8416 236.708 87.3083 237.188 87.3083 237.988C87.3083 238.788 87.8416 239.267 88.5347 239.267C89.2279 239.267 89.7612 238.734 89.7612 237.988Z" fill="#E0E0E0"/>
<path d="M95.5729 235.961V240.014H94.6664V239.48C94.3465 239.854 93.8666 240.067 93.3334 240.067C92.2669 240.067 91.5737 239.48 91.5737 238.254V235.908H92.5335V238.094C92.5335 238.841 92.9068 239.16 93.4933 239.16C94.1332 239.16 94.6131 238.734 94.6131 237.934V235.854H95.5729V235.961Z" fill="#E0E0E0"/>
<path d="M99.1987 235.908V236.815C99.0921 236.815 99.0388 236.815 98.9854 236.815C98.2389 236.815 97.8123 237.241 97.8123 238.094V240.067H96.8525V236.015H97.759V236.601C98.0256 236.121 98.5055 235.908 99.1987 235.908Z" fill="#E0E0E0"/>
<path d="M106.131 237.667V240.014H105.171V237.827C105.171 237.081 104.798 236.761 104.211 236.761C103.518 236.761 103.092 237.188 103.092 237.987V240.067H102.132V236.014H103.038V236.548C103.358 236.174 103.838 235.961 104.425 235.961C105.384 235.908 106.131 236.441 106.131 237.667Z" fill="#E0E0E0"/>
<path d="M110.77 237.614V240.014H109.864V239.534C109.65 239.907 109.17 240.067 108.584 240.067C107.677 240.067 107.091 239.534 107.091 238.841C107.091 238.148 107.571 237.614 108.797 237.614H109.864V237.561C109.864 237.028 109.544 236.655 108.85 236.655C108.371 236.655 107.944 236.815 107.624 237.081L107.251 236.388C107.677 236.068 108.317 235.908 108.957 235.908C110.077 235.908 110.77 236.441 110.77 237.614ZM109.81 238.734V238.254H108.85C108.211 238.254 108.051 238.521 108.051 238.788C108.051 239.107 108.317 239.374 108.85 239.374C109.224 239.374 109.65 239.161 109.81 238.734Z" fill="#E0E0E0"/>
<path d="M118.768 237.668V240.014H117.808V237.828C117.808 237.081 117.488 236.761 116.902 236.761C116.262 236.761 115.835 237.188 115.835 237.988V240.067H114.876V237.881C114.876 237.135 114.556 236.815 113.969 236.815C113.329 236.815 112.903 237.241 112.903 238.041V240.121H111.943V236.068H112.849V236.601C113.169 236.228 113.649 236.015 114.182 236.015C114.769 236.015 115.249 236.228 115.569 236.708C115.889 236.281 116.422 236.015 117.115 236.015C118.075 235.908 118.768 236.441 118.768 237.668Z" fill="#E0E0E0"/>
<path d="M123.834 238.254H120.635C120.741 238.841 121.221 239.214 121.968 239.214C122.447 239.214 122.767 239.054 123.087 238.787L123.621 239.374C123.247 239.8 122.661 240.014 121.968 240.014C120.581 240.014 119.728 239.16 119.728 237.934C119.728 236.708 120.635 235.854 121.808 235.854C122.981 235.854 123.887 236.708 123.887 237.934C123.834 238.094 123.834 238.201 123.834 238.254ZM120.635 237.667H122.927C122.874 237.081 122.394 236.654 121.754 236.654C121.168 236.654 120.741 237.028 120.635 237.667Z" fill="#E0E0E0"/>
<path d="M130.872 237.667V240.013H129.912V237.827C129.912 237.081 129.539 236.761 128.953 236.761C128.259 236.761 127.833 237.187 127.833 237.987V240.067H126.873V234.415H127.833V236.494C128.153 236.174 128.633 235.961 129.166 235.961C130.126 235.908 130.872 236.441 130.872 237.667Z" fill="#E0E0E0"/>
<path d="M135.885 238.254H132.685C132.792 238.841 133.272 239.214 134.018 239.214C134.498 239.214 134.818 239.054 135.138 238.787L135.671 239.374C135.298 239.8 134.712 240.014 134.018 240.014C132.632 240.014 131.779 239.16 131.779 237.934C131.779 236.708 132.685 235.854 133.858 235.854C135.031 235.854 135.938 236.708 135.938 237.934C135.938 238.094 135.938 238.201 135.885 238.254ZM132.739 237.667H135.031C134.978 237.081 134.498 236.654 133.858 236.654C133.272 236.654 132.792 237.028 132.739 237.667Z" fill="#E0E0E0"/>
<path d="M139.19 235.908V236.815C139.083 236.815 139.03 236.815 138.977 236.815C138.23 236.815 137.804 237.241 137.804 238.094V240.067H136.844V236.015H137.75V236.601C138.017 236.121 138.497 235.908 139.19 235.908Z" fill="#E0E0E0"/>
<path d="M143.776 238.254H140.577C140.684 238.841 141.163 239.214 141.91 239.214C142.39 239.214 142.71 239.054 143.03 238.787L143.563 239.374C143.19 239.8 142.603 240.014 141.91 240.014C140.524 240.014 139.67 239.16 139.67 237.934C139.67 236.708 140.577 235.854 141.75 235.854C142.923 235.854 143.83 236.708 143.83 237.934C143.776 238.094 143.776 238.201 143.776 238.254ZM140.577 237.667H142.87C142.816 237.081 142.337 236.654 141.697 236.654C141.11 236.654 140.684 237.028 140.577 237.667Z" fill="#E0E0E0"/>
<path d="M98.6128 283.525H53.1822C46.9435 283.525 41.8779 278.459 41.8779 272.22C41.8779 265.982 46.9435 260.916 53.1822 260.916H98.6128C104.851 260.916 109.917 265.982 109.917 272.22C109.864 278.459 104.851 283.525 98.6128 283.525Z" fill="#598DDA"/>
<path d="M57.2882 230.362H56.4351V244.759H57.2882V230.362Z" fill="#8BB1E8"/>
<path d="M56.3813 271.955C56.3813 270.302 57.6611 269.075 59.3674 269.075C60.2739 269.075 61.0737 269.395 61.5536 270.035L60.8604 270.675C60.4338 270.249 59.9539 270.035 59.3674 270.035C58.1943 270.035 57.3945 270.835 57.3945 272.008C57.3945 273.181 58.2476 273.981 59.3674 273.981C59.9539 273.981 60.4338 273.768 60.8604 273.341L61.5536 273.981C61.0204 274.568 60.2739 274.941 59.3141 274.941C57.6611 274.781 56.3813 273.608 56.3813 271.955Z" fill="#FAFAFA"/>
<path d="M59.3674 274.834C58.5142 274.834 57.7677 274.568 57.2345 274.034C56.7013 273.501 56.3813 272.755 56.3813 271.955C56.3813 271.155 56.7013 270.408 57.2345 269.875C57.7677 269.342 58.5676 269.075 59.3674 269.075C60.2739 269.075 61.0737 269.395 61.6069 270.035L60.9137 270.675C60.4872 270.249 60.0073 270.035 59.4207 270.035C58.8875 270.035 58.3543 270.249 57.981 270.568C57.6078 270.942 57.4478 271.422 57.4478 271.955C57.4478 272.488 57.6611 273.021 57.981 273.341C58.3543 273.714 58.8342 273.874 59.4207 273.874C60.0073 273.874 60.4872 273.661 60.9137 273.235L61.6069 273.874C61.0737 274.461 60.3272 274.834 59.3674 274.834ZM59.3674 269.075C58.5142 269.075 57.7677 269.342 57.2345 269.875C56.7013 270.408 56.3813 271.102 56.3813 271.902C56.3813 272.701 56.7013 273.448 57.2345 273.928C57.7677 274.461 58.5142 274.728 59.3674 274.728C60.2739 274.728 61.0737 274.408 61.5536 273.821L60.9137 273.181C60.4872 273.608 60.0073 273.821 59.4207 273.821C58.2476 273.821 57.3945 272.968 57.3945 271.848C57.3945 270.728 58.2476 269.875 59.4207 269.875C60.0073 269.875 60.4872 270.089 60.9137 270.515L61.5536 269.929C61.0737 269.395 60.2739 269.075 59.3674 269.075Z" fill="#263238"/>
<path d="M61.9795 272.595C61.9795 271.315 62.9393 270.409 64.2723 270.409C65.6054 270.409 66.5652 271.315 66.5652 272.595C66.5652 273.874 65.6054 274.781 64.2723 274.781C62.9393 274.781 61.9795 273.874 61.9795 272.595ZM65.5521 272.595C65.5521 271.795 65.0189 271.262 64.2723 271.262C63.5792 271.262 62.9926 271.795 62.9926 272.595C62.9926 273.395 63.5258 273.928 64.2723 273.928C64.9655 273.928 65.5521 273.395 65.5521 272.595Z" fill="#FAFAFA"/>
<path d="M64.2723 274.781C62.9393 274.781 61.9795 273.874 61.9795 272.595C61.9795 271.315 62.9393 270.409 64.2723 270.409C64.9122 270.409 65.4988 270.622 65.9253 271.048C66.3519 271.422 66.5652 272.008 66.5652 272.648C66.5652 273.288 66.3519 273.821 65.9253 274.248C65.4988 274.568 64.9122 274.781 64.2723 274.781ZM64.2723 270.409C62.9926 270.409 62.0328 271.315 62.0328 272.595C62.0328 273.874 62.9926 274.781 64.2723 274.781C64.9122 274.781 65.4988 274.568 65.872 274.194C66.2986 273.821 66.5119 273.235 66.5119 272.648C66.5119 272.061 66.2986 271.475 65.872 271.102C65.4988 270.622 64.9122 270.409 64.2723 270.409ZM64.2723 273.928C63.5258 273.928 62.9926 273.395 62.9926 272.595C62.9926 271.795 63.5258 271.262 64.2723 271.262C65.0189 271.262 65.5521 271.795 65.5521 272.595C65.5521 273.395 65.0189 273.928 64.2723 273.928ZM64.2723 271.262C63.5258 271.262 63.0459 271.795 63.0459 272.595C63.0459 273.395 63.5792 273.928 64.2723 273.928C65.0189 273.928 65.5521 273.395 65.5521 272.595C65.4988 271.795 65.0189 271.262 64.2723 271.262Z" fill="#263238"/>
<path d="M71.6851 272.275V274.728H70.672V272.435C70.672 271.688 70.2987 271.315 69.6589 271.315C68.9657 271.315 68.4858 271.742 68.4858 272.595V274.728H67.4727V270.462H68.4325V270.995C68.7524 270.622 69.2856 270.409 69.9255 270.409C70.9386 270.409 71.6851 270.995 71.6851 272.275Z" fill="#FAFAFA"/>
<path d="M71.6851 274.728H70.672V272.381C70.672 271.635 70.3521 271.262 69.6589 271.262C68.9124 271.262 68.4858 271.742 68.4858 272.541V274.728H67.4727V270.462H68.4325V270.995C68.7524 270.622 69.2856 270.409 69.8722 270.409C70.4054 270.409 70.832 270.568 71.1519 270.888C71.4718 271.208 71.6851 271.688 71.6851 272.328V274.728ZM70.7253 274.728H71.6851V272.275C71.6851 271.102 71.0452 270.409 69.9255 270.409C69.2856 270.409 68.8057 270.622 68.4858 270.995V271.048V270.462H67.5793V274.674H68.5391V272.541C68.5391 271.742 68.9657 271.262 69.7655 271.262C70.4587 271.262 70.7786 271.635 70.7786 272.381V274.728H70.7253Z" fill="#263238"/>
<path d="M75.5234 274.514C75.3102 274.728 74.9369 274.781 74.5636 274.781C73.6038 274.781 73.0706 274.301 73.0706 273.341V271.315H72.3774V270.515H73.0706V269.555H74.0838V270.515H75.2035V271.315H74.0838V273.341C74.0838 273.768 74.297 273.981 74.6703 273.981C74.8836 273.981 75.0969 273.928 75.2035 273.821L75.5234 274.514Z" fill="#FAFAFA"/>
<path d="M74.5636 274.781C73.6038 274.781 73.0706 274.248 73.0706 273.341V271.315H72.3774V270.515H73.0706V269.555H74.0838V270.515H75.2035V271.315H74.0838V273.341C74.0838 273.768 74.297 273.981 74.6703 273.981C74.8836 273.981 75.0969 273.928 75.2035 273.821L75.4701 274.514C75.3102 274.674 74.9369 274.781 74.5636 274.781ZM72.4308 271.262H73.1239V273.341C73.1239 274.248 73.6572 274.781 74.5636 274.781C74.9369 274.781 75.2568 274.674 75.5234 274.514L75.2568 273.821C75.0969 273.928 74.9369 273.981 74.7236 273.981C74.3504 273.981 74.1371 273.768 74.1371 273.341V271.315H75.2568V270.515H74.1371V269.555H73.1239V270.515H72.4308V271.262Z" fill="#263238"/>
<path d="M76.2168 269.182C76.2168 268.862 76.4834 268.595 76.8567 268.595C77.2299 268.595 77.4965 268.862 77.4965 269.182C77.4965 269.555 77.2299 269.822 76.8567 269.822C76.4834 269.768 76.2168 269.502 76.2168 269.182ZM76.3768 270.461H77.3899V274.727H76.3768V270.461Z" fill="#FAFAFA"/>
<path d="M77.3899 274.727H76.3234V270.461H77.3366V274.727H77.3899ZM76.3768 274.727H77.3366V270.515H76.3768V274.727ZM76.8567 269.768C76.4834 269.768 76.2168 269.502 76.2168 269.182C76.2168 268.862 76.4834 268.595 76.8567 268.595C77.2299 268.595 77.4965 268.862 77.4965 269.182C77.4965 269.502 77.2299 269.768 76.8567 269.768ZM76.8567 268.595C76.4834 268.595 76.2168 268.862 76.2168 269.182C76.2168 269.502 76.4834 269.768 76.8567 269.768C77.2299 269.768 77.4965 269.502 77.4965 269.182C77.4965 268.809 77.2299 268.595 76.8567 268.595Z" fill="#263238"/>
<path d="M82.8819 272.275V274.728H81.8688V272.435C81.8688 271.688 81.4955 271.315 80.8556 271.315C80.1625 271.315 79.6826 271.742 79.6826 272.595V274.728H78.6694V270.462H79.6292V270.995C79.9492 270.622 80.4824 270.409 81.1223 270.409C82.0821 270.409 82.8819 270.995 82.8819 272.275Z" fill="#FAFAFA"/>
<path d="M82.8819 274.728H81.8688V272.381C81.8688 271.635 81.5488 271.262 80.8556 271.262C80.1091 271.262 79.6826 271.742 79.6826 272.541V274.728H78.6694V270.462H79.6292V270.995C79.9492 270.622 80.4824 270.409 81.0689 270.409C81.6022 270.409 82.0287 270.568 82.3487 270.888C82.6686 271.208 82.8819 271.688 82.8819 272.328V274.728ZM81.8688 274.728H82.8286V272.275C82.8286 271.102 82.1887 270.409 81.0689 270.409C80.4291 270.409 79.9492 270.622 79.6292 270.995V271.048V270.462H78.7228V274.674H79.6826V272.541C79.6826 271.742 80.1091 271.262 80.909 271.262C81.6022 271.262 81.9221 271.635 81.9221 272.381V274.728H81.8688Z" fill="#263238"/>
<path d="M88.268 270.462V274.727H87.3082V274.194C86.9883 274.567 86.5084 274.781 85.9218 274.781C84.8021 274.781 84.1089 274.194 84.1089 272.914V270.462H85.122V272.754C85.122 273.554 85.4953 273.874 86.1351 273.874C86.8283 273.874 87.3082 273.448 87.3082 272.594V270.462H88.268Z" fill="#FAFAFA"/>
<path d="M85.9219 274.781C85.3354 274.781 84.9088 274.621 84.5889 274.301C84.269 273.981 84.0557 273.501 84.0557 272.861V270.408H85.0688V272.701C85.0688 273.448 85.3887 273.821 86.0286 273.821C86.7751 273.821 87.2017 273.341 87.2017 272.541V270.355H88.2148V274.621H87.255V274.087C86.9884 274.567 86.5085 274.781 85.9219 274.781ZM84.109 270.462V272.861C84.109 273.501 84.269 273.928 84.5889 274.301C84.9088 274.621 85.3354 274.781 85.9219 274.781C86.4552 274.781 86.9884 274.567 87.3083 274.194V274.141V274.727H88.2148V270.515H87.255V272.648C87.255 273.448 86.8284 273.928 86.0819 273.928C85.442 273.928 85.0688 273.554 85.0688 272.754V270.462H84.109Z" fill="#263238"/>
<path d="M93.5462 272.914H90.1869C90.2935 273.554 90.8267 273.927 91.5732 273.927C92.0531 273.927 92.4264 273.767 92.7463 273.447L93.2795 274.087C92.9063 274.567 92.3197 274.78 91.5732 274.78C90.1335 274.78 89.2271 273.874 89.2271 272.594C89.2271 271.314 90.1869 270.408 91.4133 270.408C92.6397 270.408 93.5462 271.261 93.5462 272.594C93.5995 272.701 93.5462 272.807 93.5462 272.914ZM90.1869 272.221H92.5864C92.533 271.581 92.0531 271.208 91.3599 271.208C90.7734 271.208 90.2935 271.634 90.1869 272.221Z" fill="#FAFAFA"/>
<path d="M91.5732 274.781C90.88 274.781 90.2935 274.567 89.8669 274.141C89.4403 273.768 89.2271 273.181 89.2271 272.541C89.2271 271.261 90.1335 270.355 91.4666 270.355C92.7463 270.355 93.6528 271.261 93.6528 272.594C93.6528 272.701 93.6528 272.861 93.6528 272.914H90.2935C90.4001 273.554 90.9334 273.928 91.6799 273.928C92.1598 273.928 92.533 273.768 92.853 273.448L93.3862 274.087C92.9063 274.567 92.3197 274.781 91.5732 274.781ZM91.4133 270.408C90.1335 270.408 89.2271 271.315 89.2271 272.594C89.2271 273.234 89.4403 273.768 89.8669 274.141C90.2935 274.567 90.88 274.781 91.5732 274.781C92.3197 274.781 92.9063 274.567 93.2795 274.087L92.7463 273.501C92.4264 273.821 92.0531 273.981 91.5732 273.981C90.8267 273.981 90.2935 273.608 90.1869 272.968H93.5462C93.5462 272.914 93.5462 272.754 93.5462 272.701C93.5462 271.315 92.693 270.408 91.4133 270.408ZM92.6397 272.275H90.1869C90.2935 271.635 90.7734 271.208 91.4133 271.208C92.0531 271.208 92.533 271.635 92.6397 272.275ZM90.2402 272.221H92.6397C92.533 271.635 92.0531 271.208 91.4666 271.208C90.7734 271.208 90.3468 271.635 90.2402 272.221Z" fill="#263238"/>
<path d="M32.4931 183.972C33.9066 183.972 35.0525 182.826 35.0525 181.412C35.0525 179.999 33.9066 178.853 32.4931 178.853C31.0795 178.853 29.9336 179.999 29.9336 181.412C29.9336 182.826 31.0795 183.972 32.4931 183.972Z" fill="white"/>
<path d="M41.8759 183.972C43.2894 183.972 44.4353 182.826 44.4353 181.412C44.4353 179.999 43.2894 178.853 41.8759 178.853C40.4623 178.853 39.3164 179.999 39.3164 181.412C39.3164 182.826 40.4623 183.972 41.8759 183.972Z" fill="white"/>
<path d="M51.2079 183.972C52.6215 183.972 53.7674 182.826 53.7674 181.412C53.7674 179.999 52.6215 178.853 51.2079 178.853C49.7944 178.853 48.6484 179.999 48.6484 181.412C48.6484 182.826 49.7944 183.972 51.2079 183.972Z" fill="white"/>
<g clip-path="url(#clip0_145_217)">
<path d="M187.477 436H171.675C168.549 436 166 433.447 166 430.316V414.49C166 411.359 168.549 408.806 171.675 408.806H187.443C190.57 408.806 193.118 411.359 193.118 414.49V430.282C193.152 433.447 190.604 436 187.477 436Z" fill="#D7E7FF"/>
<path d="M178.71 428.376L171.845 422.386C171.267 421.91 171.233 421.025 171.709 420.48C172.185 419.902 173.068 419.868 173.612 420.344L178.472 424.564L185.404 416.873C185.914 416.328 186.764 416.26 187.307 416.77C187.851 417.281 187.919 418.132 187.409 418.676L178.71 428.376Z" fill="#F3F3F3"/>
<path d="M186.968 394.614H172.185C168.787 394.614 166 391.823 166 388.42V373.614C166 370.211 168.787 367.42 172.185 367.42H186.968C190.366 367.42 193.152 370.211 193.152 373.614V388.42C193.152 391.823 190.4 394.614 186.968 394.614ZM172.185 369.122C169.738 369.122 167.733 371.13 167.733 373.58V388.386C167.733 390.836 169.738 392.844 172.185 392.844H186.968C189.414 392.844 191.419 390.836 191.419 388.386V373.58C191.419 371.13 189.414 369.122 186.968 369.122H172.185Z" fill="#D7E7FF"/>
<path d="M227.849 436H213.066C209.668 436 206.881 433.209 206.881 429.806V415.001C206.881 411.597 209.668 408.806 213.066 408.806H227.849C231.247 408.806 234.034 411.597 234.034 415.001V429.806C234 433.243 231.247 436 227.849 436ZM213.032 410.542C210.585 410.542 208.58 412.55 208.58 415.001V429.806C208.58 432.256 210.585 434.264 213.032 434.264H227.849C230.296 434.264 232.301 432.256 232.301 429.806V415.001C232.301 412.55 230.296 410.542 227.849 410.542H213.032Z" fill="#D7E7FF"/>
<path d="M228.325 394.58H212.557C209.43 394.58 206.881 392.027 206.881 388.896V373.104C206.881 369.973 209.43 367.42 212.557 367.42H228.325C231.451 367.42 234 369.973 234 373.104V388.896C234 392.061 231.451 394.58 228.325 394.58Z" fill="#D7E7FF"/>
<path d="M219.591 386.99L212.726 381C212.149 380.523 212.115 379.639 212.59 379.094C213.066 378.515 213.95 378.481 214.493 378.958L219.353 383.178L226.286 375.452C226.795 374.908 227.645 374.84 228.189 375.35C228.732 375.861 228.8 376.712 228.291 377.256L219.591 386.99Z" fill="#F3F3F3"/>
<path d="M227.849 353.194H213.066C209.668 353.194 206.881 350.403 206.881 346.999V332.194C206.881 328.791 209.668 326 213.066 326H227.849C231.247 326 234.034 328.791 234.034 332.194V346.999C234 350.437 231.247 353.194 227.849 353.194ZM213.032 327.736C210.585 327.736 208.58 329.744 208.58 332.194V346.999C208.58 349.45 210.585 351.458 213.032 351.458H227.849C230.296 351.458 232.301 349.45 232.301 346.999V332.194C232.301 329.744 230.296 327.736 227.849 327.736H213.032Z" fill="#D7E7FF"/>
<path d="M187.477 353.194H171.675C168.549 353.194 166 350.641 166 347.51V331.684C166 328.553 168.549 326 171.675 326H187.443C190.57 326 193.118 328.553 193.118 331.684V347.476C193.152 350.641 190.604 353.194 187.477 353.194Z" fill="#D7E7FF"/>
<path d="M178.71 345.604L171.845 339.614C171.267 339.137 171.233 338.252 171.709 337.708C172.185 337.129 173.068 337.095 173.612 337.572L178.472 341.792L185.404 334.066C185.914 333.522 186.764 333.454 187.307 333.964C187.851 334.475 187.919 335.325 187.409 335.87L178.71 345.604Z" fill="#F3F3F3"/>
</g>
<g clip-path="url(#clip1_145_217)">
<path d="M160 30.9868C160 38.5754 157.26 45.5317 152.728 50.9333C147.062 57.6787 138.552 62 128.987 62C119.132 62 110.173 57.3625 104.456 49.9584C100.424 44.7148 98 38.1275 98 30.9868C98 13.8861 111.886 0 128.987 0C146.114 0 160 13.8861 160 30.9868Z" fill="#EEF0F7"/>
<path d="M151.173 47.6133C151.068 47.5079 150.804 47.4025 150.646 47.2971C150.646 47.2971 150.62 47.2971 150.62 47.2707C149.249 46.5066 145.271 44.5304 137.392 42.2907C135.969 41.8428 134.889 41.5793 134.52 41.4739L133.861 40.4199C133.756 39.3396 133.782 37.7586 133.809 36.6783C134.915 35.3872 135.917 33.3846 136.47 30.2491C136.654 30.3808 136.786 30.091 136.786 30.091C136.681 29.9065 138.288 26.0068 137.998 25.1373C137.84 24.6367 137.498 24.6894 137.234 24.8475C137.26 24.6103 137.313 24.3732 137.366 24.136C137.366 24.136 137.998 18.1547 134.968 14.8347C134.652 14.5449 133.545 14.4658 133.545 14.4658C128.697 12.9902 125.772 13.649 123.954 14.4131C121.24 16.6265 121.056 20.3944 121.161 22.476C121.214 22.9766 121.266 23.4509 121.319 23.9516V23.9779C121.345 24.1624 121.372 24.3468 121.398 24.5313C121.135 24.3732 120.818 24.2941 120.634 24.7948C120.318 25.6643 121.504 29.5376 121.635 29.8011C121.635 29.8011 121.899 30.1964 122.083 30.0119C122.637 33.4373 123.638 35.5453 124.692 36.8364C124.613 38.2329 124.402 39.8666 124.27 40.8942L123.058 42.159C123.005 42.1853 122.926 42.2117 122.874 42.2117C109.304 45.8215 105.457 48.3511 105.457 48.3511C105.114 48.5619 104.772 49.1152 104.429 49.9584C110.173 57.3889 119.132 62 128.96 62C138.499 62 147.01 57.6787 152.701 50.9333C152.148 49.5104 151.726 48.1666 151.173 47.6133Z" fill="#598DDA"/>
</g>
<g clip-path="url(#clip2_145_217)">
<path d="M274 158H103.332V148.014H274V158Z" fill="white"/>
<path d="M229.927 139.986H103.332V130H229.927V139.986Z" fill="white"/>
<path d="M99.2984 158H95V130H99.2984V158Z" fill="#6A94D2"/>
</g>
<g clip-path="url(#clip3_145_217)">
<path d="M206 111H35.3315V101.014H206V111Z" fill="#EEEEEE"/>
<path d="M161.927 92.9857H35.3315V83H161.927V92.9857Z" fill="#EEEEEE"/>
<path d="M31.2984 111H27V83H31.2984V111Z" fill="#6A94D2"/>
</g>
<path d="M145.542 464.374L139.641 470.735C139.641 470.735 114.809 512.352 111.283 515.034C107.758 517.717 101.78 520.782 98.2541 520.322C94.7286 519.862 85.3017 513.425 85.3017 513.425L93.5023 488.133L102.853 485.604L128.144 456.327L145.542 464.374Z" fill="#FFBE9D"/>
<path d="M140.795 469.429C142.941 466.9 148.306 461.689 148.306 461.689L150.605 459.236C150.682 459.466 150.758 459.619 150.835 459.849C150.988 460.232 151.141 460.692 151.448 460.999C152.061 461.535 152.981 461.382 153.747 460.999C155.204 460.156 156.2 458.546 156.2 456.784C156.2 455.174 155.28 453.565 153.901 452.722C153.747 452.338 153.594 451.879 153.287 451.495C151.371 448.966 146.773 449.349 146.773 449.349L147.463 448.353C147.463 448.353 150.605 446.437 155.74 449.656C156.506 450.116 157.426 450.346 158.346 450.192C158.882 450.116 159.419 449.886 159.725 449.349C160.492 448.046 159.802 447.203 156.583 445.134C153.364 443.065 149.609 442.068 147.233 442.988C144.857 443.908 143.937 444.368 143.937 444.368C143.937 444.368 149.609 435.247 149.915 434.711C150.912 433.025 150.912 431.109 149.839 430.342C149.149 429.882 147.923 429.729 146.773 431.722C145.777 433.408 133.054 449.426 133.054 449.426L127.842 456.86L140.795 469.429Z" fill="#FFBE9D"/>
<path d="M129.679 457.09C130.446 457.933 131.902 457.856 132.898 457.32C133.894 456.783 134.738 455.94 135.734 455.327C138.723 453.488 142.785 454.254 145.621 452.338C146.004 452.031 146.464 451.572 146.234 451.188C146.08 450.805 145.544 450.652 145.084 450.652C141.252 450.499 137.42 450.345 133.588 450.192" fill="#FFBE9D"/>
<path d="M133.589 450.036C133.589 449.959 134.049 449.959 134.815 449.959C135.582 449.959 136.808 449.959 138.187 449.959C139.644 450.036 141.406 450.036 143.246 450.112C143.706 450.112 144.242 450.112 144.702 450.189C145.162 450.265 145.775 450.112 146.388 450.649C146.695 450.955 146.695 451.415 146.541 451.722C146.388 452.028 146.158 452.258 145.928 452.411C145.468 452.718 144.932 453.025 144.395 453.178C142.249 454.021 140.104 454.021 138.341 454.481C137.421 454.711 136.578 455.017 135.888 455.4C135.198 455.784 134.585 456.32 133.972 456.78C132.823 457.7 131.443 457.93 130.677 457.7C129.834 457.47 129.604 457.01 129.604 457.01C129.68 456.933 129.91 457.317 130.677 457.47C131.443 457.623 132.593 457.317 133.666 456.397C134.202 455.937 134.815 455.4 135.582 454.941C136.348 454.481 137.191 454.174 138.111 453.868C139.95 453.408 142.096 453.331 144.089 452.565C144.549 452.411 145.009 452.105 145.468 451.875C145.852 451.568 146.082 451.185 145.852 451.032C145.698 450.802 145.162 450.802 144.625 450.802C144.166 450.802 143.629 450.725 143.169 450.725C141.33 450.649 139.644 450.495 138.111 450.419C136.655 450.342 135.505 450.265 134.739 450.189C134.049 450.189 133.589 450.112 133.589 450.036Z" fill="#EB996E"/>
<path d="M146.613 449.272C146.689 449.349 147.072 448.429 148.299 447.893C148.912 447.586 149.755 447.51 150.598 447.74C151.441 447.893 152.361 448.353 153.28 448.889C154.2 449.426 155.12 449.962 155.963 450.269C156.883 450.575 157.726 450.652 158.492 450.499C159.258 450.345 159.718 449.809 159.795 449.426C159.948 449.043 159.948 448.813 159.948 448.813C159.872 448.813 159.872 449.043 159.642 449.349C159.488 449.656 159.029 450.039 158.415 450.192C157.802 450.345 156.959 450.192 156.116 449.886C155.273 449.579 154.43 449.043 153.51 448.506C152.591 447.97 151.671 447.51 150.675 447.356C149.755 447.203 148.835 447.28 148.145 447.663C147.456 447.97 147.072 448.429 146.843 448.736C146.689 449.043 146.613 449.272 146.613 449.272Z" fill="#EB996E"/>
<path d="M150.217 434.019C150.14 434.019 149.757 434.709 149.067 435.859C148.301 437.085 147.458 438.618 146.462 440.227C145.465 441.837 144.546 443.369 143.779 444.596C143.089 445.745 142.63 446.435 142.706 446.435C142.783 446.435 143.243 445.822 144.009 444.749C144.775 443.676 145.772 442.143 146.768 440.457C147.841 438.771 148.684 437.162 149.297 436.012C149.987 434.786 150.294 434.019 150.217 434.019Z" fill="#EB996E"/>
<path d="M147.453 452.573C147.453 452.573 147.683 452.65 148.143 452.726C148.526 452.803 149.216 452.88 149.599 453.493C149.753 453.799 149.829 454.183 149.599 454.566C149.446 454.949 149.139 455.332 148.756 455.715C148.45 456.099 148.066 456.635 148.066 457.248C148.066 457.861 148.45 458.474 148.986 458.858C149.523 459.241 150.212 459.241 150.826 459.088C151.439 458.934 151.898 458.628 152.282 458.245C152.971 457.401 153.355 456.635 153.661 455.869C153.968 455.179 154.121 454.489 154.121 454.106C154.121 453.646 154.044 453.416 154.044 453.416C154.044 453.416 154.044 453.646 153.968 454.106C153.891 454.489 153.738 455.102 153.431 455.792C153.125 456.482 152.665 457.248 152.052 458.015C151.439 458.704 150.212 459.088 149.293 458.551C148.833 458.245 148.526 457.785 148.526 457.325C148.526 456.865 148.756 456.405 149.063 456.022C149.369 455.639 149.676 455.256 149.906 454.796C150.136 454.336 150.059 453.799 149.829 453.416C149.293 452.726 148.526 452.65 148.143 452.65C147.683 452.496 147.453 452.573 147.453 452.573Z" fill="#EB996E"/>
<path d="M150.827 458.698C150.827 458.698 150.674 458.851 150.597 459.235C150.52 459.618 150.597 460.231 151.057 460.844C151.593 461.381 152.513 461.687 153.433 461.457C154.352 461.227 155.195 460.537 155.809 459.618C156.345 458.698 156.575 457.625 156.498 456.705C156.422 455.786 156.038 454.943 155.655 454.406C155.272 453.793 154.812 453.486 154.506 453.257C154.199 453.027 153.969 452.95 153.969 453.027C153.893 453.103 154.736 453.486 155.425 454.636C155.732 455.173 156.038 455.939 156.115 456.782C156.192 457.625 155.962 458.621 155.425 459.464C154.889 460.308 154.122 460.921 153.356 461.151C152.513 461.381 151.747 461.151 151.287 460.691C150.827 460.231 150.75 459.694 150.75 459.311C150.75 458.851 150.903 458.698 150.827 458.698Z" fill="#EB996E"/>
<path d="M140.863 460.925C140.863 460.925 140.633 460.619 140.02 460.389C139.407 460.159 138.487 460.006 137.414 460.389L137.644 460.695C137.874 460.312 138.028 459.852 138.181 459.316C139.101 456.633 138.717 454.334 138.641 454.334C138.487 454.334 138.641 456.557 137.798 459.163C137.644 459.622 137.491 460.082 137.261 460.466L137.031 460.925L137.491 460.772C138.411 460.466 139.33 460.466 139.867 460.619C140.48 460.849 140.787 461.002 140.863 460.925Z" fill="#EB996E"/>
<path d="M150.523 445.524C150.446 445.524 150.37 446.367 150.983 447.21C151.596 448.053 152.439 448.283 152.439 448.206C152.516 448.13 151.826 447.747 151.366 446.98C150.753 446.214 150.6 445.447 150.523 445.524Z" fill="#EB996E"/>
<path d="M160.331 591.446C160.331 591.446 170.295 593.592 179.262 592.289C187.616 591.062 206.316 592.365 206.316 603.325C206.316 615.588 181.331 612.599 171.598 610.606C161.864 608.69 152.131 606.927 152.131 606.927L160.331 591.446Z" fill="#455A64"/>
<path d="M182.789 607.156C182.942 607.156 183.479 605.24 184.015 602.864C184.552 600.488 184.858 598.495 184.782 598.495C184.629 598.495 184.092 600.411 183.556 602.787C182.942 605.163 182.636 607.156 182.789 607.156Z" fill="#263238"/>
<path d="M179.34 607.309C179.493 607.309 179.877 605.393 180.183 602.94C180.49 600.488 180.72 598.495 180.566 598.495C180.413 598.495 180.03 600.411 179.723 602.864C179.417 605.316 179.187 607.309 179.34 607.309Z" fill="#263238"/>
<path d="M176.042 606.008C176.195 606.008 176.502 604.322 176.732 602.176C176.962 600.03 177.115 598.267 176.962 598.267C176.808 598.267 176.502 599.954 176.272 602.1C176.042 604.245 175.889 606.008 176.042 606.008Z" fill="#263238"/>
<path d="M170.909 604.781C171.062 604.858 171.752 603.401 172.212 601.485C172.672 599.569 172.672 597.96 172.595 597.96C172.442 597.96 172.212 599.493 171.752 601.332C171.292 603.248 170.756 604.704 170.909 604.781Z" fill="#263238"/>
<path d="M169.759 600.258C169.759 600.258 169.299 600.182 168.456 600.182C167.613 600.182 166.387 600.335 164.93 600.871C164.547 601.025 164.164 601.178 163.857 601.485C163.551 601.714 163.168 602.174 163.168 602.711C163.168 603.784 164.317 604.55 165.467 604.32C166.54 604.09 167.383 603.324 168.073 602.481C168.763 601.638 169.299 600.565 169.529 599.415C170.065 597.116 169.682 594.74 168.456 593.054C168.303 592.824 167.996 592.671 167.69 592.594C167.383 592.517 167.076 592.671 166.847 592.824C166.463 593.207 166.31 593.667 166.233 594.204C166.08 595.123 166.157 595.966 166.387 596.733C166.77 598.266 167.46 599.262 168.073 599.875C168.379 600.182 168.609 600.412 168.839 600.488C168.992 600.641 169.146 600.641 169.146 600.641C169.146 600.641 168.763 600.335 168.226 599.722C167.69 599.109 167 598.036 166.693 596.656C166.54 595.966 166.463 595.123 166.617 594.28C166.693 593.897 166.847 593.437 167.153 593.207C167.46 592.977 167.843 593.054 168.149 593.361C169.222 594.893 169.682 597.193 169.146 599.339C168.916 600.412 168.379 601.408 167.766 602.251C167.153 603.094 166.31 603.784 165.467 603.937C164.624 604.167 163.628 603.477 163.704 602.711C163.704 602.328 163.934 602.021 164.241 601.791C164.547 601.561 164.854 601.408 165.237 601.255C166.617 600.718 167.843 600.488 168.609 600.412C169.299 600.258 169.759 600.258 169.759 600.258Z" fill="#263238"/>
<path d="M153.127 605.241C153.127 605.241 153.204 605.241 153.357 605.318C153.587 605.395 153.817 605.395 154.124 605.471C154.813 605.625 155.81 605.855 157.036 606.161C159.565 606.698 163.244 607.464 167.766 608.384C172.288 609.227 177.729 610.223 183.784 611.066C186.85 611.449 190.069 611.833 193.441 611.526C195.127 611.373 196.813 611.143 198.499 610.53C199.342 610.223 200.185 609.917 200.952 609.457C201.718 608.997 202.485 608.537 203.098 607.771V607.847C203.404 607.541 203.711 607.234 203.941 606.774C204.937 605.165 205.014 603.095 204.477 601.409C203.941 599.647 202.638 598.267 201.258 597.194C199.879 596.198 198.269 595.431 196.736 594.971C195.97 594.741 195.127 594.435 194.361 594.282C193.594 594.128 192.828 593.898 191.985 593.822C185.7 592.825 180.029 593.362 175.277 593.362C172.901 593.439 170.755 593.362 168.916 593.209C167.076 593.055 165.467 592.825 164.164 592.596C163.551 592.442 162.938 592.366 162.478 592.212C162.018 592.059 161.558 591.982 161.251 591.829C160.945 591.752 160.715 591.676 160.485 591.599C160.332 591.523 160.255 591.523 160.255 591.523C160.255 591.523 160.332 591.599 160.485 591.599C160.715 591.676 160.945 591.752 161.251 591.829C161.558 591.906 162.018 592.059 162.478 592.212C163.014 592.366 163.551 592.442 164.164 592.596C165.467 592.902 167.076 593.132 168.992 593.285C170.908 593.439 173.054 593.515 175.43 593.515C180.182 593.592 185.853 593.055 192.061 594.128C192.828 594.205 193.594 594.435 194.361 594.588C195.127 594.741 195.893 595.048 196.66 595.278C198.193 595.814 199.725 596.504 201.105 597.501C202.408 598.497 203.634 599.8 204.171 601.486C204.707 603.095 204.631 605.011 203.711 606.468C203.481 606.851 203.174 607.157 202.944 607.387C202.408 608 201.718 608.537 200.952 608.997C200.185 609.457 199.419 609.763 198.652 610.07C197.043 610.606 195.357 610.913 193.747 610.99C190.452 611.296 187.233 610.913 184.167 610.53C178.113 609.763 172.671 608.767 168.149 607.924C163.627 607.081 159.948 606.391 157.419 605.855C156.193 605.625 155.197 605.395 154.507 605.318C154.2 605.241 153.97 605.241 153.741 605.165C153.204 605.241 153.127 605.241 153.127 605.241Z" fill="#263238"/>
<path d="M189.685 611.218C189.762 611.218 189.839 610.222 189.915 608.689C189.992 607.08 190.222 604.934 190.528 602.558C190.835 600.182 191.218 598.036 191.525 596.503C191.831 594.97 192.061 593.974 191.985 593.974C191.908 593.974 191.601 594.894 191.218 596.426C190.835 597.959 190.375 600.105 190.069 602.558C189.762 604.934 189.609 607.156 189.609 608.766C189.532 610.222 189.609 611.218 189.685 611.218Z" fill="#263238"/>
<g opacity="0.4">
<g opacity="0.4">
<path opacity="0.4" d="M163.398 591.905L157.037 607.77L152.132 606.927L161.559 591.446L163.398 591.905Z" fill="black"/>
</g>
</g>
<path d="M99.1743 554.963L84.3058 521.777L92.8897 493.343C95.4955 484.683 94.8824 475.409 91.2036 467.209L76.7183 439.081L63.7659 434.483L33.3392 430.421C32.8027 430.574 31.2699 430.727 22.3028 433.716C14.7153 436.245 8.35401 441.38 4.21537 448.278L28.7407 519.785C28.7407 519.785 12.1095 556.266 14.1788 572.974L99.1743 554.963Z" fill="#6A94D2"/>
<path d="M74.2629 438.316C74.2629 438.316 91.2773 442.072 97.4853 465.294L105.149 490.049L91.2006 490.892L74.2629 438.316Z" fill="#6A94D2"/>
<path d="M92.4285 491.657C92.4285 491.657 92.5051 491.58 92.5818 491.351C92.6584 491.121 92.8117 490.814 92.965 490.354C93.2715 489.434 93.5781 488.132 93.6547 486.445C93.9613 483.073 93.2715 478.321 91.0489 473.646C90.5124 472.497 89.8993 471.347 89.2861 470.351C88.673 469.278 88.0599 468.281 87.5234 467.362C86.4504 465.446 85.684 463.606 85.1475 461.997C84.611 460.387 84.2278 459.084 83.9979 458.241C83.8446 457.858 83.768 457.475 83.6913 457.245C83.6147 457.015 83.538 456.862 83.538 456.862C83.538 456.862 83.538 457.015 83.6147 457.245C83.6913 457.552 83.768 457.858 83.8446 458.318C84.0745 459.238 84.4577 460.541 84.9176 462.15C85.3774 463.76 86.1439 465.676 87.2168 467.592C87.7533 468.588 88.2898 469.584 88.9029 470.657C89.5161 471.73 90.1292 472.803 90.6657 473.953C92.8883 478.551 93.5781 483.226 93.3482 486.599C93.2715 488.285 92.9649 489.588 92.735 490.507C92.5051 491.121 92.3518 491.657 92.4285 491.657Z" fill="#263238"/>
<path d="M134.581 568.53C134.658 568.606 142.629 562.782 152.439 555.501C162.172 548.22 170.066 542.242 169.99 542.088C169.913 542.012 161.942 547.837 152.132 555.118C142.399 562.475 134.505 568.453 134.581 568.53Z" fill="#455A64"/>
<path d="M15.5567 569.679L39.6988 549.828C42.3812 535.037 55.9468 524 71.8116 525.456C77.7897 525.993 83.3845 528.292 88.0596 532.124L102.085 543.084C123.851 537.183 156.884 527.909 173.898 523.08C180.873 521.164 188.307 522.237 194.362 526.146L194.668 526.376C203.558 532.124 207.927 542.854 205.475 553.201C203.942 559.792 199.88 565.387 194.132 568.912C185.548 574.2 172.289 582.248 160.793 589.146L162.325 590.372L152.209 607.003L131.439 600.565C117.413 598.572 87.6764 594.664 87.6764 594.664L96.1836 589.682L94.2676 589.069C78.0962 602.864 58.3227 609.149 33.874 598.496C21.688 592.748 14.1005 579.182 15.5567 569.679Z" fill="#263238"/>
<path d="M56.8683 567.455C56.8683 567.455 56.9449 567.532 57.0982 567.608C57.2515 567.762 57.4814 567.915 57.7114 568.145C58.2478 568.605 59.0909 569.218 60.0873 570.061C60.6238 570.444 61.1603 570.904 61.7734 571.44C62.3865 571.9 63.1529 572.437 63.9193 572.973C64.6858 573.51 65.5288 574.046 66.3719 574.659C66.8317 574.966 67.2916 575.273 67.7514 575.579C68.2113 575.886 68.7477 576.192 69.2076 576.499C71.2003 577.725 73.4229 579.105 75.8754 580.331C77.1017 580.944 78.3279 581.634 79.7075 582.324C81.0104 582.937 82.39 583.627 83.8462 584.24C89.5176 586.845 95.8023 589.375 102.623 591.751C116.189 596.426 128.758 599.798 137.725 602.48C139.948 603.17 142.017 603.783 143.78 604.32C145.543 604.856 147.075 605.316 148.302 605.776C149.528 606.159 150.524 606.466 151.214 606.696C151.521 606.772 151.751 606.849 151.981 606.926C152.134 607.002 152.21 607.002 152.21 607.002C152.21 607.002 152.134 606.926 151.981 606.926C151.827 606.849 151.521 606.772 151.214 606.619C150.524 606.389 149.605 606.006 148.378 605.623C147.152 605.163 145.619 604.703 143.857 604.09C142.094 603.477 140.024 602.864 137.802 602.174C128.835 599.338 116.342 595.966 102.777 591.291C96.0322 588.991 89.6709 586.386 83.9994 583.856C82.6199 583.167 81.2403 582.554 79.8608 581.94C78.5579 581.327 77.255 580.637 76.0287 579.948C73.5762 578.721 71.3536 577.342 69.3609 576.192C68.8244 575.886 68.3646 575.579 67.9047 575.349C67.4449 575.043 66.985 574.736 66.5251 574.43C65.6821 573.816 64.8391 573.28 64.0726 572.743C63.3062 572.207 62.5398 571.747 61.9266 571.287C61.3135 570.827 60.7004 570.368 60.1639 569.984C59.1676 569.218 58.3245 568.605 57.7114 568.145C57.4814 567.992 57.2515 567.838 57.0982 567.685C57.0216 567.455 56.945 567.455 56.8683 567.455Z" fill="#455A64"/>
<path d="M55.1032 575.195C55.1032 575.195 55.3331 575.349 55.8696 575.578C56.3295 575.808 57.0959 576.115 58.0156 576.422C59.855 577.111 62.3841 577.878 65.2965 578.491C68.2089 579.104 70.8913 579.411 72.8074 579.564C73.8037 579.64 74.5701 579.64 75.1066 579.64C75.6431 579.64 75.9497 579.64 75.9497 579.564C75.9497 579.487 74.7234 579.411 72.8074 579.181C70.8913 578.951 68.2855 578.567 65.3731 577.954C62.4607 577.341 59.9316 576.575 58.0922 575.962C56.2528 575.578 55.1032 575.119 55.1032 575.195Z" fill="#455A64"/>
<path d="M90.9721 534.883C90.8954 534.959 106.76 547.452 126.457 562.78C146.154 578.108 162.172 590.371 162.249 590.294C162.325 590.218 146.461 577.725 126.764 562.397C107.067 547.069 91.0487 534.729 90.9721 534.883Z" fill="#455A64"/>
<path d="M33.7982 588.458C33.7982 588.458 33.7982 588.305 33.8748 587.921C33.8748 587.538 33.8748 587.002 33.9514 586.465C33.9514 585.162 34.0281 583.323 34.1047 581.024C34.3347 576.425 34.8712 570.141 36.1741 563.243C37.477 556.345 39.2398 550.214 40.6959 545.845C41.3857 543.699 42.0755 541.936 42.4587 540.71C42.6886 540.174 42.8419 539.714 42.9952 539.331C43.0718 539.024 43.1484 538.871 43.1484 538.794C43.1484 538.794 43.0718 538.947 42.9185 539.254C42.7652 539.637 42.5353 540.097 42.3054 540.634C41.7689 541.783 41.0792 543.546 40.3127 545.692C38.7799 550.06 36.9405 556.192 35.6376 563.089C34.3347 569.987 33.7982 576.348 33.7215 581.024C33.6449 583.323 33.6449 585.162 33.7215 586.465C33.7215 587.078 33.7982 587.538 33.7982 587.921C33.7216 588.305 33.7982 588.458 33.7982 588.458Z" fill="#455A64"/>
<path d="M95.1113 588.227C95.1113 588.227 95.0347 588.303 94.8814 588.38C94.7281 588.533 94.5748 588.687 94.3449 588.84C93.8084 589.223 93.1187 589.913 92.199 590.756C90.2829 592.289 87.3705 594.511 83.4618 596.657C79.5531 598.803 74.648 600.796 68.8999 602.099C68.2101 602.252 67.4437 602.405 66.754 602.559C65.9875 602.712 65.2978 602.865 64.5313 602.942C62.9985 603.095 61.4657 603.325 59.8562 603.402C56.6373 603.632 53.3417 603.478 49.9694 603.095C49.1264 602.942 48.2833 602.865 47.4403 602.712C46.5972 602.559 45.8308 602.405 44.9877 602.252C43.3783 601.946 41.7688 601.486 40.3126 601.026C37.2469 600.03 34.4112 598.803 31.882 597.347C26.747 594.435 22.9149 590.603 20.4624 586.924C18.0099 583.245 16.7836 579.796 16.2471 577.344C15.9406 576.117 15.8639 575.198 15.7873 574.508C15.7873 574.201 15.7106 573.971 15.7106 573.741C15.7106 573.588 15.634 573.512 15.634 573.512C15.634 573.512 15.634 573.588 15.634 573.741C15.634 573.971 15.634 574.201 15.634 574.508C15.7106 575.198 15.7873 576.117 16.0172 577.344C16.5537 579.796 17.6267 583.322 20.0792 587.077C22.5317 590.833 26.3638 594.741 31.5755 597.73C34.1046 599.186 37.017 600.489 40.0826 601.486C41.6155 601.946 43.225 602.405 44.8344 602.789C45.6775 602.942 46.4439 603.095 47.287 603.325C48.13 603.478 48.9731 603.555 49.8161 603.708C53.1884 604.092 56.5606 604.245 59.7795 604.015C61.389 603.938 62.9219 603.708 64.5313 603.555C65.2978 603.402 66.0642 603.248 66.8306 603.172C67.597 603.019 68.2868 602.942 69.0532 602.712C74.8013 601.332 79.783 599.263 83.6917 597.117C87.6005 594.895 90.4362 592.672 92.3522 591.062C93.2719 590.219 93.9617 589.53 94.4216 589.07C94.6515 588.84 94.8048 588.687 94.9581 588.533C95.0347 588.303 95.1113 588.227 95.1113 588.227Z" fill="#455A64"/>
<path d="M83.6903 593.132C87.9056 590.909 92.5807 592.212 96.5661 593.591C99.2485 594.511 102.008 595.891 104.69 595.124C106.683 594.588 108.139 592.978 109.595 591.599C115.65 586.004 123.927 583.015 132.204 583.475C134.504 583.628 136.803 584.548 138.412 586.31C142.551 590.756 139.409 596.58 135.73 600.336C129.215 606.927 120.402 611.219 111.205 612.215C103.54 612.982 93.0406 611.985 85.2231 608.613C80.3947 606.544 77.9422 600.872 80.4713 596.35C81.2378 594.971 82.3108 593.898 83.6903 593.132Z" fill="#455A64"/>
<g opacity="0.4">
<g opacity="0.4">
<g opacity="0.4">
<path opacity="0.4" d="M83.6899 596.656C87.9052 594.434 92.5804 595.737 96.5657 597.116C99.2482 598.036 102.007 599.416 104.69 598.649C106.682 598.113 108.139 596.503 109.595 595.124C115.649 589.529 123.927 586.54 132.204 587C134.503 587.153 136.803 588.073 138.412 589.835C139.332 590.832 139.868 591.905 140.175 592.978C139.562 595.66 137.799 598.266 135.806 600.259C129.292 606.85 120.478 611.142 111.281 612.138C103.617 612.904 93.1169 611.908 85.2994 608.536C82.387 607.31 80.3944 604.78 79.7812 601.945C79.9345 601.255 80.1644 600.489 80.5477 599.799C81.2374 598.572 82.3104 597.423 83.6899 596.656Z" fill="black"/>
</g>
</g>
</g>
<path d="M79.7051 602.023C79.7818 602.023 79.7817 601.027 80.7014 599.57C81.1613 598.881 81.9277 598.037 82.9241 597.348C83.9204 596.658 85.2233 596.045 86.7561 595.892C89.8985 595.508 93.5006 596.811 97.486 597.884C99.4786 598.421 101.625 599.187 104.001 598.881C105.15 598.727 106.3 598.344 107.373 597.731C108.369 597.118 109.365 596.351 110.285 595.585C113.734 592.213 117.796 590.143 121.781 588.764C123.774 588.074 125.69 587.691 127.453 587.461C129.292 587.231 130.978 587.154 132.511 587.461C134.044 587.691 135.347 588.227 136.42 588.84C137.493 589.454 138.259 590.22 138.796 590.91C139.945 592.289 140.252 593.209 140.329 593.132C140.329 593.132 140.022 592.213 138.949 590.757C138.413 590.067 137.646 589.3 136.573 588.611C135.5 587.921 134.121 587.384 132.588 587.154C130.978 586.848 129.216 586.924 127.376 587.078C125.537 587.308 123.544 587.691 121.551 588.381C119.559 588.994 117.566 589.913 115.573 591.063C114.577 591.6 113.581 592.213 112.661 592.979C111.741 593.746 110.822 594.512 109.979 595.278C109.059 596.045 108.139 596.811 107.219 597.424C106.223 598.037 105.15 598.344 104.077 598.497C101.855 598.804 99.7852 598.037 97.7925 597.501C93.8072 596.428 90.1284 595.125 86.9094 595.585C83.6905 596.121 81.6211 598.037 80.7014 599.494C80.2416 600.26 80.0117 600.95 79.935 601.41C79.7051 601.716 79.7051 602.023 79.7051 602.023Z" fill="#263238"/>
<path d="M79.7051 602.023C79.7818 602.023 79.7817 601.027 80.7014 599.57C81.1613 598.881 81.9277 598.037 82.9241 597.348C83.9204 596.658 85.2233 596.045 86.7561 595.892C89.8985 595.508 93.5006 596.811 97.486 597.884C99.4786 598.421 101.625 599.187 104.001 598.881C105.15 598.727 106.3 598.344 107.373 597.731C108.369 597.118 109.365 596.351 110.285 595.585C113.734 592.213 117.796 590.143 121.781 588.764C123.774 588.074 125.69 587.691 127.453 587.461C129.292 587.231 130.978 587.154 132.511 587.461C134.044 587.691 135.347 588.227 136.42 588.84C137.493 589.454 138.259 590.22 138.796 590.91C139.945 592.289 140.252 593.209 140.329 593.132C140.329 593.132 140.022 592.213 138.949 590.757C138.413 590.067 137.646 589.3 136.573 588.611C135.5 587.921 134.121 587.384 132.588 587.154C130.978 586.848 129.216 586.924 127.376 587.078C125.537 587.308 123.544 587.691 121.551 588.381C119.559 588.994 117.566 589.913 115.573 591.063C114.577 591.6 113.581 592.213 112.661 592.979C111.741 593.746 110.822 594.512 109.979 595.278C109.059 596.045 108.139 596.811 107.219 597.424C106.223 598.037 105.15 598.344 104.077 598.497C101.855 598.804 99.7852 598.037 97.7925 597.501C93.8072 596.428 90.1284 595.125 86.9094 595.585C83.6905 596.121 81.6211 598.037 80.7014 599.494C80.2416 600.26 80.0117 600.95 79.935 601.41C79.7051 601.716 79.7051 602.023 79.7051 602.023Z" fill="#263238"/>
<path d="M131.667 600.948C131.743 600.871 130.9 600.335 129.521 599.492C128.141 598.649 126.225 597.576 124.002 596.503C121.78 595.43 119.71 594.663 118.178 594.127C116.645 593.59 115.725 593.36 115.648 593.437C115.648 593.514 116.568 593.897 118.024 594.51C119.481 595.123 121.55 595.966 123.772 597.039C125.995 598.112 127.911 599.109 129.367 599.875C130.747 600.565 131.667 601.025 131.667 600.948Z" fill="#263238"/>
<path d="M130.212 605.164C130.288 605.011 126.61 603.095 122.011 600.872C117.413 598.65 113.657 596.964 113.58 597.117C113.504 597.27 117.183 599.186 121.781 601.409C126.38 603.631 130.212 605.318 130.212 605.164Z" fill="#263238"/>
<path d="M112.892 607.005C112.969 607.158 117.414 604.475 122.856 601.027C128.297 597.578 132.589 594.742 132.513 594.589C132.436 594.435 127.991 597.118 122.549 600.567C117.108 604.016 112.816 606.851 112.892 607.005Z" fill="#263238"/>
<path d="M110.361 602.634C110.438 602.711 111.205 602.098 112.584 601.178C113.887 600.258 115.726 598.955 117.719 597.499C119.712 596.12 121.628 594.893 122.931 593.974C124.31 593.054 125.077 592.517 125.077 592.441C125.077 592.364 124.157 592.824 122.701 593.667C121.321 594.51 119.405 595.66 117.336 597.116C115.267 598.496 113.504 599.875 112.278 600.948C111.051 601.868 110.361 602.558 110.361 602.634Z" fill="#263238"/>
<path d="M78.3242 430.343C78.4008 430.343 77.941 429.577 78.1709 428.197C78.3242 427.507 78.5541 426.741 79.1672 425.898C79.7037 425.131 80.5468 424.288 81.4665 423.445C82.3862 422.602 83.3825 421.606 84.2256 420.226C84.992 418.923 85.6051 417.391 85.835 415.628C86.065 413.942 85.9117 412.102 85.2986 410.263C84.7621 408.5 83.8424 406.814 82.9227 405.128C82.003 403.442 81.1599 401.756 80.7 400.07C80.2402 398.384 80.1636 396.697 80.6234 395.088C81.4665 391.946 83.3059 389.493 84.3022 387.117C85.3752 384.741 85.4518 382.519 85.0686 381.139C84.9153 380.449 84.6854 379.913 84.4555 379.606C84.2256 379.3 84.1489 379.146 84.0723 379.146C83.9956 379.223 84.4555 379.836 84.6854 381.216C84.9153 382.595 84.7621 384.588 83.6891 386.887C82.6927 389.187 80.7767 391.562 79.857 394.935C79.3972 396.621 79.3971 398.537 79.9336 400.3C80.3935 402.139 81.2365 403.825 82.1562 405.511C83.0759 407.197 83.919 408.883 84.5321 410.493C85.0686 412.179 85.2985 413.865 85.0686 415.475C84.8387 417.084 84.3789 418.54 83.6124 419.767C82.9227 420.993 82.003 421.989 81.0833 422.909C80.1636 423.829 79.3971 424.595 78.784 425.515C78.2475 426.358 77.941 427.277 77.8643 427.967C77.7877 428.734 77.941 429.27 78.0943 429.653C78.1709 430.19 78.3242 430.343 78.3242 430.343Z" fill="#263238"/>
<path d="M34.6411 415.17C33.5681 417.929 30.6558 419.691 27.6667 419.768C24.7544 419.768 21.9186 418.082 20.2325 415.629C18.623 413.177 18.0865 410.035 18.623 407.199C18.8529 405.896 19.3128 404.593 19.1595 403.29C18.9296 401.451 17.55 399.841 17.0902 398.002C16.2471 394.706 18.623 391.257 21.7653 389.878C24.9076 388.575 28.5098 388.958 31.8054 389.878" fill="#263238"/>
<path d="M82.386 377.08C85.3751 380.146 84.2254 384.131 82.8459 386.813C81.4663 389.496 79.7802 392.255 79.7036 395.321C79.7036 398.463 81.3897 401.299 82.2328 404.288C83.3058 408.043 82.9992 412.182 81.3131 415.784C80.0868 418.466 78.0941 420.766 76.8678 423.448C75.6416 426.13 75.1817 429.503 76.8678 431.879C75.2584 431.649 73.8788 430.346 73.1124 428.89C72.346 427.433 72.1927 425.747 72.2693 424.061C72.4226 417.777 75.4117 411.722 74.6453 405.514C74.1854 401.912 72.4993 398.386 72.7292 394.784C72.9591 391.105 75.1051 387.963 76.6379 384.591C78.1707 381.295 79.0904 377.156 77.0211 374.091" fill="#263238"/>
<path d="M74.9519 365.199C78.6307 365.659 82.3095 367.575 84.0723 370.871C85.8351 374.166 85.2219 378.765 82.1563 380.911C79.2439 382.903 75.1819 382.29 72.1929 380.374C70.0469 378.995 68.2075 376.925 67.3644 374.473C66.598 372.02 66.9046 369.108 68.5141 367.115C70.1235 365.046 73.0359 364.049 75.4884 364.969" fill="#263238"/>
<path d="M77.9424 364.815C76.3329 360.293 72.3475 356.921 67.8257 355.311C63.3038 353.702 58.3221 353.702 53.647 354.621C48.9719 355.541 44.45 357.227 39.9282 358.913C36.6326 360.14 33.337 361.443 30.6545 363.665C28.0487 365.888 26.2093 368.953 25.0597 372.249C22.8371 378.304 22.7605 382.749 25.3663 388.727C26.5159 391.333 25.5962 394.168 26.5925 396.851C27.5889 399.457 32.3406 402.599 30.8844 404.975" fill="#263238"/>
<path d="M33.333 430.34L35.249 372.629C35.3257 370.023 37.395 367.954 40.0008 367.801L66.7488 362.589C75.256 362.129 80.3143 372.859 80.391 381.366C80.4676 390.793 80.2377 402.366 78.7048 409.341C75.7158 423.366 64.7561 424.592 64.7561 424.592C64.7561 424.592 64.4495 430.034 64.1429 435.015L64.6028 456.705L33.333 430.34Z" fill="#FFBE9D"/>
<path d="M76.71 391.56C76.71 392.556 75.8669 393.323 74.8705 393.323C73.8742 393.323 73.1078 392.556 73.1078 391.56C73.1078 390.564 73.9508 389.797 74.9472 389.797C75.9435 389.797 76.71 390.64 76.71 391.56Z" fill="#263238"/>
<path d="M77.5521 386.349C77.3222 386.579 76.0193 385.506 74.0266 385.353C72.1106 385.199 70.5778 386.119 70.4245 385.889C70.3478 385.812 70.5778 385.353 71.1909 384.969C71.804 384.586 72.877 384.203 74.1033 384.203C75.3295 384.28 76.3258 384.816 76.8623 385.276C77.5521 385.812 77.7054 386.272 77.5521 386.349Z" fill="#263238"/>
<path d="M58.6265 391.251C58.6265 392.248 57.7835 393.014 56.7871 393.014C55.7908 393.014 55.0243 392.248 55.0243 391.251C55.0243 390.255 55.8674 389.488 56.8638 389.488C57.8601 389.565 58.7031 390.331 58.6265 391.251Z" fill="#263238"/>
<path d="M58.3188 386.582C58.0888 386.812 56.7859 385.739 54.7932 385.586C52.8772 385.432 51.3443 386.352 51.1911 386.122C51.1144 386.046 51.3443 385.586 51.9575 385.203C52.5706 384.819 53.6436 384.436 54.8699 384.436C56.0962 384.513 57.0925 385.049 57.629 385.509C58.2421 386.046 58.472 386.505 58.3188 386.582Z" fill="#263238"/>
<path d="M64.6064 401.45C64.6064 401.373 65.8326 401.22 67.8253 401.066C68.3618 401.066 68.8217 400.99 68.8983 400.606C69.0516 400.223 68.8217 399.687 68.6684 399.074C68.2852 397.847 67.8253 396.544 67.3655 395.165C65.6027 389.647 64.3764 385.125 64.6064 385.048C64.8363 384.972 66.4458 389.417 68.2085 394.935C68.5917 396.315 69.0516 397.617 69.4348 398.844C69.5881 399.457 69.8946 400.07 69.5881 400.836C69.4348 401.22 69.0516 401.45 68.745 401.526C68.4385 401.603 68.1319 401.603 67.902 401.603C65.8327 401.603 64.6064 401.526 64.6064 401.45Z" fill="#263238"/>
<path d="M64.7588 424.596C64.7588 424.596 55.1786 424.673 46.1349 418.541C46.1349 418.541 50.3502 428.505 64.6055 427.968L64.7588 424.596Z" fill="#EB996E"/>
<path d="M59.5426 380.911C59.3127 381.448 57.3967 381.065 55.0974 381.218C52.7982 381.295 50.8821 381.908 50.6522 381.371C50.4989 381.141 50.8821 380.681 51.6485 380.145C52.415 379.685 53.6412 379.225 55.0207 379.149C56.4003 379.072 57.6266 379.379 58.4696 379.762C59.236 380.222 59.6193 380.681 59.5426 380.911Z" fill="#263238"/>
<path d="M77.1002 381.594C76.717 382.054 75.4141 381.517 73.8046 381.364C72.1951 381.211 70.8156 381.517 70.509 381.058C70.3558 380.828 70.5857 380.368 71.2754 379.985C71.8886 379.601 72.885 379.295 74.0346 379.372C75.1076 379.448 76.1039 379.908 76.6404 380.368C77.1002 380.904 77.2535 381.364 77.1002 381.594Z" fill="#263238"/>
<path d="M63.5294 405.894C62.9163 404.974 61.7667 404.438 60.6937 404.514C59.9273 404.591 59.0842 404.897 58.5477 405.511C58.0112 406.124 57.858 407.043 58.3178 407.657C58.7777 408.346 59.774 408.576 60.6937 408.423C61.6134 408.193 62.3798 407.657 63.0696 407.197C63.2995 407.043 63.4528 406.89 63.6061 406.66C63.7593 406.43 63.7594 406.124 63.5294 405.894Z" fill="#EB996E"/>
<path d="M59.1679 402.517C59.4744 402.517 59.3978 404.51 61.0073 405.966C62.6168 407.499 64.7627 407.346 64.7627 407.652C64.7627 407.806 64.3029 408.035 63.3832 407.959C62.5401 407.959 61.2372 407.576 60.2409 406.656C59.2445 405.736 58.8613 404.587 58.8613 403.744C58.7846 402.977 59.0146 402.517 59.1679 402.517Z" fill="#263238"/>
<path d="M78.1724 368.648C77.2527 373.093 70.125 373.4 65.7565 372.327C62.6142 376.006 57.5558 377.845 52.8041 377.079C52.1909 377.002 51.5012 376.849 50.888 377.079C50.1982 377.309 49.815 377.922 49.3552 378.458C47.3625 380.834 44.4501 382.444 41.3844 382.827C40.5414 387.272 36.7093 390.951 32.2641 391.641C32.2641 391.641 30.8845 390.874 31.651 385.126C32.494 379.455 32.5707 367.498 32.5707 367.498L48.4355 361.367L67.136 358.991C67.136 358.915 79.7819 361.137 78.1724 368.648Z" fill="#263238"/>
<path d="M25.6728 389.34C25.8261 389.34 25.6728 387.807 26.8225 385.431C27.4356 384.282 28.3553 382.979 29.8115 381.906C31.2677 380.833 33.1837 379.99 35.4063 379.913H35.6362L35.7129 379.683C36.4027 377.461 37.6289 375.085 39.7749 373.399C41.8442 371.789 45.0632 371.1 47.5924 372.556L47.9756 372.786L48.1288 372.326C48.2055 372.173 48.2821 372.019 48.3588 371.789C50.0449 367.804 54.1835 365.428 57.8623 365.275C58.782 365.275 59.7017 365.351 60.6214 365.505C61.5411 365.658 62.4608 365.811 63.4571 365.505C64.3768 365.198 65.0666 364.585 65.6031 364.048C66.1396 363.435 66.6761 362.976 67.2892 362.592C69.6651 361.059 72.2709 361.289 73.7271 361.749C75.26 362.209 75.9497 362.899 76.0264 362.822C76.0264 362.822 75.8731 362.669 75.5665 362.362C75.1833 362.132 74.6468 361.749 73.8804 361.443C72.3476 360.906 69.6651 360.523 66.9827 362.132C65.6031 362.899 64.76 364.508 63.2272 364.892C61.6944 365.275 59.855 364.432 57.8623 364.508C53.8769 364.662 49.5084 367.191 47.5924 371.483C47.5157 371.636 47.439 371.866 47.3624 372.019L47.9756 371.789C45.0632 370.103 41.461 370.946 39.2384 372.786C36.9392 374.625 35.7129 377.154 35.0231 379.53L35.3297 379.3C32.9538 379.453 30.8845 380.373 29.4283 381.523C27.8955 382.672 26.9757 384.129 26.4393 385.355C25.9028 386.581 25.6729 387.654 25.5962 388.344C25.5962 388.957 25.5962 389.34 25.6728 389.34Z" fill="#455A64"/>
<path d="M50.8892 375.776C50.8892 375.852 51.2724 376.006 52.0388 376.236C52.8052 376.466 53.9548 376.619 55.411 376.619C58.2468 376.619 62.3854 375.393 65.3744 371.944L64.838 372.02C64.9913 372.097 65.1445 372.174 65.2978 372.25C67.3671 373.247 69.6664 373.477 71.5824 373.17C73.5751 372.863 75.1846 372.02 76.3342 371.101C77.4838 370.181 78.2503 369.185 78.6335 368.495C79.0167 367.805 79.1699 367.345 79.1699 367.345C79.0166 367.269 78.3269 368.955 76.0276 370.641C74.878 371.484 73.3452 372.174 71.5058 372.48C69.6664 372.71 67.5971 372.48 65.681 371.561C65.5277 371.484 65.3745 371.407 65.2978 371.331L64.9912 371.177L64.7613 371.407C62.0022 374.626 58.0935 375.852 55.411 376.006C52.6519 376.236 50.9658 375.623 50.8892 375.776Z" fill="#455A64"/>
<path d="M59.3202 367.879C59.3202 368.109 61.3895 368.032 63.7654 368.799C66.1413 369.488 67.8274 370.638 67.9807 370.408C68.1339 370.255 66.5245 368.722 63.9953 367.956C61.4661 367.189 59.3202 367.649 59.3202 367.879Z" fill="#455A64"/>
<path d="M64.7616 367.73C64.9149 367.883 65.6813 367.346 66.6777 366.733C67.5974 366.12 68.4404 365.66 68.3638 365.43C68.2872 365.2 67.2908 365.354 66.2178 366.043C65.1449 366.657 64.5317 367.576 64.7616 367.73Z" fill="#455A64"/>
<path d="M42.3043 374.702C42.381 374.931 44.2204 374.472 46.443 374.625C48.6656 374.778 50.4283 375.545 50.505 375.315C50.6583 375.161 48.9721 373.935 46.5196 373.782C44.0671 373.629 42.2277 374.472 42.3043 374.702Z" fill="#455A64"/>
<path d="M37.9344 382.059C37.9344 382.289 40.6168 382.519 43.6825 381.6C46.8248 380.68 48.9708 379.07 48.8175 378.917C48.6642 378.687 46.4416 379.99 43.4526 380.833C40.5402 381.676 37.9344 381.753 37.9344 382.059Z" fill="#455A64"/>
<path d="M27.9725 386.886C28.1258 387.039 29.5053 385.66 31.8045 385.047C34.0272 384.357 35.9432 384.817 36.0198 384.587C36.0965 384.357 34.1038 383.514 31.5746 384.28C29.0455 384.97 27.8192 386.81 27.9725 386.886Z" fill="#455A64"/>
<path d="M29.4267 366.578C29.5034 366.578 29.6567 366.118 30.1931 365.429C30.7296 364.739 31.7259 363.819 33.1821 363.129C36.0945 361.75 40.6931 360.83 45.6748 361.06C50.6565 361.29 55.1017 362.516 58.3206 363.436C61.4629 364.432 63.3789 365.122 63.4556 365.045C63.4556 364.969 62.9958 364.739 62.1527 364.356C61.3096 363.972 60.0833 363.436 58.4739 362.899C55.3316 361.75 50.8864 360.447 45.6748 360.217C40.5398 359.987 35.8646 360.983 32.8756 362.593C31.3428 363.436 30.3464 364.432 29.8866 365.275C29.4267 366.042 29.3501 366.578 29.4267 366.578Z" fill="#455A64"/>
<path d="M27.8176 374.242C27.9709 374.318 28.4308 372.556 30.1935 370.41C31.9563 368.264 35.2519 365.965 39.4672 364.968C43.6824 364.048 47.5912 364.432 50.4269 364.738C53.2626 365.121 54.9487 365.428 55.0254 365.351C55.0254 365.275 53.3393 364.738 50.5036 364.202C47.6678 363.742 43.6058 363.205 39.3139 364.202C34.9453 365.198 31.4965 367.727 29.8103 370.103C28.9673 371.253 28.4308 372.326 28.1242 373.092C27.8943 373.782 27.8176 374.165 27.8176 374.242Z" fill="#455A64"/>
<path d="M80.4725 383.134C80.4725 383.211 81.7754 382.828 83.2316 381.295C84.6112 379.839 85.9907 377.003 85.3776 373.784C84.6878 370.565 82.2353 368.496 80.3959 367.729C78.4799 366.886 77.1769 367.116 77.1769 367.193C77.1769 367.346 78.4032 367.346 80.166 368.266C81.8521 369.109 83.9981 371.101 84.6112 373.937C85.2243 376.773 84.0747 379.455 82.8484 380.912C81.5455 382.444 80.3959 382.981 80.4725 383.134Z" fill="#455A64"/>
<path d="M21.5335 402.063C21.6101 401.909 20.1539 401.143 18.1613 399.687C17.1649 398.92 16.0919 397.847 15.3255 396.391C14.5591 395.012 14.3292 393.096 15.0956 391.409C15.7854 389.723 17.2416 388.42 18.6978 387.884C20.2306 387.347 21.7634 387.347 22.913 387.577C25.3656 388.114 26.5918 389.34 26.6685 389.187C26.6685 389.187 26.4385 388.804 25.902 388.344C25.2889 387.884 24.3692 387.347 23.0663 386.964C21.7634 386.581 20.1539 386.504 18.3912 387.118C16.7051 387.731 15.0956 389.11 14.2526 391.026C13.3329 392.942 13.716 395.165 14.5591 396.698C15.4022 398.231 16.7051 399.304 17.7014 400.07C18.7744 400.836 19.6941 401.296 20.3839 401.603C21.1503 401.986 21.5335 402.063 21.5335 402.063Z" fill="#263238"/>
<path d="M20.8461 402.14C20.7695 402.14 20.5395 402.524 20.1563 403.367C19.7731 404.21 19.3133 405.359 18.8535 406.892C18.3936 408.425 17.9338 410.341 17.9338 412.487C17.9338 414.633 18.3936 417.086 19.8498 419.155C21.306 421.224 23.5286 422.604 25.6745 422.834C27.8971 423.14 29.8898 422.221 31.0394 420.994C32.1891 419.768 32.6489 418.465 32.7256 417.545C32.8022 416.626 32.5723 416.166 32.5723 416.166C32.4956 416.166 32.5723 416.702 32.419 417.545C32.2657 418.388 31.8059 419.538 30.6562 420.611C29.5833 421.684 27.8205 422.45 25.8278 422.067C23.9118 421.761 21.8424 420.534 20.5395 418.618C19.2366 416.702 18.7768 414.403 18.7002 412.41C18.6235 410.341 19.0067 408.502 19.3899 407.045C20.233 403.98 20.9994 402.14 20.8461 402.14Z" fill="#263238"/>
<path d="M42.7623 375.7C44.5251 379.225 43.1456 383.441 41.3828 386.966C39.5434 390.492 37.2442 393.941 37.0909 397.849C36.861 404.44 42.6857 410.265 41.9193 416.78C41.4595 420.689 38.3171 424.061 34.4851 424.98C37.6274 422.911 37.8573 418.313 36.7077 414.787C35.4814 411.262 29.7333 401.835 28.8902 398.233C26.0545 385.97 27.2808 384.514 31.5727 380.222" fill="#263238"/>
<path d="M30.8825 384.439C30.8825 384.515 31.7255 384.745 33.1817 384.515C34.5613 384.286 36.554 383.596 38.1634 382.14C39.7729 380.607 40.616 378.767 40.9226 377.388C41.2291 376.008 41.0758 375.089 40.9992 375.089C40.8459 375.089 40.7693 375.932 40.3094 377.235C39.8496 378.461 39.0065 380.147 37.5503 381.526C36.0941 382.906 34.3314 383.596 33.0285 383.979C31.8022 384.286 30.8825 384.286 30.8825 384.439Z" fill="#455A64"/>
<path d="M36.021 420.994C36.021 420.994 36.1743 420.918 36.4809 420.688C36.7108 420.458 37.094 420.151 37.4772 419.615C38.2436 418.618 39.1634 416.779 39.1634 414.403C39.1634 413.253 38.8568 411.951 38.2436 410.648C37.5539 409.421 36.5575 408.348 35.4845 407.275C34.4115 406.202 33.4152 405.053 32.8021 403.597C32.1889 402.14 31.8824 400.531 31.959 398.845C32.0357 397.159 32.4955 395.626 33.3386 394.246C34.105 392.867 35.1014 391.641 36.0977 390.491C38.0904 388.192 39.6232 385.892 40.5429 383.746C41.4626 381.601 41.8458 379.761 41.8458 378.458C41.9225 377.155 41.7692 376.466 41.6925 376.466C41.5392 376.466 41.9225 379.378 39.9298 383.44C38.9334 385.433 37.4006 387.655 35.4079 389.878C34.4116 391.027 33.4152 392.254 32.5722 393.71C31.7291 395.166 31.1926 396.929 31.116 398.692C31.0393 400.531 31.3459 402.294 32.1123 403.827C32.8021 405.359 33.8751 406.662 34.9481 407.735C36.0211 408.808 37.0174 409.805 37.6305 410.954C38.2437 412.027 38.5502 413.253 38.6269 414.326C38.7035 416.549 37.9371 418.235 37.3239 419.308C36.5575 420.458 35.9444 420.918 36.021 420.994Z" fill="#455A64"/>
<path d="M29.5052 383.976C29.5052 383.976 29.122 384.206 28.5855 384.743C28.049 385.279 27.4359 386.199 26.8228 387.425C25.6731 389.878 25.1367 393.863 26.3629 397.925C27.5892 401.91 29.9651 404.976 31.6512 407.045C33.4139 409.115 34.6402 410.188 34.7168 410.111C34.7935 410.034 33.7205 408.731 32.1111 406.662C30.5016 404.593 28.3556 401.527 27.1294 397.695C25.9797 393.863 26.363 390.108 27.2827 387.732C28.3556 385.202 29.5819 384.053 29.5052 383.976Z" fill="#455A64"/>
<path d="M88.2868 488.974L96.1809 474.335C96.7174 473.339 97.7138 472.726 98.7868 472.726H155.118C156.268 472.726 157.264 473.339 157.801 474.335L101.929 511.89L77.2504 514.725C76.714 513.729 76.714 512.503 77.1738 511.506L88.2868 488.974Z" fill="#263238"/>
<g opacity="0.3">
<g opacity="0.3">
<g opacity="0.3">
<path opacity="0.3" d="M28.6594 522.391C38.5462 518.099 49.9658 517.486 59.2394 511.968C62.7649 509.898 65.9839 507.139 69.586 505.147C73.1882 503.154 77.6334 502.081 81.4655 503.614C85.2976 505.147 88.2099 510.895 86.2173 514.497C85.4508 516.413 81.8487 518.252 79.7794 518.022C77.7101 517.869 75.794 517.026 73.7247 516.72C69.2795 516.183 65.0642 518.329 61.0788 520.322C52.495 524.614 43.6046 528.292 34.5609 531.358C32.4149 532.048 30.1923 532.738 27.9697 532.431C25.747 532.125 23.6011 530.438 23.4478 528.216C23.2945 525.533 26.1303 523.541 28.6594 522.391Z" fill="black"/>
</g>
</g>
</g>
<path d="M77.2515 514.801L97.025 476.097C97.5615 475.101 98.6345 474.411 99.7841 474.411H158.108L136.342 513.575L77.2515 514.801Z" fill="#455A64"/>
<path d="M123.007 488.36C122.164 489.05 121.014 488.897 120.325 488.054C119.635 487.211 119.788 486.061 120.631 485.371C121.474 484.682 122.624 484.835 123.314 485.678C123.927 486.521 123.773 487.671 123.007 488.36Z" fill="#EBEBEB"/>
<path d="M71.6569 494.647L77.5584 490.125C79.9342 487.136 83.613 485.373 87.4451 485.373H90.6641L92.81 487.826C92.81 487.826 108.445 488.516 109.058 490.432V491.045V491.428L95.6458 492.348C95.6458 492.348 107.065 492.348 107.678 492.348C108.445 492.348 110.821 492.194 110.821 493.497C110.744 494.57 109.518 495.49 107.525 495.72C106.682 495.873 96.872 496.716 96.872 496.716C96.872 496.716 107.219 496.64 107.755 496.64C108.981 496.64 108.828 498.556 108.062 498.862C107.525 499.092 93.5764 503.077 93.5764 503.077C93.5764 503.077 95.9523 504.61 97.7917 504.534C99.7078 504.38 103.003 501.928 103.693 503.077C104.383 504.227 104.23 504.917 103.846 505.223C103.463 505.53 98.9414 507.829 97.4085 508.212C95.8757 508.596 83.6897 510.588 83.6897 510.588L73.4964 509.285L71.6569 494.647Z" fill="#FFBE9D"/>
<path d="M98.1006 487.977C98.1006 487.9 95.6481 487.824 92.5824 487.747C89.5167 487.747 87.0642 487.824 87.0642 487.9C87.0642 487.977 89.5167 488.054 92.5824 488.13C95.6481 488.13 98.1006 488.13 98.1006 487.977Z" fill="#EB996E"/>
<path d="M71.6575 494.646L28.5849 502.847L24.293 448.661C24.293 448.661 12.6435 438.851 6.51217 445.519C0.380844 452.187 -0.0789871 460.081 0.304222 463.99C0.687431 467.898 4.59612 514.19 7.89171 522.084C12.4136 533.044 24.0631 532.431 27.2821 531.664C30.501 530.898 76.8691 508.978 76.8691 508.978L71.6575 494.646Z" fill="#FFBE9D"/>
<path d="M25.8263 448.356C27.3592 460.619 30.3482 479.319 30.5015 491.659C30.5015 492.195 0.841208 494.648 0.841208 494.648C0.841208 494.648 -0.691652 466.75 0.38133 458.243C1.68424 448.586 8.88857 441.995 8.88857 441.995H18.1622L25.8263 448.356Z" fill="#6A94D2"/>
<path d="M0.841713 494.647C0.841713 494.647 1.07163 494.647 1.45484 494.647C1.91469 494.647 2.45119 494.57 3.14096 494.493C4.67379 494.34 6.81975 494.187 9.5022 493.957C14.8671 493.42 22.3013 492.731 30.502 491.888H30.7319V491.658C30.7319 491.275 30.6553 490.891 30.6553 490.431C30.0421 481.924 29.5056 474.183 29.1224 468.589C28.8925 465.83 28.7392 463.607 28.5859 461.997C28.5093 461.231 28.4327 460.618 28.4327 460.235C28.356 459.851 28.356 459.622 28.356 459.622C28.356 459.622 28.356 459.851 28.356 460.235C28.356 460.695 28.4327 461.308 28.4327 462.074C28.5093 463.684 28.6626 465.906 28.8159 468.742C29.1991 474.337 29.6589 482.078 30.2721 490.585C30.2721 490.968 30.3487 491.428 30.3487 491.811L30.502 491.581C22.3013 492.424 14.8671 493.191 9.5022 493.727C6.89639 494.034 4.75042 494.264 3.21758 494.417C2.52781 494.493 1.91467 494.57 1.53146 494.647C1.07161 494.57 0.841713 494.647 0.841713 494.647Z" fill="#263238"/>
<defs>
<clipPath id="clip0_145_217">
<rect width="68" height="110" fill="white" transform="translate(166 326)"/>
</clipPath>
<clipPath id="clip1_145_217">
<rect width="62" height="62" fill="white" transform="translate(98)"/>
</clipPath>
<clipPath id="clip2_145_217">
<rect width="179" height="28" fill="white" transform="matrix(1 0 0 -1 95 158)"/>
</clipPath>
<clipPath id="clip3_145_217">
<rect width="179" height="28" fill="white" transform="matrix(1 0 0 -1 27 111)"/>
</clipPath>
</defs>
</svg>
