<svg width="26" height="33" viewBox="0 0 26 33" fill="none" xmlns="http://www.w3.org/2000/svg">
<path fill-rule="evenodd" clip-rule="evenodd" d="M6.73525 7.22101C6.58166 4.96623 7.23861 3.06083 8.91805 1.57923C10.115 0.523671 11.5251 -0.00601871 13.1239 5.15853e-05C15.0417 0.00724601 16.6441 0.738716 17.9191 2.16771C19.1895 3.59164 19.647 5.29447 19.5099 7.21707C20.0677 7.21707 20.5862 7.21145 21.1045 7.21887C21.515 7.22483 21.9349 7.1947 22.3335 7.27058C23.8932 7.5678 24.8911 8.7641 24.9736 10.4325C25.1028 13.0379 25.2063 15.6447 25.3285 18.2505C25.4723 21.3128 25.6337 24.3743 25.7656 27.4371C25.7975 28.1786 25.8464 28.9435 25.7086 29.663C25.4314 31.1126 24.1282 32.1113 22.6591 32.1122C16.3019 32.1164 9.94458 32.1177 3.58744 32.1118C1.75945 32.1101 0.325686 30.5426 0.417774 28.7057C0.554227 25.989 0.668949 23.2713 0.797783 20.5542C0.943198 17.4808 1.09097 14.4075 1.24501 11.3345C1.27346 10.7684 1.27368 10.1901 1.39602 9.64171C1.70813 8.24048 2.94797 7.25619 4.37602 7.22393C5.14107 7.20673 5.90668 7.22101 6.73525 7.22101ZM13.1256 29.9759C14.8588 29.9759 16.5918 29.9759 18.325 29.9759C19.7249 29.9759 21.1247 29.9795 22.5245 29.9742C23.2505 29.9715 23.6799 29.5241 23.6696 28.7981C23.6659 28.5418 23.6601 28.2854 23.648 28.0293C23.5009 24.9683 23.3506 21.9074 23.2048 18.8463C23.071 16.0412 22.943 13.2359 22.8083 10.4307C22.7737 9.70882 22.3534 9.32583 21.6231 9.32785C17.5234 9.33909 13.4241 9.35045 9.32482 9.36011C7.74711 9.36382 6.16962 9.36068 4.59201 9.3654C3.9475 9.36742 3.47899 9.75749 3.44673 10.3356C3.37391 11.6375 3.31274 12.9399 3.25169 14.2422C3.15299 16.3462 3.05966 18.4504 2.96175 20.5544C2.83561 23.2594 2.72369 25.9653 2.5711 28.6688C2.51878 29.597 3.16206 29.9906 3.86012 29.9853C6.94833 29.9632 10.0371 29.9759 13.1256 29.9759ZM17.3565 7.20797C17.623 5.39655 16.7965 3.63009 15.2811 2.73281C13.7927 1.85149 11.8815 1.97279 10.5258 3.03093C9.22826 4.04366 8.66172 5.62654 8.91054 7.20797C11.7181 7.20797 14.5269 7.20797 17.3565 7.20797Z" fill="black" fill-opacity="0.8"/>
</svg>
