<svg width="19" height="19" viewBox="0 0 19 19" fill="none" xmlns="http://www.w3.org/2000/svg">
<path fill-rule="evenodd" clip-rule="evenodd" d="M9.11987 16.46C9.02135 16.46 8.93665 16.46 8.85209 16.46C6.23332 16.46 3.61455 16.4608 0.995784 16.4595C0.358701 16.4592 -0.0620766 16.0116 0.00750637 15.416C0.058838 14.9771 0.433417 14.6332 0.877864 14.6269C1.27012 14.6215 1.66267 14.6255 2.05521 14.6255C4.32436 14.6255 6.59351 14.6255 8.86265 14.6255C8.94664 14.6255 9.03062 14.6255 9.12344 14.6255C9.15567 13.9696 9.4233 13.4581 9.95487 13.0972C10.2706 12.8829 10.6263 12.7912 11.0053 12.79C11.5835 12.7881 12.1613 12.7861 12.7393 12.7904C13.7735 12.7981 14.5376 13.5162 14.6139 14.5457C14.6154 14.5658 14.6228 14.5853 14.632 14.6256C14.7075 14.6256 14.784 14.6256 14.8609 14.6256C15.6815 14.6256 16.5021 14.6246 17.3228 14.6261C17.8605 14.6271 18.2575 15.0049 18.268 15.5218C18.2786 16.0398 17.8753 16.4533 17.3351 16.458C16.5143 16.4652 15.6939 16.46 14.8732 16.4602C14.7957 16.4602 14.7183 16.4602 14.6262 16.4602C14.6 16.8465 14.5043 17.1991 14.2806 17.5061C13.9211 17.9991 13.4362 18.2668 12.8257 18.2756C12.1627 18.2852 11.4978 18.2981 10.8359 18.2661C9.90012 18.2209 9.19702 17.4912 9.13371 16.5503C9.13243 16.5293 9.12757 16.5089 9.11987 16.46ZM10.9767 16.4329C11.5885 16.4329 12.1757 16.4329 12.763 16.4329C12.763 15.8239 12.763 15.2301 12.763 14.6372C12.1596 14.6372 11.572 14.6372 10.9767 14.6372C10.9767 15.2395 10.9767 15.8284 10.9767 16.4329Z" fill="white"/>
<path fill-rule="evenodd" clip-rule="evenodd" d="M10.9549 1.82691C10.9763 1.33684 11.1293 0.931884 11.4448 0.595662C11.7819 0.236625 12.194 0.0248828 12.6891 0.0156146C13.3451 0.00320945 14.0024 -0.0114752 14.6578 0.0140481C15.6152 0.0514061 16.2702 0.659683 16.4289 1.61274C16.4394 1.67591 16.4481 1.73936 16.4615 1.82734C16.7581 1.82734 17.0561 1.82106 17.354 1.82876C17.8415 1.84145 18.218 2.18851 18.262 2.65535C18.3063 3.12303 18.0176 3.54181 17.559 3.63863C17.3875 3.67485 17.2044 3.65802 17.0266 3.66088C16.8419 3.66387 16.6573 3.66145 16.4679 3.66145C16.4391 3.82044 16.425 3.96915 16.3844 4.11017C16.1645 4.8753 15.6676 5.38363 14.8735 5.45421C14.1032 5.52279 13.3167 5.52907 12.5473 5.45749C11.6405 5.37322 11.0597 4.70134 10.9672 3.79234C10.9636 3.75769 10.9563 3.72347 10.9465 3.6613C10.8602 3.6613 10.7772 3.6613 10.6947 3.6613C7.4411 3.6613 4.18754 3.66202 0.933963 3.66074C0.331244 3.66045 -0.0771306 3.18021 0.0122721 2.58562C0.0758663 2.16242 0.458429 1.8386 0.918133 1.82834C1.21771 1.82178 1.51743 1.82677 1.81715 1.82677C4.77101 1.82677 7.725 1.82677 10.6787 1.82677C10.7633 1.82691 10.8477 1.82691 10.9549 1.82691ZM12.8038 3.64819C13.4137 3.64819 14.0083 3.64819 14.6069 3.64819C14.6069 3.04419 14.6069 2.45501 14.6069 1.85257C14.0047 1.85257 13.4108 1.85257 12.8038 1.85257C12.8038 2.45444 12.8038 3.04247 12.8038 3.64819Z" fill="white"/>
<path fill-rule="evenodd" clip-rule="evenodd" d="M9.14308 10.0606C9.11 10.6507 8.89184 11.1301 8.44098 11.4892C8.11844 11.7462 7.74957 11.8821 7.33493 11.8828C6.73549 11.8838 6.13604 11.8842 5.53675 11.8832C4.49429 11.8812 3.73558 11.181 3.65174 10.1453C3.65003 10.1245 3.64261 10.1041 3.63263 10.0608C3.55164 10.0608 3.46737 10.0608 3.3831 10.0608C2.57676 10.0606 1.77029 10.0669 0.964094 10.0584C0.334711 10.0517 -0.0651034 9.60394 0.00875719 9.01035C0.0595185 8.60297 0.384902 8.26475 0.803683 8.24336C1.31614 8.21698 1.8306 8.22882 2.34421 8.22668C2.7714 8.22468 3.19859 8.22625 3.62179 8.22625C3.663 8.02905 3.68539 7.8454 3.74028 7.67173C3.9794 6.91402 4.66895 6.40883 5.46075 6.40441C6.01727 6.40141 6.57564 6.43164 7.13017 6.39742C8.13655 6.33511 9.07137 7.02994 9.14694 8.22611C9.23363 8.22611 9.32289 8.22611 9.41229 8.22611C12.0025 8.22611 14.5928 8.2254 17.1831 8.22796C17.3315 8.22811 17.486 8.23267 17.6271 8.27302C18.0511 8.39422 18.3052 8.79646 18.2607 9.24362C18.2178 9.6738 17.8883 10.0039 17.4515 10.0487C17.3453 10.0595 17.2378 10.0601 17.1311 10.0601C14.5621 10.0608 11.9933 10.0606 9.42441 10.0606C9.33287 10.0606 9.24147 10.0606 9.14308 10.0606ZM7.28959 8.25163C6.67917 8.25163 6.09198 8.25163 5.49853 8.25163C5.49853 8.85249 5.49853 9.43967 5.49853 10.0313C6.10268 10.0313 6.69499 10.0313 7.28959 10.0313C7.28959 9.43183 7.28959 8.84964 7.28959 8.25163Z" fill="white"/>
</svg>
