<svg width="24" height="24" viewBox="0 0 24 24" fill="none" xmlns="http://www.w3.org/2000/svg">
<path d="M18.75 24H5.25C4.01001 24 3 22.9911 3 21.75V11.25C3 10.0089 4.01001 9 5.25 9H18.75C19.99 9 21 10.0089 21 11.25V21.75C21 22.9911 19.99 24 18.75 24ZM5.25 10.5C4.83691 10.5 4.5 10.836 4.5 11.25V21.75C4.5 22.164 4.83691 22.5 5.25 22.5H18.75C19.1631 22.5 19.5 22.164 19.5 21.75V11.25C19.5 10.836 19.1631 10.5 18.75 10.5H5.25Z" fill="#323231"/>
<path d="M17.25 10.5C16.836 10.5 16.5 10.164 16.5 9.75V6C16.5 3.51892 14.4811 1.5 12 1.5C9.51892 1.5 7.5 3.51892 7.5 6V9.75C7.5 10.164 7.164 10.5 6.75 10.5C6.336 10.5 6 10.164 6 9.75V6C6 2.69092 8.69092 0 12 0C15.3091 0 18 2.69092 18 6V9.75C18 10.164 17.664 10.5 17.25 10.5Z" fill="#323231"/>
</svg>
