<svg width="17" height="17" viewBox="0 0 17 17" fill="none" xmlns="http://www.w3.org/2000/svg">
<path d="M16.495 8.58179C16.495 4.03296 12.842 0.347412 8.33277 0.347412C3.82357 0.347412 0.170166 4.03296 0.170166 8.58179C0.170166 12.1013 2.30957 15.0564 5.33767 16.2517C5.27177 15.6208 5.20597 14.6248 5.37057 13.8943C5.53507 13.2634 6.32507 9.8103 6.32507 9.8103C6.32507 9.8103 6.09467 9.31226 6.09467 8.58179C6.09467 7.45288 6.75297 6.5896 7.57577 6.5896C8.26697 6.5896 8.59607 7.12085 8.59607 7.75171C8.59607 8.44897 8.13537 9.51147 7.90497 10.5076C7.74037 11.3044 8.33277 11.9685 9.12277 11.9685C10.571 11.9685 11.69 10.4412 11.69 8.21655C11.69 6.22437 10.275 4.86304 8.29987 4.86304C5.96297 4.86304 4.61357 6.6228 4.61357 8.41577C4.61357 9.14624 4.87687 9.90991 5.20597 10.3083C5.27177 10.3748 5.27177 10.4744 5.27177 10.5408C5.20597 10.8064 5.04137 11.3708 5.04137 11.4705C5.00847 11.6365 4.90977 11.6697 4.74517 11.6033C3.72487 11.1052 3.09947 9.61108 3.09947 8.38257C3.09947 5.79272 4.97557 3.4021 8.49737 3.4021C11.328 3.4021 13.533 5.46069 13.533 8.18335C13.533 11.0056 11.756 13.2966 9.28727 13.2966C8.46447 13.2966 7.67457 12.865 7.41117 12.3337C7.41117 12.3337 7.01627 13.9275 6.91747 14.2927C6.71997 15.0232 6.22627 15.9197 5.89717 16.4509C6.65417 16.7166 7.47707 16.8162 8.33277 16.8162C12.842 16.8162 16.495 13.1306 16.495 8.58179Z" fill="#1A1A1A"/>
</svg>
