<svg width="18" height="15" viewBox="0 0 18 15" fill="none" xmlns="http://www.w3.org/2000/svg">
<path d="M15.7463 3.72001C16.4045 3.22196 16.997 2.62431 17.4578 1.92704C16.8653 2.19266 16.1741 2.39188 15.483 2.45829C16.2071 2.02665 16.7337 1.36259 16.997 0.532515C16.3387 0.930955 15.5817 1.22977 14.8247 1.39579C14.1664 0.698525 13.2777 0.300095 12.2903 0.300095C10.3813 0.300095 8.83439 1.86063 8.83439 3.78641C8.83439 4.05204 8.86729 4.31766 8.93309 4.58329C6.06959 4.41727 3.50229 3.02274 1.79079 0.930955C1.49459 1.42899 1.32999 2.02665 1.32999 2.69071C1.32999 3.88602 1.92239 4.94852 2.87689 5.57938C2.31739 5.54618 1.75789 5.41337 1.29709 5.14774V5.18095C1.29709 6.8743 2.48199 8.26884 4.06179 8.60087C3.79849 8.66727 3.46939 8.73368 3.17319 8.73368C2.94279 8.73368 2.74529 8.70048 2.51489 8.66727C2.94279 10.0618 4.22639 11.0579 5.74039 11.0911C4.55549 12.0208 3.07439 12.5852 1.46159 12.5852C1.16539 12.5852 0.902094 12.552 0.638794 12.5188C2.15279 13.5149 3.96309 14.0794 5.93789 14.0794C12.2903 14.0794 15.7463 8.8001 15.7463 4.18485C15.7463 4.01884 15.7463 3.88602 15.7463 3.72001Z" fill="#1A1A1A"/>
</svg>
