<svg width="22" height="22" viewBox="0 0 22 22" fill="none" xmlns="http://www.w3.org/2000/svg">
<path d="M18.7778 1H3.22222C1.99492 1 1 1.99492 1 3.22222V18.7778C1 20.0051 1.99492 21 3.22222 21H18.7778C20.0051 21 21 20.0051 21 18.7778V3.22222C21 1.99492 20.0051 1 18.7778 1Z" stroke="#414B8A" stroke-width="1.5" stroke-linecap="round" stroke-linejoin="round"/>
<path d="M17 16V14.6667C17 13.9594 16.7103 13.2811 16.1945 12.781C15.6788 12.281 14.9793 12 14.25 12H8.75C8.02065 12 7.32118 12.281 6.80546 12.781C6.28973 13.2811 6 13.9594 6 14.6667V16M14 7.5C14 8.88071 12.8807 10 11.5 10C10.1193 10 9 8.88071 9 7.5C9 6.11929 10.1193 5 11.5 5C12.8807 5 14 6.11929 14 7.5Z" stroke="#414B8A" stroke-width="1.5" stroke-linecap="round" stroke-linejoin="round"/>
</svg>
