<svg width="18" height="22" viewBox="0 0 18 22" fill="none" xmlns="http://www.w3.org/2000/svg">
<g opacity="0.3">
<path d="M13 2.99996H15C15.5304 2.99996 16.0391 3.21067 16.4142 3.58574C16.7893 3.96081 17 4.46952 17 4.99996V19C17 19.5304 16.7893 20.0391 16.4142 20.4142C16.0391 20.7892 15.5304 21 15 21H3C2.46957 21 1.96086 20.7892 1.58579 20.4142C1.21071 20.0391 1 19.5304 1 19V4.99996C1 4.46952 1.21071 3.96081 1.58579 3.58574C1.96086 3.21067 2.46957 2.99996 3 2.99996H5M6.00036 1H12.0004C12.5526 1 13.0004 1.44772 13.0004 2V4C13.0004 4.55228 12.5526 5 12.0004 5H6.00036C5.44807 5 5.00036 4.55228 5.00036 4V2C5.00036 1.44772 5.44807 1 6.00036 1Z" stroke="#414B8A" stroke-width="1.5" stroke-linecap="round" stroke-linejoin="round"/>
</g>
<path opacity="0.3" d="M12.818 9.18188L7.19305 14.6364L4.63623 12.1571" stroke="#414B8A" stroke-width="1.5" stroke-linecap="round" stroke-linejoin="round"/>
</svg>
