<svg width="20" height="21" viewBox="0 0 20 21" fill="none" xmlns="http://www.w3.org/2000/svg">
<path d="M18.9194 9.90719L10.4475 18.3791C9.40964 19.4169 8.00199 20 6.53422 20C5.06645 20 3.6588 19.4169 2.62094 18.3791C1.58307 17.3412 1 15.9335 1 14.4658C1 12.998 1.58307 11.5904 2.62094 10.5525L11.0928 2.08062C11.7847 1.38871 12.7232 1 13.7017 1C14.6802 1 15.6186 1.38871 16.3105 2.08062C17.0024 2.77254 17.3911 3.71097 17.3911 4.68948C17.3911 5.66799 17.0024 6.60643 16.3105 7.29834L7.82943 15.7702C7.48347 16.1162 7.01426 16.3105 6.525 16.3105C6.03575 16.3105 5.56653 16.1162 5.22057 15.7702C4.87462 15.4243 4.68026 14.955 4.68026 14.4658C4.68026 13.9765 4.87462 13.5073 5.22057 13.1614L13.0471 5.344" stroke="#414B8A" stroke-opacity="0.3" stroke-width="1.5" stroke-linecap="round" stroke-linejoin="round"/>
</svg>
